<svg width="92" height="92" fill="none" xmlns="http://www.w3.org/2000/svg"><path d="M52.049 17.027v3.923l-3.755 3.115v.557a5.2 5.2 0 011.836.5c.593.26 1.103.622 1.53 1.085.445.464.797 1.03 1.057 1.697.26.668.389 1.438.389 2.31 0 1.02-.186 1.946-.556 2.78a6.15 6.15 0 01-1.53 2.087c-.65.575-1.438 1.02-2.365 1.335-.909.297-1.9.446-2.977.446-1.094 0-2.095-.158-3.004-.473-.89-.334-1.66-.78-2.309-1.336a6.279 6.279 0 01-1.502-1.975 6.05 6.05 0 01-.584-2.503h4.006c.111.89.473 1.567 1.085 2.03.612.464 1.381.696 2.309.696 1.057 0 1.891-.278 2.503-.835.612-.575.918-1.335.918-2.28 0-.965-.297-1.735-.89-2.31-.575-.593-1.419-.89-2.532-.89-.723 0-1.316.065-1.78.195v-3.143l3.756-3.088v-.557H39.53v-3.366h12.518z" fill="#01592F"/><path d="M52.049 17.027v3.923l-3.755 3.115v.557a5.2 5.2 0 011.836.5c.593.26 1.103.622 1.53 1.085.445.464.797 1.03 1.057 1.697.26.668.389 1.438.389 2.31 0 1.02-.186 1.946-.556 2.78a6.15 6.15 0 01-1.53 2.087c-.65.575-1.438 1.02-2.365 1.335-.909.297-1.9.446-2.977.446-1.094 0-2.095-.158-3.004-.473-.89-.334-1.66-.78-2.309-1.336a6.279 6.279 0 01-1.502-1.975 6.05 6.05 0 01-.584-2.503h4.006c.111.89.473 1.567 1.085 2.03.612.464 1.381.696 2.309.696 1.057 0 1.891-.278 2.503-.835.612-.575.918-1.335.918-2.28 0-.965-.297-1.735-.89-2.31-.575-.593-1.419-.89-2.532-.89-.723 0-1.316.065-1.78.195v-3.143l3.756-3.088v-.557H39.53v-3.366h12.518z" fill="#000" fill-opacity=".2"/><path fill-rule="evenodd" clip-rule="evenodd" d="M19.773 0h52.454v7.91H92v18.317c0 5.588-2.011 10.218-5.413 13.444-3.382 3.207-7.977 4.874-12.905 4.874h-3.609a26.22 26.22 0 01-14.028 13.819 18.317 18.317 0 018.102 12.818h12.035V92H15.818V71.182h12.035a18.32 18.32 0 018.102-12.818 26.221 26.221 0 01-14.028-13.819h-3.609c-4.928 0-9.523-1.667-12.905-4.874C2.011 36.445 0 31.815 0 26.227V7.91h19.773V0zm5 34.136a21.227 21.227 0 0042.454 0V5H24.773v29.136zm-5-21.227H5v13.318c0 4.335 1.53 7.613 3.853 9.816 2.344 2.222 5.658 3.502 9.465 3.502h1.455V12.91zM46 60.364a13.318 13.318 0 00-13.081 10.818h26.163A13.318 13.318 0 0046 60.364zm26.227-20.819h1.455c3.807 0 7.12-1.28 9.465-3.502C85.47 33.84 87 30.562 87 26.227V12.91H72.227v26.636zM20.818 76.183V87h50.364V76.182H20.818z" fill="#01592F"/><path fill-rule="evenodd" clip-rule="evenodd" d="M19.773 0h52.454v7.91H92v18.317c0 5.588-2.011 10.218-5.413 13.444-3.382 3.207-7.977 4.874-12.905 4.874h-3.609a26.22 26.22 0 01-14.028 13.819 18.317 18.317 0 018.102 12.818h12.035V92H15.818V71.182h12.035a18.32 18.32 0 018.102-12.818 26.221 26.221 0 01-14.028-13.819h-3.609c-4.928 0-9.523-1.667-12.905-4.874C2.011 36.445 0 31.815 0 26.227V7.91h19.773V0zm5 34.136a21.227 21.227 0 0042.454 0V5H24.773v29.136zm-5-21.227H5v13.318c0 4.335 1.53 7.613 3.853 9.816 2.344 2.222 5.658 3.502 9.465 3.502h1.455V12.91zM46 60.364a13.318 13.318 0 00-13.081 10.818h26.163A13.318 13.318 0 0046 60.364zm26.227-20.819h1.455c3.807 0 7.12-1.28 9.465-3.502C85.47 33.84 87 30.562 87 26.227V12.91H72.227v26.636zM20.818 76.183V87h50.364V76.182H20.818z" fill="#000" fill-opacity=".2"/></svg>