<svg width="92" height="92" fill="none" xmlns="http://www.w3.org/2000/svg"><path d="M38.78 22.897c.055-1.02.26-1.92.612-2.698a5.466 5.466 0 011.446-1.948 6.135 6.135 0 012.226-1.196c.853-.278 1.798-.417 2.837-.417 1.076 0 2.03.148 2.865.445.854.297 1.568.723 2.142 1.28a5.19 5.19 0 011.308 1.975c.297.76.445 1.613.445 2.559 0 .686-.084 1.326-.25 1.92a6.154 6.154 0 01-.807 1.696c-.352.557-.825 1.122-1.419 1.697a27.363 27.363 0 01-2.142 1.836l-3.004 2.42v.557h8.04V36.5H38.89v-4.006l5.564-4.256c.76-.575 1.4-1.085 1.919-1.53.538-.464.974-.89 1.307-1.28.334-.408.575-.806.724-1.196.148-.39.222-.806.222-1.252 0-.945-.269-1.64-.806-2.086-.52-.464-1.197-.695-2.031-.695-.816 0-1.502.213-2.059.64-.538.426-.853 1.112-.946 2.058H38.78z" fill="#01592F"/><path d="M38.78 22.897c.055-1.02.26-1.92.612-2.698a5.466 5.466 0 011.446-1.948 6.135 6.135 0 012.226-1.196c.853-.278 1.798-.417 2.837-.417 1.076 0 2.03.148 2.865.445.854.297 1.568.723 2.142 1.28a5.19 5.19 0 011.308 1.975c.297.76.445 1.613.445 2.559 0 .686-.084 1.326-.25 1.92a6.154 6.154 0 01-.807 1.696c-.352.557-.825 1.122-1.419 1.697a27.363 27.363 0 01-2.142 1.836l-3.004 2.42v.557h8.04V36.5H38.89v-4.006l5.564-4.256c.76-.575 1.4-1.085 1.919-1.53.538-.464.974-.89 1.307-1.28.334-.408.575-.806.724-1.196.148-.39.222-.806.222-1.252 0-.945-.269-1.64-.806-2.086-.52-.464-1.197-.695-2.031-.695-.816 0-1.502.213-2.059.64-.538.426-.853 1.112-.946 2.058H38.78z" fill="#000" fill-opacity=".2"/><path fill-rule="evenodd" clip-rule="evenodd" d="M19.773 0h52.454v7.91H92v18.317c0 5.588-2.011 10.218-5.413 13.444-3.382 3.207-7.977 4.874-12.905 4.874h-3.609a26.22 26.22 0 01-14.028 13.819 18.317 18.317 0 018.102 12.818h12.035V92H15.818V71.182h12.035a18.32 18.32 0 018.102-12.818 26.221 26.221 0 01-14.028-13.819h-3.609c-4.928 0-9.523-1.667-12.905-4.874C2.011 36.445 0 31.815 0 26.227V7.91h19.773V0zm5 34.136a21.227 21.227 0 0042.454 0V5H24.773v29.136zm-5-21.227H5v13.318c0 4.335 1.53 7.613 3.853 9.816 2.344 2.222 5.658 3.502 9.465 3.502h1.455V12.91zM46 60.364a13.318 13.318 0 00-13.081 10.818h26.163A13.318 13.318 0 0046 60.364zm26.227-20.819h1.455c3.807 0 7.12-1.28 9.465-3.502C85.47 33.84 87 30.562 87 26.227V12.91H72.227v26.636zM20.818 76.183V87h50.364V76.182H20.818z" fill="#01592F"/><path fill-rule="evenodd" clip-rule="evenodd" d="M19.773 0h52.454v7.91H92v18.317c0 5.588-2.011 10.218-5.413 13.444-3.382 3.207-7.977 4.874-12.905 4.874h-3.609a26.22 26.22 0 01-14.028 13.819 18.317 18.317 0 018.102 12.818h12.035V92H15.818V71.182h12.035a18.32 18.32 0 018.102-12.818 26.221 26.221 0 01-14.028-13.819h-3.609c-4.928 0-9.523-1.667-12.905-4.874C2.011 36.445 0 31.815 0 26.227V7.91h19.773V0zm5 34.136a21.227 21.227 0 0042.454 0V5H24.773v29.136zm-5-21.227H5v13.318c0 4.335 1.53 7.613 3.853 9.816 2.344 2.222 5.658 3.502 9.465 3.502h1.455V12.91zM46 60.364a13.318 13.318 0 00-13.081 10.818h26.163A13.318 13.318 0 0046 60.364zm26.227-20.819h1.455c3.807 0 7.12-1.28 9.465-3.502C85.47 33.84 87 30.562 87 26.227V12.91H72.227v26.636zM20.818 76.183V87h50.364V76.182H20.818z" fill="#000" fill-opacity=".2"/></svg>