<svg width="148" height="48" fill="none" xmlns="http://www.w3.org/2000/svg"><path d="M4.971 2.9v15.972h5.351V8.224h10.702V2.9H4.97zm5.351 37.275V29.527h-5.35v15.972h16.052v-5.324H10.322zm32.109-10.647v10.648H31.723v5.323h16.06V29.528h-5.35z" fill="#000"/><path d="M34.4 2.9l-3.675 5.325h11.708v11.649l5.35-3.663V2.9H34.4z" fill="#F7941E"/><path d="M106.844 16.543v6.522h-6.776v-6.522h-3.391v15.312h3.391v-5.923h-.335v-.334h7.111v6.257h3.385V16.543h-3.385zM74.715 29.194v-.334h.335V16.544h-3.384v12.65h-6.784v-12.65h-3.384v15.312h12.576v2.662h2.676v-5.324h-2.035zm38.109-12.65v2.532h5.709v12.78h3.384V19.41h-.335v-.334h6.044v-2.532h-14.802zM84.105 29.192V25.93h-.335v-.334h7.111v-2.533h-6.776V19.41h-.335v-.334h9.078v-2.533H80.713v15.312H93.29v-2.662h-9.185zm53.835-4.86h-4.337V19.41h-.335v-.334h4.672a2.64 2.64 0 012.645 2.632 2.633 2.633 0 01-2.645 2.624zm.404-7.788h-8.125v15.311h3.392V27.2h-.335v-.334h5.076c2.866 0 5.183-2.313 5.183-5.157-.008-2.851-2.332-5.164-5.191-5.164z" fill="#000"/><path d="M26.376 28.192c-2.218 0-4.016-1.79-4.016-3.99 0-2.206 1.798-3.996 4.016-3.996s4.017 1.79 4.017 3.997c0 2.2-1.799 3.989-4.017 3.989zm0-11.983c-4.436 0-8.026 3.58-8.026 7.986 0 4.407 3.598 7.986 8.026 7.986 4.436 0 8.027-3.572 8.027-7.986 0-4.413-3.59-7.986-8.027-7.986z" fill="#F7941E"/></svg>