<svg width="43" height="44" fill="none" xmlns="http://www.w3.org/2000/svg"><path d="M22.89.547H12.86v22.77h10.063V.546h-.033zM20.3 20.749h-4.816V3.047h4.815V20.75zm22.641 5.036H.234v2.5h42.707v-2.5zM.234 43.452h2.624V40.62h14.944v-9.835H.234v12.668zm2.624-10.134h12.354v4.8H2.858v-4.8zM28.1 8.114l4.781-5.067v20.236h2.624V8.114l4.815-5.067v20.236h2.623V.547h-3.686l-3.752 3.9v-3.9h-3.687l-6.342 6.6v16.136h2.623V8.114zm-7.743 32.504h9.897v2.834h2.723v-2.834h9.963v-9.834H20.357v9.834zm12.62-7.3h7.339v4.8h-7.34v-4.8zm-9.996 0h7.273v4.8H22.98v-4.8zM7.673 23.283h2.624V.547H6.61l-6.377 6.6v16.136h7.439zM2.858 8.114l4.815-5.067V20.75H2.858V8.114z" fill="#344650"/><path d="M42.941 25.785H.234v2.5h42.707v-2.5zM.234 43.452h2.624V40.62h14.944v-9.835H.234v12.668zm2.624-10.134h12.354v4.8H2.858v-4.8zm17.499 7.3h9.897v2.834h2.723v-2.834h9.963v-9.834H20.357v9.834zm12.62-7.3h7.339v4.8h-7.34v-4.8zm-9.996 0h7.273v4.8H22.98v-4.8zM22.89.547H12.86v22.77h10.063V.546h-.033zM20.3 20.749h-4.816V3.047h4.815V20.75zm7.8-12.635l4.781-5.067v20.236h2.624V8.114l4.815-5.067v20.236h2.623V.547h-3.686l-3.752 3.9v-3.9h-3.687l-6.342 6.6v16.136h2.623V8.114zM7.673 23.283h2.624V.547H6.61l-6.377 6.6v16.136h7.439zM2.858 8.114l4.815-5.067V20.75H2.858V8.114z" fill="#344650"/></svg>