<svg width="247" height="138" fill="none" xmlns="http://www.w3.org/2000/svg"><path d="M84.834 72.462c.652 0 1.225.117 1.72.338a3.57 3.57 0 011.253.925c.339.39.586.846.756 1.38.17.534.26 1.093.26 1.705 0 .612-.09 1.172-.26 1.706s-.43.99-.756 1.38c-.326.39-.757.703-1.252.924-.496.222-1.07.339-1.721.339-.652 0-1.226-.105-1.722-.339a3.451 3.451 0 01-1.251-.924 4.042 4.042 0 01-.757-1.38 5.563 5.563 0 01-.26-1.706c0-.612.091-1.171.26-1.705.17-.534.43-.99.757-1.38.339-.39.756-.703 1.251-.925a4.255 4.255 0 011.722-.338zm0 7.408c.443 0 .834-.078 1.147-.248a2.33 2.33 0 00.796-.664 2.83 2.83 0 00.469-.976c.104-.377.156-.768.156-1.185 0-.416-.052-.807-.156-1.184a2.835 2.835 0 00-.47-.977 2.335 2.335 0 00-.795-.664c-.326-.17-.704-.247-1.147-.247-.444 0-.835.078-1.16.247-.327.17-.588.39-.796.664a2.837 2.837 0 00-.47.977 4.407 4.407 0 00-.156 1.184c0 .417.052.808.156 1.185.105.378.261.703.47.976.209.274.47.495.795.664.326.17.704.248 1.16.248zm5.229-4.856h5.346v1.12H93.4v4.842h-1.33v-4.843h-2.02v-1.12h.013zm9.44 3.463h-1.356v2.5h-1.33v-5.963h1.33v2.343h1.382l1.356-2.343h1.369l-1.669 2.877 1.747 3.098h-1.408l-1.434-2.5.013-.012zm7.523 2.656c-.443 0-.795-.066-1.056-.209s-.482-.312-.639-.534h-.235v2.93h-1.33v-8.306h1.291v.586h.235c.169-.209.378-.378.652-.521.274-.143.626-.222 1.069-.222a2.6 2.6 0 011.108.235c.339.156.613.377.835.65.235.287.404.613.521.99.118.378.183.807.183 1.25 0 .443-.065.872-.183 1.25-.13.377-.299.716-.534.99a2.546 2.546 0 01-.835.65 2.518 2.518 0 01-1.108.235l.026.026zm-.3-5.143c-.287 0-.534.052-.743.17-.209.103-.378.26-.522.442-.13.182-.234.404-.299.65a2.888 2.888 0 00-.092.756c0 .26.026.508.092.755.065.247.156.456.299.651.144.182.313.339.522.443.209.104.456.169.743.169.274 0 .509-.052.717-.156.209-.104.378-.248.509-.417.13-.182.235-.39.3-.638a3.08 3.08 0 00.104-.794c0-.286-.039-.56-.104-.807a1.929 1.929 0 00-.3-.638 1.414 1.414 0 00-.509-.417 1.71 1.71 0 00-.717-.156v-.013zm5.92-.977v1.85h1.487c.756 0 1.33.181 1.734.533.391.364.6.86.6 1.484 0 .625-.196 1.146-.6 1.523-.404.378-.978.56-1.734.56h-2.817v-5.962h1.33v.012zm0 4.844h1.304c.457 0 .77-.091.939-.26.17-.17.248-.404.248-.704 0-.3-.078-.547-.248-.703-.169-.156-.482-.247-.939-.247h-1.304v1.927-.013zm6.064-4.844v5.963h-1.33v-5.963h1.33zm1.408.001h5.346v1.12h-2.008v4.842h-1.33v-4.843h-2.022v-1.12h.014zm8.07-.001v1.85h1.487c.756 0 1.33.181 1.734.533.391.364.6.86.6 1.484 0 .625-.196 1.146-.6 1.523-.404.378-.978.56-1.734.56h-2.817v-5.962h1.33v.012zm0 4.844h1.304c.457 0 .77-.091.939-.26.17-.17.248-.404.248-.704 0-.3-.078-.547-.248-.703-.169-.156-.482-.247-.939-.247h-1.304v1.927-.013zm6.064-4.844v5.963h-1.33v-5.963h1.33zm1.982 5.963v-5.963h1.291v3.92h.234l2.517-3.92h1.525v5.963h-1.291v-3.918h-.234l-2.543 3.918h-1.499zm4.759-8.45c-.026.548-.222.977-.561 1.277-.339.3-.821.455-1.421.455-.6 0-1.082-.156-1.421-.455-.339-.3-.522-.73-.561-1.276h1.043a.962.962 0 00.248.612c.143.156.378.234.691.234.313 0 .548-.078.691-.234a.967.967 0 00.248-.612h1.043zm5.893 2.488h1.839l1.408 2.786h.235l1.408-2.786h1.825v5.962h-1.291v-4.283h-.234l-1.239 2.409h-1.2l-1.238-2.409h-.235v4.283h-1.291v-5.962h.013zm14.07 3.086h-4.407c.013.611.17 1.08.443 1.405.287.326.691.495 1.226.495.365 0 .652-.065.861-.195.208-.13.365-.313.443-.547h1.356a2.226 2.226 0 01-.835 1.354c-.443.352-1.056.534-1.825.534-.469 0-.887-.078-1.252-.234a2.827 2.827 0 01-.939-.652 2.757 2.757 0 01-.586-1.002 4.033 4.033 0 01-.196-1.289c0-.468.065-.898.209-1.276.143-.377.326-.703.586-.976.248-.274.561-.482.926-.625a3.388 3.388 0 011.239-.221c.456 0 .848.078 1.187.22.339.144.638.352.873.6.235.247.417.547.535.885.117.339.182.703.182 1.094v.442l-.026-.013zm-2.79-2.188c-.47 0-.822.117-1.069.352-.248.234-.405.52-.483.872h2.986a1.412 1.412 0 00-.417-.86c-.235-.234-.574-.35-1.017-.35v-.014zm5.137 5.064h-1.356l1.577-3.072-1.499-2.89h1.356l1.239 2.356h1.147v-2.356h1.239v2.356h1.134l1.226-2.356h1.356l-1.513 2.89 1.604 3.072h-1.369l-1.304-2.486h-1.134v2.486h-1.239V78.49h-1.147l-1.304 2.486h-.013zm15.907-1.119v2.799h-1.265v-1.68h-4.785v1.68h-1.265v-2.8h.848c.169-.39.313-.846.443-1.38a7.43 7.43 0 00.196-1.783v-1.68h4.746v4.844h1.082zm-2.399-3.71h-2.217v.56c0 .676-.052 1.262-.169 1.783-.118.52-.248.976-.404 1.367h2.777v-3.71h.013zm4.134 7.173l1.264-2.877-2.503-5.43h1.408l1.617 3.542h.3l1.538-3.541h1.356l-3.624 8.306h-1.356zm10.509-2.344v-2.5h-2.882v2.5h-1.33v-5.962h1.33v2.343h2.882v-2.343h1.33v5.962h-1.33zm7.067-.573h-.235a1.937 1.937 0 01-.704.534c-.3.13-.652.195-1.056.195a2.61 2.61 0 01-.926-.156 1.89 1.89 0 01-.678-.43 1.819 1.819 0 01-.417-.624 2.037 2.037 0 01-.143-.742c0-.235.039-.47.13-.703a1.69 1.69 0 01.417-.638c.183-.196.431-.352.73-.47.3-.116.665-.181 1.096-.181h1.76v-.183c0-.325-.104-.599-.3-.794-.196-.195-.522-.3-.952-.3-.378 0-.678.066-.873.21a.713.713 0 00-.326.533h-1.317c.013-.273.091-.52.208-.742.131-.222.3-.404.522-.56a2.32 2.32 0 01.769-.352 3.7 3.7 0 01.965-.117c.378 0 .73.04 1.056.13.326.092.6.222.822.391.221.17.391.404.521.677.131.273.183.599.183.963v3.958h-1.239v-.573l-.013-.026zm-1.617-.351a1.695 1.695 0 001.135-.43c.143-.13.247-.286.339-.468.078-.183.117-.365.117-.573v-.443h-1.526c-.417 0-.743.091-.951.247-.209.17-.313.404-.313.716 0 .313.104.534.313.69.208.17.508.248.886.248v.013zm8.006 1.081c-.443 0-.795-.066-1.056-.209s-.482-.312-.639-.534h-.235v2.93h-1.33v-8.306h1.291v.586h.235c.169-.209.378-.378.652-.521.274-.143.626-.222 1.069-.222a2.6 2.6 0 011.108.235c.339.156.613.377.835.65.222.274.404.613.535.99.13.378.182.807.182 1.25 0 .443-.065.872-.182 1.25-.131.377-.3.716-.522.99a2.419 2.419 0 01-.835.65 2.518 2.518 0 01-1.108.235v.026zm-.3-5.143c-.287 0-.534.052-.743.17a1.72 1.72 0 00-.522.442 1.761 1.761 0 00-.299.65 2.888 2.888 0 00-.092.756c0 .26.026.508.092.755.065.247.156.456.299.651.131.182.313.339.522.443.209.104.456.169.743.169.274 0 .509-.052.717-.156.209-.104.379-.248.509-.417.143-.182.235-.39.3-.638a3.08 3.08 0 00.104-.794c0-.286-.039-.56-.104-.807a1.929 1.929 0 00-.3-.638 1.306 1.306 0 00-.509-.417 1.57 1.57 0 00-.717-.156v-.013zm7.302-1.133c.469 0 .886.079 1.265.235.378.156.691.377.951.65.261.274.457.613.6.99.131.378.209.807.209 1.25 0 .443-.065.885-.209 1.263a2.91 2.91 0 01-.6.99 2.74 2.74 0 01-.951.65 3.274 3.274 0 01-1.265.235 3.27 3.27 0 01-1.265-.235 2.754 2.754 0 01-.952-.65 2.926 2.926 0 01-.6-.99 3.896 3.896 0 01-.208-1.263c0-.456.065-.872.208-1.25.144-.377.339-.716.6-.99.261-.273.574-.494.952-.65a3.265 3.265 0 011.265-.235zm0 5.143a1.578 1.578 0 001.291-.612c.143-.182.247-.404.313-.65.065-.248.104-.496.104-.756s-.039-.508-.104-.755a1.908 1.908 0 00-.313-.651 1.483 1.483 0 00-.535-.443 1.662 1.662 0 00-.756-.169c-.3 0-.535.052-.756.17-.222.117-.392.26-.535.442a1.767 1.767 0 00-.313.65 2.94 2.94 0 00-.104.756c0 .26.039.52.104.755.065.248.169.456.313.651.143.182.313.339.535.443a1.7 1.7 0 00.756.169zm11.279-.143v2.799h-1.265v-1.68h-4.785v1.68h-1.265v-2.8h.848a8.74 8.74 0 00.443-1.38c.13-.533.195-1.119.195-1.783v-1.68h4.747v4.844h1.082zm-2.399-3.71h-2.217v.56c0 .676-.052 1.262-.169 1.783-.118.52-.248.976-.405 1.367h2.778v-3.71h.013zm7.992 4.829v-2.5h-2.882v2.5h-1.33v-5.962h1.33v2.343h2.882v-2.343h1.33v5.962h-1.33zm4.603-5.963v1.85h1.486c.756 0 1.33.181 1.734.533.391.364.6.86.6 1.484 0 .625-.196 1.146-.6 1.523-.404.378-.978.56-1.734.56h-2.816v-5.962h1.33v.012zm0 4.844h1.304c.456 0 .769-.091.938-.26.17-.17.248-.404.248-.704 0-.3-.078-.547-.248-.703-.169-.156-.482-.247-.938-.247h-1.304v1.927-.013zm6.063-4.844v5.963h-1.33v-5.963h1.33zm1.982 5.963v-5.963h1.291v3.92h.235l2.516-3.92H247v5.963h-1.291v-3.918h-.235l-2.542 3.918h-1.5zm4.76-8.45c-.026.548-.222.977-.561 1.277-.339.3-.822.455-1.421.455-.6 0-1.083-.156-1.422-.455-.339-.3-.521-.73-.56-1.276h1.043a.962.962 0 00.248.612c.143.156.378.234.691.234.313 0 .547-.078.691-.234a.966.966 0 00.247-.612h1.044zM83.83 96.704h-1.356v2.5h-1.33V93.24h1.33v2.343h1.382l1.356-2.343h1.369l-1.67 2.877 1.748 3.099h-1.408l-1.434-2.5.013-.013zm6.766-3.62c.47 0 .887.078 1.265.234.378.157.691.378.952.651.26.274.456.612.6.99.143.377.208.807.208 1.25 0 .442-.065.885-.208 1.262a2.727 2.727 0 01-1.552 1.64 3.266 3.266 0 01-1.265.235c-.47 0-.886-.078-1.264-.234a2.877 2.877 0 01-.952-.651 2.918 2.918 0 01-.6-.99 3.885 3.885 0 01-.209-1.262 3.5 3.5 0 01.209-1.25c.143-.378.339-.716.6-.99a2.75 2.75 0 01.952-.65 3.268 3.268 0 011.264-.235zm0 5.142a1.579 1.579 0 001.291-.611 1.78 1.78 0 00.313-.651c.065-.248.105-.495.105-.755s-.04-.508-.105-.755a1.886 1.886 0 00-.313-.651 1.478 1.478 0 00-.534-.443 1.662 1.662 0 00-.757-.17c-.3 0-.534.053-.756.17-.222.117-.391.26-.522.442a1.78 1.78 0 00-.312.651 2.93 2.93 0 00-.105.756c0 .26.04.52.105.755.065.247.17.455.313.65.143.183.313.34.521.443.209.104.456.17.756.17zm8.868.977v-2.5h-2.882v2.5h-1.33V93.24h1.33v2.344h2.882V93.24h1.33v5.963h-1.33zm5.972-2.499h-1.356v2.5h-1.33V93.24h1.33v2.343h1.382l1.356-2.343h1.369l-1.669 2.877 1.748 3.099h-1.409l-1.434-2.5.013-.013zm5.11 4.842l1.265-2.877-2.503-5.429h1.408l1.617 3.541h.3l1.538-3.54h1.356l-3.625 8.305h-1.356zm9.545-2.186c-.443 0-.795-.066-1.056-.21-.261-.142-.483-.312-.639-.533h-.235v2.929h-1.33V93.24h1.291v.586h.235c.169-.208.378-.377.652-.52.274-.144.626-.222 1.069-.222.404 0 .769.078 1.108.234.339.157.613.378.835.651.235.287.404.612.521.99.118.377.183.807.183 1.25 0 .442-.065.872-.183 1.25-.13.377-.299.715-.534.989a2.546 2.546 0 01-.835.65 2.52 2.52 0 01-1.108.235l.026.026zm-.3-5.143c-.287 0-.534.052-.743.169-.209.104-.378.26-.522.443a2.02 2.02 0 00-.3.65 2.93 2.93 0 00-.091.756c0 .26.026.507.091.755.066.247.157.455.3.65.144.183.313.34.522.443.209.105.456.17.743.17.274 0 .509-.052.717-.157.209-.104.378-.247.509-.416.13-.183.235-.39.3-.638s.104-.508.104-.794c0-.287-.039-.56-.104-.808a1.93 1.93 0 00-.3-.638 1.412 1.412 0 00-.509-.416 1.71 1.71 0 00-.717-.156v-.013zm9.87 3.073a2.503 2.503 0 01-.287.832c-.143.26-.326.47-.56.651a2.321 2.321 0 01-.796.417 2.99 2.99 0 01-.991.143c-.456 0-.873-.078-1.238-.234a2.817 2.817 0 01-.939-.651 3.101 3.101 0 01-.587-.99 3.899 3.899 0 01-.196-1.262c0-.456.066-.873.196-1.263a2.692 2.692 0 011.526-1.64 3.18 3.18 0 011.238-.235c.73 0 1.33.182 1.774.547.456.364.717.833.808 1.419h-1.317c-.091-.26-.222-.469-.43-.612-.209-.143-.47-.234-.822-.234-.3 0-.547.052-.756.169a1.63 1.63 0 00-.508.43 1.67 1.67 0 00-.287.638 3.569 3.569 0 00-.092.755c0 .26.026.534.092.78.065.248.156.456.287.652.13.182.299.325.508.442.209.118.456.17.756.17.378 0 .665-.078.887-.248.222-.169.352-.39.417-.69h1.317v.013zm8.92 1.914v-2.5h-2.882v2.5h-1.33V93.24h1.33v2.343h2.882V93.24h1.33v5.963h-1.33zm7.054-.574h-.235a1.936 1.936 0 01-.704.534c-.3.13-.652.195-1.056.195a2.61 2.61 0 01-.926-.156 1.894 1.894 0 01-.678-.43 1.818 1.818 0 01-.417-.624 2.036 2.036 0 01-.143-.742c0-.235.039-.469.13-.703a1.69 1.69 0 01.417-.638c.183-.196.431-.352.73-.469a3.01 3.01 0 011.096-.182h1.76v-.183c0-.325-.104-.598-.3-.794-.196-.195-.521-.3-.952-.3-.378 0-.678.066-.873.21a.713.713 0 00-.326.533h-1.317c.013-.273.091-.52.208-.742.131-.221.3-.404.522-.56a2.32 2.32 0 01.769-.351 3.7 3.7 0 01.965-.118c.378 0 .73.04 1.056.13.326.092.6.222.822.391.221.17.391.404.521.677.131.273.183.599.183.963v3.958h-1.239v-.573l-.013-.026zm-1.617-.351a1.695 1.695 0 001.135-.43c.143-.13.247-.286.339-.468a1.41 1.41 0 00.117-.573v-.443h-1.526c-.417 0-.743.091-.951.248-.209.169-.313.403-.313.716 0 .312.104.533.313.69.208.169.508.247.886.247v.013zm11.123 1.081c-.444 0-.796-.066-1.057-.21-.26-.142-.482-.312-.638-.533h-.235v2.929h-1.33V93.24h1.291v.586h.234c.17-.208.379-.377.652-.52.274-.144.626-.222 1.07-.222.404 0 .769.078 1.108.234.339.157.613.378.834.651.235.287.405.612.522.99.117.377.183.807.183 1.25 0 .442-.066.872-.183 1.25-.13.377-.3.715-.535.989a2.532 2.532 0 01-.834.65 2.52 2.52 0 01-1.108.235l.026.026zm-.3-5.143c-.287 0-.535.052-.743.169-.209.104-.379.26-.522.443-.13.182-.235.403-.3.65a2.93 2.93 0 00-.091.756c0 .26.026.507.091.755.065.247.157.455.3.65.143.183.313.34.522.443.208.105.456.17.743.17.274 0 .508-.052.717-.157a1.46 1.46 0 00.508-.416 1.91 1.91 0 00.3-.638 3.086 3.086 0 000-1.602 1.91 1.91 0 00-.3-.638 1.409 1.409 0 00-.508-.416 1.714 1.714 0 00-.717-.156v-.013zm8.358 4.413h-.235a1.944 1.944 0 01-.704.534c-.3.13-.652.195-1.056.195a2.61 2.61 0 01-.926-.156 1.885 1.885 0 01-1.096-1.054 2.036 2.036 0 01-.143-.742c0-.235.039-.469.13-.703a1.7 1.7 0 01.418-.638c.182-.196.43-.352.73-.469.3-.117.665-.182 1.095-.182h1.76v-.183c0-.325-.104-.598-.299-.794-.196-.195-.522-.3-.952-.3-.378 0-.678.066-.874.21a.713.713 0 00-.326.533h-1.317a1.74 1.74 0 01.209-.742c.13-.221.3-.404.521-.56.222-.156.47-.273.77-.351a3.65 3.65 0 01.965-.118c.378 0 .73.04 1.056.13.326.092.599.222.821.391.222.17.391.404.522.677.13.273.182.599.182.963v3.958h-1.238v-.573l-.013-.026zm-1.617-.351a1.677 1.677 0 001.134-.43 1.53 1.53 0 00.339-.468 1.41 1.41 0 00.117-.573v-.443h-1.525c-.417 0-.743.091-.952.248-.209.169-.313.403-.313.716 0 .312.104.533.313.69.209.169.509.247.887.247v.013zm8.161-3.359a.565.565 0 00-.313-.534c-.208-.117-.495-.17-.847-.17-.743 0-1.174.261-1.278.756h-1.239c.066-.612.326-1.08.796-1.406.469-.326 1.069-.482 1.786-.482.378 0 .717.052 1.017.13.3.091.548.209.756.365.209.156.366.325.47.534.104.208.156.43.156.663 0 .339-.065.612-.195.808-.131.195-.274.325-.431.377v.234c.222.066.405.196.574.404.17.208.235.508.235.898 0 .26-.052.495-.17.73a1.8 1.8 0 01-.508.585c-.222.17-.496.3-.809.391a3.891 3.891 0 01-1.082.143c-.873 0-1.551-.17-2.008-.52a2.055 2.055 0 01-.808-1.407h1.238a.971.971 0 00.222.39.96.96 0 00.352.248c.131.065.287.104.443.13a3.4 3.4 0 00.522.04c.391 0 .704-.066.939-.183a.636.636 0 00.352-.599c0-.247-.078-.43-.248-.546-.169-.13-.456-.183-.873-.183h-1.018v-1.08h.965c.365 0 .613-.065.77-.196a.63.63 0 00.234-.507v-.013zm6.416 4.44c-.443 0-.795-.066-1.056-.21-.261-.142-.482-.312-.639-.533h-.235v2.929h-1.33V93.24h1.291v.586h.235c.169-.208.378-.377.652-.52.274-.144.626-.222 1.069-.222.404 0 .769.078 1.108.234.339.157.613.378.835.651.222.274.404.612.535.99.13.377.182.807.182 1.25 0 .442-.065.872-.182 1.25-.131.377-.3.715-.522.989a2.419 2.419 0 01-.835.65 2.516 2.516 0 01-1.108.235v.026zm-.3-5.143c-.287 0-.534.052-.743.169-.209.117-.378.26-.522.443a1.762 1.762 0 00-.299.65 2.888 2.888 0 00-.092.756c0 .26.026.507.092.755.065.247.156.455.299.65.131.183.313.34.522.443.209.105.456.17.743.17.274 0 .509-.052.717-.157.209-.104.379-.247.509-.416.143-.183.235-.39.3-.638s.104-.508.104-.794c0-.287-.039-.56-.104-.808a1.93 1.93 0 00-.3-.638 1.304 1.304 0 00-.509-.416 1.568 1.568 0 00-.717-.156v-.013zm8.358 4.413h-.235a1.936 1.936 0 01-.704.534c-.3.13-.652.195-1.056.195a2.61 2.61 0 01-.926-.156 1.902 1.902 0 01-.678-.43 1.818 1.818 0 01-.417-.624 2.036 2.036 0 01-.143-.742c0-.235.039-.469.13-.703a1.69 1.69 0 01.417-.638c.183-.196.431-.352.73-.469a3.01 3.01 0 011.096-.182h1.76v-.183c0-.325-.104-.598-.3-.794-.195-.195-.521-.3-.952-.3-.378 0-.678.066-.873.21a.713.713 0 00-.326.533h-1.317c.013-.273.091-.52.208-.742.131-.221.3-.404.522-.56a2.32 2.32 0 01.769-.351 3.7 3.7 0 01.965-.118c.378 0 .73.04 1.056.13.326.092.6.222.822.391.221.17.391.404.521.677.131.273.183.599.183.963v3.958h-1.239v-.573l-.013-.026zm-1.617-.351a1.691 1.691 0 001.135-.43c.143-.13.247-.286.339-.468a1.41 1.41 0 00.117-.573v-.443h-1.526c-.417 0-.743.091-.951.248-.209.169-.313.403-.313.716 0 .312.104.533.313.69.208.169.508.247.886.247v.013zm7.759-4.843c.417 0 .808.065 1.147.208.339.143.626.338.874.599.235.26.43.56.561.924.13.365.195.755.195 1.185 0 .43-.065.846-.209 1.224a2.696 2.696 0 01-.599.937 2.67 2.67 0 01-.952.612 3.46 3.46 0 01-1.252.221c-.469 0-.9-.078-1.278-.234a2.575 2.575 0 01-.965-.69c-.26-.3-.469-.69-.612-1.133a5.203 5.203 0 01-.222-1.575c0-.508.026-1.003.078-1.484a4.45 4.45 0 01.339-1.302c.17-.39.404-.716.717-.99.313-.273.717-.455 1.226-.547.065-.013.182-.038.352-.052.17-.026.326-.052.509-.078.208-.026.417-.065.638-.104a1.66 1.66 0 00.483-.143c.104-.052.156-.17.169-.325h1.2c0 .182-.026.351-.052.507a1.07 1.07 0 01-.17.443c-.091.13-.208.247-.378.351a1.894 1.894 0 01-.652.235c-.065.013-.169.039-.339.052a25.77 25.77 0 01-.534.078c-.196.026-.379.065-.561.091-.183.026-.313.052-.404.065-.248.052-.457.117-.639.235-.17.104-.313.234-.417.39a2.131 2.131 0 00-.261.52 4.198 4.198 0 00-.144.639h.222c.222-.326.495-.547.821-.664.326-.13.692-.183 1.109-.183v-.012zm-.274 4.79c.287 0 .548-.052.756-.143.209-.09.391-.234.535-.403.143-.17.248-.365.313-.586.065-.221.104-.456.104-.703 0-.248-.039-.482-.104-.703a1.81 1.81 0 00-.313-.586 1.493 1.493 0 00-.535-.404 1.905 1.905 0 00-.756-.143 2.02 2.02 0 00-.769.143 1.381 1.381 0 00-.535.404c-.143.17-.248.364-.313.586a2.484 2.484 0 00-.104.703c0 .247.039.468.104.703.065.234.17.416.313.586.143.169.313.3.535.403.221.105.469.144.769.144zm7.393-5.142c.47 0 .887.078 1.265.234.378.157.691.378.952.651.261.274.456.612.6.99.13.377.208.807.208 1.25 0 .442-.065.885-.208 1.262a2.925 2.925 0 01-.6.99 2.753 2.753 0 01-.952.65 3.265 3.265 0 01-1.265.235c-.469 0-.886-.078-1.265-.234a2.74 2.74 0 01-.951-.651 2.91 2.91 0 01-.6-.99 3.869 3.869 0 01-.209-1.262c0-.456.065-.873.209-1.25a2.91 2.91 0 01.6-.99 2.74 2.74 0 01.951-.65 3.274 3.274 0 011.265-.235zm0 5.142a1.575 1.575 0 001.291-.611c.143-.183.248-.404.313-.651a2.94 2.94 0 00.104-.755c0-.26-.039-.508-.104-.755a1.89 1.89 0 00-.313-.651 1.473 1.473 0 00-.535-.443 1.659 1.659 0 00-.756-.17c-.3 0-.534.053-.756.17-.222.117-.391.26-.535.442a1.799 1.799 0 00-.313.651 2.939 2.939 0 00-.104.756c0 .26.039.52.104.755.066.247.17.455.313.65.144.183.313.34.535.443.222.104.456.17.756.17zm4.042-4.986h5.346v1.12h-2.008v4.844h-1.33V94.36h-2.021v-1.12h.013zm9.427 3.464h-1.356v2.5h-1.33V93.24h1.33v2.343h1.382l1.356-2.343h1.369l-1.669 2.877 1.747 3.099h-1.408l-1.434-2.5.013-.013zm5.111 4.842l1.265-2.877-2.504-5.429h1.409l1.616 3.541h.3l1.539-3.54h1.356l-3.625 8.305h-1.356zm-134.914 9.921h1.838l1.408 2.786h.235l1.408-2.786h1.826v5.963h-1.291v-4.283h-.235l-1.239 2.408h-1.2l-1.225-2.408h-.235v4.283h-1.29v-5.963zm12.452 5.39h-.235a1.946 1.946 0 01-.704.534c-.287.13-.652.195-1.056.195a2.61 2.61 0 01-.926-.156 1.892 1.892 0 01-1.095-1.055 2.027 2.027 0 01-.144-.742 1.945 1.945 0 01.535-1.341c.183-.195.43-.351.73-.468.3-.118.665-.183 1.096-.183h1.76v-.182c0-.325-.105-.599-.3-.794-.196-.195-.522-.3-.952-.3-.378 0-.678.066-.874.209a.737.737 0 00-.325.534h-1.317c.013-.274.09-.521.208-.743.13-.221.3-.403.522-.559a2.3 2.3 0 01.77-.352c.299-.078.612-.117.964-.117.378 0 .73.039 1.056.13.326.091.587.221.822.391.221.169.39.403.521.677.13.273.183.599.183.963v3.958h-1.239v-.599zm-1.617-.352c.222 0 .43-.039.626-.117a1.67 1.67 0 00.508-.312c.144-.13.248-.287.34-.469a1.22 1.22 0 00.117-.573v-.442h-1.526c-.417 0-.743.091-.951.247-.21.169-.314.404-.314.716 0 .313.105.534.314.69.208.169.508.247.886.247v.013zm9.975-.989a2.531 2.531 0 01-.287.833c-.143.26-.326.469-.561.651a2.311 2.311 0 01-.795.417c-.3.091-.626.143-.991.143a3.14 3.14 0 01-1.239-.234 2.84 2.84 0 01-.939-.651 3.117 3.117 0 01-.586-.99 3.885 3.885 0 01-.196-1.263c0-.455.065-.872.196-1.263a2.698 2.698 0 011.526-1.64 3.14 3.14 0 011.238-.234c.73 0 1.33.182 1.773.546.444.365.717.834.809 1.42h-1.317a1.248 1.248 0 00-.431-.612c-.195-.157-.469-.235-.821-.235-.3 0-.548.052-.756.17-.209.117-.378.26-.509.429a1.68 1.68 0 00-.287.638 3.621 3.621 0 00-.09.755c0 .261.025.534.09.781.066.248.157.456.287.651.13.183.3.326.509.443.208.117.456.169.756.169.378 0 .665-.078.887-.247.208-.169.352-.391.417-.69h1.317v.013zm1.095-4.049h5.346v1.12h-2.008v4.843h-1.33v-4.843h-2.021v-1.12h.013zm12.127 3.085h-4.407c.013.612.169 1.081.443 1.407.287.325.691.494 1.225.494.366 0 .652-.065.861-.195.209-.13.365-.312.443-.547h1.356a2.227 2.227 0 01-.834 1.354c-.443.352-1.056.534-1.826.534-.469 0-.886-.078-1.251-.234a2.844 2.844 0 01-.939-.651 2.763 2.763 0 01-.587-1.003c-.13-.39-.195-.82-.195-1.289 0-.468.065-.898.208-1.276.144-.377.326-.703.587-.976.248-.273.561-.482.926-.625a3.387 3.387 0 011.238-.221c.457 0 .848.078 1.187.221.339.143.639.352.874.599.234.247.417.547.534.885.118.339.183.703.183 1.094v.442l-.026-.013zm-2.791-2.187c-.469 0-.821.117-1.069.352a1.65 1.65 0 00-.482.872h2.986a1.413 1.413 0 00-.418-.859c-.234-.235-.573-.352-1.017-.352v-.013zm7.667 5.221c-.443 0-.795-.065-1.056-.208s-.483-.313-.639-.534h-.235v2.929h-1.33v-8.306h1.291v.586h.235c.169-.208.378-.377.652-.521.274-.143.626-.221 1.069-.221.404 0 .769.078 1.108.234.339.157.613.378.835.651.221.274.404.612.534.99.131.377.183.807.183 1.25 0 .442-.065.872-.183 1.249-.13.378-.3.716-.521.99a2.421 2.421 0 01-.835.651 2.522 2.522 0 01-1.108.234v.026zm-.3-5.142c-.287 0-.534.052-.743.169-.209.117-.378.26-.522.443a1.772 1.772 0 00-.3.651 2.924 2.924 0 00-.091.755c0 .26.026.507.091.755.066.247.157.455.3.651.131.182.313.338.522.442.209.105.456.17.743.17.274 0 .509-.052.717-.157.209-.104.378-.247.509-.416a1.72 1.72 0 00.3-.638c.065-.248.104-.508.104-.794 0-.287-.039-.56-.104-.808a1.945 1.945 0 00-.3-.637 1.305 1.305 0 00-.509-.417 1.57 1.57 0 00-.717-.156v-.013zm4.42 2.291v-1.159h3.377v1.159h-3.377zm9.232 2.695v-4.843h-2.842v4.843h-1.33v-5.963h5.489v5.963h-1.33.013zm2.686-1.263h.208c.196 0 .366-.039.509-.104.143-.065.261-.196.352-.365.091-.169.157-.416.209-.703.039-.299.065-.664.065-1.106v-2.409h4.837v5.963h-1.33V112.6h-2.281v1.328c0 .651-.053 1.21-.144 1.653-.091.443-.235.807-.43 1.094a1.671 1.671 0 01-.73.585c-.287.118-.639.17-1.043.17h-.209v-1.263h-.013zm11.918.69h-.235a1.939 1.939 0 01-.704.534c-.3.13-.652.195-1.056.195a2.61 2.61 0 01-.926-.156 1.903 1.903 0 01-.678-.43 1.81 1.81 0 01-.417-.625 2.032 2.032 0 01-.143-.742c0-.234.039-.468.13-.703.091-.234.222-.455.417-.638.183-.195.431-.351.73-.468.3-.118.665-.183 1.096-.183h1.76v-.182c0-.325-.104-.599-.3-.794-.195-.195-.521-.3-.952-.3-.378 0-.678.066-.873.209a.712.712 0 00-.326.534h-1.317c.013-.274.091-.521.208-.743.131-.221.3-.403.522-.559.222-.157.469-.274.769-.352.287-.078.613-.117.965-.117.378 0 .73.039 1.056.13.326.091.6.221.822.391.221.169.391.403.521.677.131.273.183.599.183.963v3.958h-1.239v-.573l-.013-.026zm-1.617-.352c.222 0 .431-.039.626-.117.196-.078.365-.182.509-.312.143-.13.247-.287.339-.469.078-.182.117-.364.117-.573v-.442h-1.526c-.417 0-.743.091-.951.247-.209.169-.313.404-.313.716 0 .313.104.534.313.69.208.169.508.247.886.247v.013zm8.984.925v-2.5h-2.882v2.5h-1.33v-5.963h1.33v2.344h2.882v-2.344h1.33v5.963h-1.33zm7.054-.573h-.234a1.95 1.95 0 01-.705.534c-.299.13-.652.195-1.056.195a2.61 2.61 0 01-.926-.156 1.903 1.903 0 01-.678-.43 1.81 1.81 0 01-.417-.625 2.032 2.032 0 01-.143-.742c0-.234.039-.468.13-.703.091-.234.222-.455.417-.638a1.97 1.97 0 01.731-.468 2.987 2.987 0 011.095-.183h1.76v-.182c0-.325-.104-.599-.3-.794-.195-.195-.521-.3-.952-.3-.378 0-.678.066-.873.209a.712.712 0 00-.326.534h-1.317c.013-.274.091-.521.208-.743.131-.221.3-.403.522-.559.222-.157.469-.274.769-.352.287-.078.613-.117.965-.117.378 0 .73.039 1.056.13.326.091.6.221.822.391.222.169.391.403.521.677.131.273.183.599.183.963v3.958h-1.239v-.573l-.013-.026zm-1.617-.352c.222 0 .431-.039.626-.117.196-.078.365-.182.509-.312a1.55 1.55 0 00.339-.469c.078-.182.117-.364.117-.573v-.442h-1.525c-.418 0-.744.091-.952.247-.209.169-.313.404-.313.716 0 .313.104.534.313.69.208.169.508.247.886.247v.013zm7.876-5.038h4.655v1.12h-3.338v4.843h-1.33v-5.963h.013zm4.602 5.963v-1.576h1.539v1.576h-1.539zm8.085-7.109v7.096h-1.408v-8.372h5.893v1.263h-4.485v.013zm8.345 7.265c-.444 0-.796-.065-1.056-.208-.261-.143-.483-.313-.639-.534h-.235v2.929h-1.33v-8.306h1.291v.586h.235c.169-.208.378-.377.651-.521.274-.143.626-.221 1.07-.221.404 0 .769.078 1.108.234.339.157.613.378.834.651.235.287.405.612.522.99.117.377.183.807.183 1.25 0 .442-.066.872-.183 1.249-.13.378-.3.716-.535.99a2.535 2.535 0 01-.834.651 2.522 2.522 0 01-1.108.234l.026.026zm-.3-5.142c-.287 0-.535.052-.743.169-.209.104-.379.26-.522.443a1.99 1.99 0 00-.3.651 2.924 2.924 0 00-.091.755c0 .26.026.507.091.755.065.247.157.455.3.651.143.182.313.338.522.442.208.105.456.17.743.17.274 0 .508-.052.717-.157a1.45 1.45 0 00.508-.416 1.91 1.91 0 00.3-.638c.066-.248.105-.508.105-.794 0-.287-.039-.56-.105-.808a1.905 1.905 0 00-.3-.637 1.394 1.394 0 00-.508-.417 1.715 1.715 0 00-.717-.156v-.013zm7.301-1.133c.47 0 .887.078 1.265.234.378.157.691.378.952.651.261.274.456.612.6.99.143.377.208.807.208 1.25 0 .442-.065.885-.208 1.262a2.728 2.728 0 01-1.552 1.641 3.27 3.27 0 01-1.265.234c-.469 0-.886-.078-1.264-.234a2.863 2.863 0 01-.952-.651 2.904 2.904 0 01-.6-.99 3.549 3.549 0 01-.209-1.262c0-.456.065-.873.209-1.25a2.723 2.723 0 011.552-1.641 3.269 3.269 0 011.264-.234zm0 5.143a1.573 1.573 0 001.291-.612c.144-.183.248-.404.313-.651.065-.248.104-.495.104-.755 0-.261-.039-.508-.104-.755a1.864 1.864 0 00-.313-.651 1.471 1.471 0 00-.534-.443 1.71 1.71 0 00-.757-.169c-.3 0-.534.052-.756.169-.222.117-.391.26-.521.443a1.76 1.76 0 00-.313.651 2.89 2.89 0 00-.105.755c0 .26.039.52.105.755.065.247.169.455.313.651.143.182.312.338.521.442.209.104.456.17.756.17zm8.111-3.307a.566.566 0 00-.313-.534c-.209-.117-.496-.169-.848-.169-.743 0-1.173.26-1.278.755h-1.225c.065-.612.326-1.081.795-1.406.469-.326 1.069-.482 1.786-.482.379 0 .718.052 1.017.13.3.091.548.209.757.365.208.156.365.325.469.534.104.208.157.429.157.664 0 .338-.066.611-.196.807-.13.195-.274.325-.43.377v.235c.221.065.404.195.573.403.17.208.235.508.235.899 0 .26-.052.494-.169.729a1.8 1.8 0 01-.509.585c-.222.17-.495.3-.808.391a3.898 3.898 0 01-1.083.143c-.873 0-1.538-.169-2.008-.521a2.054 2.054 0 01-.808-1.406h1.239a.955.955 0 00.221.391.97.97 0 00.352.247c.131.065.287.104.444.131.169.026.339.039.521.039.392 0 .704-.066.939-.183a.636.636 0 00.352-.599c0-.247-.078-.429-.248-.546-.169-.131-.456-.183-.873-.183h-1.017v-1.08h.965c.365 0 .613-.065.769-.196a.63.63 0 00.235-.507l-.013-.013zm7.38 4.283v-2.5h-2.882v2.5H208v-5.963h1.33v2.344h2.882v-2.344h1.33v5.963h-1.33zm4.616-5.963v1.849h1.486c.757 0 1.33.182 1.735.534.391.364.599.859.599 1.484s-.195 1.145-.599 1.523c-.405.378-.978.56-1.735.56h-2.816v-5.963h1.33v.013zm0 4.843h1.304c.456 0 .769-.091.939-.26.169-.169.247-.404.247-.703 0-.3-.078-.547-.247-.703-.17-.156-.483-.248-.939-.248h-1.304v1.927-.013zm6.063-4.843v5.963h-1.33v-5.963h1.33zm1.982 5.963v-5.963h1.291v3.919h.234l2.517-3.919h1.525v5.963h-1.29v-3.919h-.235l-2.543 3.919h-1.499zm4.759-8.45c-.026.547-.222.977-.561 1.276-.339.3-.821.456-1.421.456-.6 0-1.082-.156-1.421-.456-.339-.299-.522-.729-.561-1.276h1.043a.965.965 0 00.248.612c.143.157.378.235.691.235.313 0 .548-.078.691-.235a.96.96 0 00.248-.612h1.043zm2.699 8.45v-1.576h1.539v1.771l-.769 1.315h-.861l.769-1.315v-.195h-.678zm-150.053 9.856v2.395c0 .182 0 .378.026.56a.815.815 0 00.209.482c.117.143.313.26.573.351.261.091.626.13 1.109.13.3 0 .6-.013.886-.052.287-.039.574-.091.835-.156v-3.697h1.408v8.371h-1.408v-3.398a9.519 9.519 0 01-2.008.208c-.73 0-1.304-.078-1.721-.221-.404-.156-.718-.352-.913-.612a1.728 1.728 0 01-.352-.859 7.984 7.984 0 01-.065-.964v-2.525h1.408l.013-.013zm12.478 5.494h-4.407c.013.611.17 1.08.443 1.406.287.325.691.494 1.226.494.365 0 .652-.065.86-.195.209-.13.365-.312.444-.547h1.356a2.228 2.228 0 01-.835 1.354c-.443.352-1.056.534-1.825.534a3.16 3.16 0 01-1.252-.234 2.839 2.839 0 01-.939-.651 2.757 2.757 0 01-.587-1.003c-.13-.39-.195-.82-.195-1.289 0-.468.065-.898.209-1.276.143-.377.325-.703.586-.976a2.43 2.43 0 01.926-.625 3.39 3.39 0 011.239-.221c.456 0 .847.078 1.186.221.34.143.64.352.874.599.235.247.417.547.535.885.117.339.182.703.182 1.094v.443l-.026-.013zm-2.79-2.188c-.47 0-.822.117-1.07.352a1.653 1.653 0 00-.482.872H93.4a1.415 1.415 0 00-.417-.859c-.235-.234-.574-.352-1.017-.352v-.013zm5.424-.898v1.718c0 .13 0 .248.026.378s.065.234.156.338c.092.104.209.17.392.235.17.052.43.091.743.091.248 0 .482-.013.69-.039a8.53 8.53 0 00.614-.104v-2.617h1.343v5.962h-1.343v-2.252a7.184 7.184 0 01-.835.117 10.12 10.12 0 01-.834.039c-.522 0-.94-.052-1.239-.169-.3-.117-.522-.26-.678-.456a1.291 1.291 0 01-.287-.637 4.425 4.425 0 01-.052-.717v-1.9h1.33l-.026.013zm11.318 3.086h-4.407c.013.611.169 1.08.443 1.406.287.325.691.494 1.226.494.365 0 .652-.065.861-.195a1.02 1.02 0 00.443-.547h1.356a2.224 2.224 0 01-.835 1.354c-.443.352-1.056.534-1.825.534-.469 0-.887-.078-1.252-.234a2.844 2.844 0 01-.939-.651 2.761 2.761 0 01-.586-1.003 4.03 4.03 0 01-.196-1.289c0-.468.065-.898.209-1.276.143-.377.326-.703.586-.976.248-.273.561-.482.926-.625a3.393 3.393 0 011.239-.221c.456 0 .847.078 1.186.221.339.143.639.352.874.599s.417.547.535.885c.117.339.182.703.182 1.094v.443l-.026-.013zm-2.79-2.188c-.47 0-.822.117-1.069.352a1.65 1.65 0 00-.483.872h2.986a1.412 1.412 0 00-.417-.859c-.235-.234-.574-.352-1.017-.352v-.013zm8.632 5.065v-2.5h-2.882v2.5h-1.33v-5.963h1.33v2.343h2.882v-2.343h1.33v5.963h-1.33zm8.541-1.914a2.531 2.531 0 01-.287.833 2.053 2.053 0 01-.561.651 2.311 2.311 0 01-.795.417c-.3.104-.626.143-.991.143-.456 0-.874-.078-1.239-.234a2.844 2.844 0 01-.939-.651 3.122 3.122 0 01-.586-.99 3.869 3.869 0 01-.196-1.263c0-.455.065-.872.196-1.263a2.6 2.6 0 01.586-.989c.261-.273.561-.495.939-.651a3.188 3.188 0 011.239-.234c.73 0 1.33.182 1.773.547.457.364.717.833.809 1.419h-1.317c-.092-.261-.222-.469-.431-.612-.208-.144-.469-.235-.821-.235-.3 0-.548.052-.756.17-.209.117-.378.26-.509.429-.13.183-.235.391-.287.638a3.643 3.643 0 00-.091.755c0 .261.026.534.091.781.066.248.157.456.287.651.131.183.3.326.509.443.208.117.456.169.756.169.378 0 .665-.078.887-.247.221-.169.352-.391.417-.69h1.317v.013zm4.249-.586h-1.356v2.5h-1.33v-5.963h1.33v2.343h1.382l1.356-2.343h1.37l-1.669 2.877 1.747 3.099h-1.408l-1.435-2.5.013-.013zm7.942 1.927h-.235a1.936 1.936 0 01-.704.533c-.287.131-.652.196-1.056.196-.339 0-.652-.052-.926-.157a1.892 1.892 0 01-.678-.429 1.805 1.805 0 01-.417-.625 2.017 2.017 0 01-.144-.742c0-.235.039-.469.131-.703.091-.235.221-.456.404-.638.182-.195.43-.352.73-.469.3-.117.665-.182 1.095-.182h1.761v-.182c0-.326-.105-.599-.3-.795-.196-.195-.522-.299-.952-.299-.378 0-.678.065-.874.208a.717.717 0 00-.326.534h-1.317c.013-.273.092-.521.209-.742.117-.221.3-.404.522-.56.221-.156.482-.273.769-.351.3-.078.613-.118.965-.118.378 0 .73.04 1.056.131.326.091.587.221.808.39.222.169.392.404.522.677.13.274.182.599.182.964v3.957h-1.238v-.572l.013-.026zm-1.617-.352a1.675 1.675 0 001.134-.43 1.53 1.53 0 00.339-.468 1.4 1.4 0 00.118-.573v-.443h-1.526c-.417 0-.743.091-.952.248-.208.169-.313.403-.313.716 0 .312.105.533.313.69.209.169.509.247.887.247v.013zm8.462-1.25h-1.578l-1.069 2.174h-1.356l1.16-2.369c-.365-.13-.638-.339-.821-.625a1.923 1.923 0 01-.287-1.055c0-.598.196-1.067.587-1.406.391-.338.952-.52 1.682-.52h2.999v5.962h-1.33v-2.174l.013.013zm0-2.721h-1.565c-.404 0-.691.078-.834.222-.157.143-.235.351-.235.624 0 .274.078.482.235.625.156.144.43.222.834.222h1.565v-1.693zm10.197-3.475c.939 0 1.656.234 2.177.69.509.455.757 1.093.757 1.887 0 .795-.261 1.459-.757 1.927-.508.456-1.238.69-2.177.69h-2.282v3.177h-1.408v-8.371h3.69zm-.209 3.944c.626 0 1.069-.117 1.33-.364.261-.247.391-.573.391-.99 0-.416-.13-.755-.391-1.002-.261-.234-.704-.352-1.33-.352h-2.06v2.708h2.06zm9.989 1.55h-4.408c.014.611.17 1.08.444 1.406.287.325.691.494 1.225.494.366 0 .652-.065.861-.195.209-.13.365-.312.443-.547h1.356a2.227 2.227 0 01-.834 1.354c-.443.352-1.056.534-1.826.534-.469 0-.886-.078-1.251-.234a2.844 2.844 0 01-.939-.651 2.763 2.763 0 01-.587-1.003c-.13-.39-.195-.82-.195-1.289 0-.468.065-.898.208-1.276.144-.377.326-.703.587-.976.248-.273.561-.482.926-.625a3.387 3.387 0 011.238-.221c.457 0 .848.078 1.187.221.339.143.639.352.874.599.234.247.417.547.534.885.118.339.183.703.183 1.094v.443l-.026-.013zm-2.791-2.188c-.469 0-.821.117-1.069.352a1.65 1.65 0 00-.482.872h2.986a1.419 1.419 0 00-.418-.859c-.234-.234-.573-.352-1.017-.352v-.013zm9.688 3.151a2.509 2.509 0 01-.287.833 2.053 2.053 0 01-.561.651 2.311 2.311 0 01-.795.417c-.3.104-.626.143-.991.143-.456 0-.874-.078-1.239-.234a2.83 2.83 0 01-.938-.651 3.105 3.105 0 01-.587-.99 3.869 3.869 0 01-.196-1.263c0-.455.065-.872.196-1.263.13-.39.326-.716.587-.989.26-.273.56-.495.938-.651a3.188 3.188 0 011.239-.234c.73 0 1.33.182 1.773.547.457.364.718.833.809 1.419h-1.317c-.091-.261-.222-.469-.43-.612-.209-.144-.47-.235-.822-.235-.3 0-.548.052-.756.17-.209.117-.378.26-.509.429-.13.183-.234.391-.287.638a3.643 3.643 0 00-.091.755c0 .261.026.534.091.781.066.248.157.456.287.651.131.183.3.326.509.443.208.117.456.169.756.169.378 0 .665-.078.887-.247.221-.169.352-.391.417-.69h1.317v.013zm5.737 1.914v-4.844h-2.843v4.844h-1.33v-5.963h5.49v5.963h-1.33.013zm3.898 2.343l1.265-2.877-2.504-5.429h1.409l1.617 3.541h.299l1.539-3.541h1.356L179.992 138h-1.356zm9.297-8.111c.417 0 .808.065 1.147.208.339.144.626.339.874.599.235.261.43.56.561.925.13.364.195.755.195 1.184 0 .43-.065.847-.208 1.224a2.701 2.701 0 01-.6.938c-.261.26-.574.468-.952.611a3.439 3.439 0 01-1.252.222c-.469 0-.899-.078-1.278-.235a2.556 2.556 0 01-.964-.69 3.241 3.241 0 01-.613-1.132 5.208 5.208 0 01-.222-1.576c0-.507.026-1.002.078-1.484a4.46 4.46 0 01.339-1.302c.17-.39.405-.716.718-.989.312-.273.717-.456 1.225-.547.065-.013.183-.039.352-.052.17-.026.326-.052.509-.078.208-.026.417-.065.639-.104.221-.039.391-.091.482-.143.104-.053.157-.17.17-.326h1.199c0 .182-.026.352-.052.508a1.08 1.08 0 01-.169.442 1.234 1.234 0 01-.379.352 1.896 1.896 0 01-.652.234c-.065.013-.169.039-.339.052-.169.026-.339.052-.534.079-.196.026-.378.065-.561.091-.182.026-.313.052-.404.065-.248.052-.456.117-.639.234a1.326 1.326 0 00-.417.391 2.128 2.128 0 00-.261.52 4.232 4.232 0 00-.143.638h.221c.222-.325.496-.546.822-.664.326-.13.691-.182 1.108-.182v-.013zm-.274 4.791c.287 0 .548-.052.756-.143.209-.091.392-.234.535-.404.143-.169.248-.364.313-.586.065-.221.104-.455.104-.703a2.49 2.49 0 00-.104-.703 1.808 1.808 0 00-.313-.585 1.476 1.476 0 00-.535-.404 1.909 1.909 0 00-.756-.143c-.287 0-.547.052-.769.143a1.382 1.382 0 00-.535.404 1.605 1.605 0 00-.313.585 2.49 2.49 0 00-.104.703c0 .248.039.469.104.703.066.235.17.417.313.586.144.17.313.3.535.404.222.104.469.143.769.143zm4.069-.287h.208c.196 0 .365-.039.509-.104.143-.065.26-.195.352-.364.091-.17.156-.417.208-.703.039-.3.066-.664.066-1.107v-2.408h4.837v5.962h-1.33v-4.843h-2.282v1.328c0 .651-.052 1.211-.143 1.654-.091.442-.235.807-.43 1.093a1.664 1.664 0 01-.731.586c-.287.117-.639.169-1.043.169h-.208v-1.263h-.013zm8.149 1.264v-5.963h1.291v3.919h.235l2.516-3.919h1.526v5.963h-1.291v-3.919h-.235l-2.543 3.919h-1.499zm10.209-2.5h-1.356v2.5h-1.33v-5.963h1.33v2.343h1.383l1.356-2.343h1.369l-1.669 2.877 1.747 3.099h-1.408l-1.435-2.5.013-.013zm7.928 1.927h-.235a1.936 1.936 0 01-.704.533c-.286.131-.652.196-1.056.196-.339 0-.652-.052-.926-.157a1.901 1.901 0 01-.678-.429 1.82 1.82 0 01-.417-.625 2.036 2.036 0 01-.143-.742c0-.235.039-.469.13-.703.091-.235.222-.456.404-.638.183-.195.431-.352.731-.469a3.01 3.01 0 011.095-.182h1.76v-.182c0-.326-.104-.599-.3-.795-.195-.195-.521-.299-.952-.299-.378 0-.678.065-.873.208a.714.714 0 00-.326.534h-1.317c.013-.273.091-.521.208-.742.118-.221.3-.404.522-.56.222-.156.482-.273.769-.351.3-.078.613-.118.965-.118.378 0 .73.04 1.056.131.326.091.587.221.809.39.221.169.391.404.521.677.131.274.183.599.183.964v3.957h-1.239v-.572l.013-.026zm-1.617-.352c.222 0 .431-.039.626-.117.196-.078.365-.182.509-.313.143-.13.247-.286.339-.468.078-.183.117-.365.117-.573v-.443h-1.525c-.418 0-.744.091-.952.248-.209.169-.313.403-.313.716 0 .312.104.533.313.69.208.169.508.247.886.247v.013z" fill="#000"/><path d="M37.94 39.028H53.1v3.71H38.253l-.315-3.71zm11.448-14.872H36.693l.315 3.712h12.38v-3.712zm7.436 18.583h3.71v-3.711h-3.71v3.71zm13.009-11.147v3.711h13.009v-3.711h-13.01zm-32.209 3.711h28.484v-3.711H37.31l.314 3.711zM53.1 27.868h13.01v-3.712H53.1v3.712zM31.684 22.57v5.31h-4.25v-5.31c0-1.168.958-2.125 2.125-2.125s2.125.957 2.125 2.124zM23.04 0S10.032 7.278 10.032 16.734L0 135.679h23.041v-3.712h-3.71v-3.711h3.71v-3.711h-3.71v-3.712h3.71v-104.1h13.01C36.064 7.279 23.04 0 23.04 0zm43.79 66.908v3.711h-2.977v-3.711a1.48 1.48 0 011.482-1.482 1.49 1.49 0 011.482 1.482h.013zm-5.757-16.734s-8.367 4.852-8.367 11.147l-6.61 74.344h14.977v-7.436h-3.711v-3.711h3.711V61.334h8.367c0-6.308-8.367-11.147-8.367-11.147v-.013z" fill="#007434"/></svg>