<svg width="49" height="50" fill="none" xmlns="http://www.w3.org/2000/svg"><path d="M24.476 49.205c13.368 0 24.205-10.837 24.205-24.205C48.68 11.632 37.844.795 24.476.795 11.108.795.272 11.632.272 25c0 13.368 10.836 24.205 24.204 24.205z" fill="#006EC7"/><path d="M24.475 47.848c12.619 0 22.848-10.23 22.848-22.848 0-12.619-10.23-22.848-22.848-22.848C11.857 2.152 1.627 12.382 1.627 25c0 12.618 10.23 22.848 22.848 22.848z" fill="#FFED00"/><path fill-rule="evenodd" clip-rule="evenodd" d="M24.477 7.262c9.765 0 17.732 7.967 17.732 17.732s-7.967 17.733-17.732 17.733S6.744 34.759 6.744 24.994 14.712 7.262 24.477 7.262zm2.46 4.453a3.709 3.709 0 01-.213.286c2.803.482 5.524 1.855 7.428 3.825-1.937-2.092-4.298-3.571-7.216-4.11zm-4.7.294a3.709 3.709 0 01-.212-.286c-2.909.54-5.246 2.019-7.19 4.11 1.903-1.969 4.6-3.341 7.403-3.824zm5.043-1.03a2.258 2.258 0 01-.123.328c2.223.433 4.552 1.405 6.268 2.77-1.806-1.528-3.743-2.615-6.145-3.097zm-5.483.328a2.232 2.232 0 01-.123-.327c-2.402.482-4.29 1.569-6.096 3.089 1.724-1.357 3.996-2.33 6.219-2.762zm5.613-1.104c0 .123-.016.246-.032.36 1.994.4 4.143 1.21 5.76 2.337-1.764-1.316-3.497-2.255-5.727-2.697zm-5.826.36a2.563 2.563 0 01-.033-.36c-2.23.442-3.955 1.382-5.72 2.697 1.618-1.127 3.76-1.928 5.753-2.337zm5.737-1.177c.032.131.057.262.073.4 2.476.475 5.034 1.545 6.946 3.049-2.076-1.733-4.266-2.95-7.02-3.449zm-5.753.4c.016-.138.04-.269.073-.4-2.753.499-4.952 1.716-7.02 3.449 1.913-1.504 4.47-2.574 6.947-3.048zm8.008 27.368c-1.283.613-2.525.988-2.672 2.451 1.765.074 2.165-1.389 2.672-2.451zm-10.19 0c.507 1.062.907 2.525 2.672 2.451-.147-1.462-1.39-1.838-2.672-2.451zm-1.97-1.079c.32 1.136.474 2.64 2.223 2.86.098-1.454-1.062-2.035-2.222-2.86zm-1.756-1.39c.122 1.17.016 2.69 1.707 3.196.344-1.414-.702-2.19-1.707-3.195zm-1.504-1.666c-.074 1.177-.433 2.648 1.144 3.44.58-1.34-.319-2.272-1.144-3.44zm-1.193-1.896c-.27 1.144-.874 2.541.548 3.587.792-1.225.065-2.304-.548-3.587zm-.858-2.067c-.466 1.086-1.291 2.353-.065 3.628.988-1.079.45-2.264.065-3.628zm-.498-2.19c-.638.988-1.676 2.1-.679 3.562 1.16-.89.826-2.149.678-3.562zm-.123-2.24c-.793.867-2.002 1.79-1.267 3.392 1.291-.678 1.177-1.97 1.267-3.392zm.261-2.222c-.931.719-2.271 1.422-1.822 3.13 1.39-.458 1.487-1.75 1.822-3.13zm.63-2.157c-1.038.555-2.485 1.021-2.33 2.778 1.447-.213 1.774-1.463 2.33-2.778zm.988-2.01c-1.12.367-2.623.588-2.762 2.345 1.455.032 1.986-1.153 2.762-2.346zm1.308-1.823c-1.16.172-2.68.139-3.122 1.847 1.439.286 2.158-.793 3.122-1.847zm3.473 24.066c1.046.376 2.942 1.168 3.8-.409-1.349-.874-2.615.278-3.8.409zm-2.509-1.324c.973.547 2.705 1.65 3.816.237-1.176-1.087-2.623-.172-3.816-.237zm-2.247-1.733c.866.703 2.386 2.084 3.718.875-.98-1.267-2.55-.605-3.718-.875zm-1.929-2.083c.736.841 2.002 2.451 3.522 1.487-.751-1.414-2.41-1.022-3.522-1.487zm-1.544-2.37c.58.956 1.56 2.754 3.22 2.06-.499-1.52-2.207-1.423-3.22-2.06zm-1.12-2.607c.41 1.038 1.08 2.983 2.828 2.566-.245-1.577-1.937-1.765-2.828-2.566zm-.67-2.754c.23 1.095.556 3.122 2.354 3.007.033-1.601-1.61-2.067-2.354-3.007zm-.196-2.827c.05 1.111.025 3.17 1.814 3.366.295-1.577-1.242-2.32-1.814-3.366zm.278-2.828c-.147 1.104-.507 3.13 1.226 3.62.556-1.495-.834-2.484-1.226-3.62zm.752-2.729c-.327 1.062-1.03 3 .596 3.775.81-1.38-.4-2.598-.596-3.775zm1.21-2.566c-.5.997-1.52 2.787-.05 3.825 1.022-1.234.041-2.632.05-3.825zm1.617-2.329c-.662.9-1.96 2.484-.686 3.76 1.21-1.039.474-2.583.686-3.76zM20.4 39.475c-.171-.115-.343-.246-.474-.474a.715.715 0 01-.147.547c.327-.082.515-.106.621-.074zm-2.37-.948a1.376 1.376 0 01-.384-.548c0 .188-.09.376-.237.515.327-.016.515-.016.621.033zm-2.181-1.324c-.123-.172-.246-.343-.295-.605a.71.71 0 01-.318.466c.335.04.514.073.613.139zm-1.929-1.675a1.427 1.427 0 01-.188-.646.713.713 0 01-.392.409c.327.09.498.155.58.237zm-1.618-1.97c-.065-.204-.114-.408-.073-.67a.72.72 0 01-.458.335c.302.147.466.237.531.335zm-1.267-2.223c-.024-.204-.04-.424.041-.67a.71.71 0 01-.506.254c.27.196.416.318.465.416zm-.874-2.394c.008-.212.025-.425.147-.653a.725.725 0 01-.54.163c.238.237.36.376.393.49zm-.457-2.517c.04-.204.098-.408.261-.62a.746.746 0 01-.564.073c.188.278.286.441.303.547zm-.033-2.55c.073-.195.163-.391.36-.563a.715.715 0 01-.564-.025c.147.303.212.474.204.589zm.4-2.524c.107-.18.23-.36.45-.499a.763.763 0 01-.556-.114c.09.319.13.507.106.613zm.817-2.42c.14-.163.286-.31.523-.416a.696.696 0 01-.523-.212c.033.335.041.523 0 .629zm1.21-2.246c.163-.131.335-.262.588-.319a.725.725 0 01-.482-.294c-.024.335-.049.515-.106.613zm3.056-3.457c-1.888.703-2.574 1.65-2.452 2.721 1.218-.155 2.035-1.062 2.452-2.721zm16.392 22.848c-1.16.825-2.32 1.406-2.222 2.86 1.748-.212 1.904-1.724 2.222-2.86zm1.757-1.39c-1.005 1.006-2.05 1.774-1.708 3.196 1.692-.507 1.586-2.027 1.708-3.195zm1.504-1.666c-.825 1.16-1.724 2.1-1.144 3.44 1.577-.793 1.217-2.263 1.144-3.44zM36 31.123c-.613 1.283-1.34 2.362-.548 3.587 1.422-1.046.818-2.443.548-3.587zm.858-2.067c-.384 1.372-.923 2.55.065 3.628 1.226-1.275.4-2.55-.065-3.628zm.498-2.19c-.147 1.413-.482 2.672.679 3.562.997-1.462-.041-2.574-.679-3.562zm.123-2.24c.09 1.422-.025 2.713 1.267 3.392.735-1.602-.474-2.525-1.267-3.392zm-.261-2.222c.326 1.389.433 2.68 1.822 3.13.457-1.708-.891-2.411-1.822-3.13zm-.63-2.157c.556 1.307.883 2.565 2.33 2.778.154-1.757-1.292-2.223-2.33-2.778zm-.989-2.01c.769 1.2 1.3 2.385 2.763 2.345-.14-1.757-1.643-1.978-2.762-2.346zm-1.307-1.823c.964 1.046 1.683 2.125 3.122 1.847-.442-1.708-1.962-1.667-3.122-1.847zM30.818 40.48c-1.185-.14-2.46-1.283-3.8-.409.858 1.585 2.754.793 3.8.409zm2.509-1.324c-1.193.065-2.64-.85-3.816.237 1.11 1.413 2.843.31 3.816-.237zm2.247-1.733c-1.169.27-2.746-.392-3.718.875 1.332 1.21 2.852-.164 3.718-.875zm1.92-2.083c-1.103.457-2.77.073-3.522 1.487 1.52.972 2.795-.646 3.522-1.487zm1.553-2.37c-1.013.637-2.721.54-3.22 2.06 1.651.694 2.632-1.112 3.22-2.06zm1.12-2.607c-.891.8-2.591.989-2.828 2.574 1.749.409 2.419-1.536 2.827-2.574zm.67-2.754c-.744.94-2.387 1.414-2.354 3.007 1.798.115 2.125-1.92 2.354-3.007zm.196-2.827c-.572 1.046-2.117 1.79-1.815 3.366 1.79-.196 1.774-2.255 1.815-3.366zm-.286-2.828c-.393 1.128-1.782 2.125-1.226 3.62 1.74-.49 1.373-2.508 1.226-3.62zm-.752-2.729c-.196 1.177-1.398 2.394-.597 3.775 1.627-.776.924-2.713.597-3.775zm-1.201-2.566c.008 1.193-.981 2.59.049 3.825 1.47-1.047.457-2.828-.05-3.825zm-1.618-2.329c.212 1.177-.523 2.721.686 3.76 1.275-1.276-.025-2.86-.686-3.76zm-8.613 25.145c.106-.033.294-.009.62.073a.715.715 0 01-.146-.547c-.131.22-.303.35-.474.474zm2.37-.948c.106-.05.285-.058.62-.033a.723.723 0 01-.236-.515 1.25 1.25 0 01-.384.548zm2.181-1.324c.09-.066.278-.098.613-.14a.729.729 0 01-.319-.465c-.049.262-.163.433-.294.605zm1.929-1.675c.081-.082.253-.148.58-.237a.713.713 0 01-.392-.409c-.008.262-.09.458-.188.646zm1.618-1.97c.065-.09.229-.188.53-.327a.72.72 0 01-.457-.335c.041.254-.008.458-.073.662zm1.266-2.223c.05-.106.197-.22.466-.416a.71.71 0 01-.507-.254c.082.254.066.466.041.67zm.875-2.394c.032-.106.155-.253.392-.49a.725.725 0 01-.54-.163c.115.228.14.44.148.653zm.457-2.517c.017-.114.107-.27.303-.547a.746.746 0 01-.564-.074c.163.213.22.417.261.621zm.033-2.55c-.008-.114.057-.285.204-.588a.753.753 0 01-.564.025c.188.172.286.368.36.564zm-.4-2.524c-.025-.115.008-.295.106-.613a.721.721 0 01-.556.114c.22.147.343.319.45.499zm-.818-2.42c-.04-.105-.04-.293 0-.628a.742.742 0 01-.523.212c.237.106.385.262.523.417zm-1.209-2.246c-.057-.098-.09-.278-.106-.613a.725.725 0 01-.482.294c.253.057.425.188.588.319zm-3.056-3.457c.417 1.659 1.234 2.566 2.451 2.721.123-1.07-.563-2.018-2.451-2.721zM26.602 39.36c-.842.18-1.57.392-2.125.638-.556-.246-1.283-.45-2.125-.638.188.352.098.654-.098.899.572-.22 1.21-.196 1.782-.05-.548.311-.826.663-.752 1.055.09-.294.564-.67 1.193-.915.62.245 1.103.62 1.193.915.073-.392-.204-.744-.752-1.054.572-.147 1.21-.172 1.782.049-.197-.237-.287-.547-.098-.899zM23.504 9.174l-.212.662h-.703l.564.408-.212.662.563-.408.564.408-.212-.662.564-.408h-.703l-.213-.662zm.973-1.3a2.07 2.07 0 00-.678.107 2.34 2.34 0 011.642 2.223 2.33 2.33 0 01-1.38 2.124 2.251 2.251 0 002.672-2.206 2.258 2.258 0 00-2.256-2.247zm2.46.654c.09.14.171.286.236.442 3.604.604 7.102 2.402 9.488 4.976h.016c-2.541-2.852-5.802-4.83-9.74-5.418zm-5.149.442c.066-.156.148-.303.237-.442-3.938.589-7.174 2.566-9.716 5.418 2.395-2.574 5.876-4.372 9.48-4.976z" fill="#006EC7"/><path d="M24.478 37.102c6.684 0 12.102-5.418 12.102-12.102s-5.418-12.102-12.102-12.102S12.376 18.316 12.376 25s5.418 12.102 12.102 12.102z" fill="#FEFEFE"/><path fill-rule="evenodd" clip-rule="evenodd" d="M31.918 4.579c-.253.172-.457.36-.62.564a1.297 1.297 0 00-.09-.376 1.305 1.305 0 00-.123-.237 1.134 1.134 0 00-1.528-.278c-.589.54-.27 1.406.36 1.267-.23-.164-.287-.597-.009-.752.074-.057.188-.074.302-.074a.574.574 0 01.31.115.19.19 0 01.058.065.475.475 0 01.057.115.8.8 0 01.041.13.845.845 0 01-.171.662.734.734 0 01-.082.074c-.033.024-.065.04-.09.057a.74.74 0 01-.605.008c-.253-.106-.686-.474-1.087-.817-.138-.123-.277-.237-.375-.319a8.033 8.033 0 00-.164-.139c-.04-.032-.082-.073-.13-.106a3.644 3.644 0 01-.205-.172c-.441-.375-.907-.776-1.25-.923a1.331 1.331 0 00-1.103.025.795.795 0 00-.197.122.818.818 0 00-.171.164 1.386 1.386 0 00-.172.253 2.605 2.605 0 00-.384-.768c-.171.245-.302.49-.392.735l-.049-.098a1.287 1.287 0 00-.155-.212 1.024 1.024 0 00-.409-.294 1.192 1.192 0 00-.735-.025 1.07 1.07 0 00-.58.409c-.368.71.228 1.413.768 1.07-.27-.073-.466-.458-.27-.703a.476.476 0 01.262-.171.521.521 0 01.416.049.808.808 0 01.098.09c.033.032.058.073.082.106a.82.82 0 01.065.686l-.049.098c-.024.033-.04.066-.065.09a.739.739 0 01-.564.213c-.278-.017-.8-.213-1.3-.4a11.4 11.4 0 00-.465-.172c-.082-.033-.147-.05-.204-.074-.05-.016-.107-.04-.155-.057a8.576 8.576 0 01-.254-.098c-.54-.204-1.12-.425-1.487-.441a1.366 1.366 0 00-1.03.4.965.965 0 00-.139.18c-.04.065-.073.139-.106.212-.032.09-.057.196-.073.294a2.588 2.588 0 00-.63-.596 3.037 3.037 0 00-.114.825c-.024-.024-.049-.04-.073-.065a1.237 1.237 0 00-.213-.147 1.53 1.53 0 00-.245-.098.826.826 0 00-.237-.033 1.109 1.109 0 00-.695.229 1.075 1.075 0 00-.408.58c-.107.793.694 1.25 1.087.744-.278.024-.597-.27-.49-.572a.45.45 0 01.187-.246.47.47 0 01.319-.106c.033 0 .057.008.09.017.04.008.082.024.122.049.041.024.074.049.115.073.188.155.302.4.294.621a.415.415 0 01-.016.106.407.407 0 01-.033.107.758.758 0 01-.458.392c-.261.082-.825.073-1.356.065-.188 0-.368-.008-.499 0h-.646c-.58-.008-1.192-.016-1.552.098a1.354 1.354 0 00-.833.736 1.106 1.106 0 00-.098.458c0 .097.008.196.032.302a2.586 2.586 0 00-.809-.352c.025.303.082.58.18.826-.024-.017-.057-.025-.082-.033a1.279 1.279 0 00-.253-.065 1.11 1.11 0 00-.507.04 1.221 1.221 0 00-.58.45c-.139.204-.204.45-.188.686.172.785 1.079.932 1.275.327-.253.123-.654-.049-.662-.367a.475.475 0 01.09-.295.509.509 0 01.261-.212c.033-.008.058-.016.09-.016a.703.703 0 01.262.04.84.84 0 01.49.482l.025.107c.008.04.008.073.008.114a.72.72 0 01-.294.523c-.221.164-.752.351-1.25.531-.172.066-.344.123-.466.164-.082.032-.147.049-.205.073-.049.017-.106.041-.155.057-.09.033-.172.058-.253.09-.548.188-1.128.393-1.422.621-.31.237-.507.597-.531.973-.008.082 0 .155.008.229a.784.784 0 00.057.229c.033.09.074.18.13.261a2.61 2.61 0 00-.882-.057c.131.286.286.523.458.719h-.09c-.09 0-.172.008-.261.024-.09.017-.172.05-.254.082a.849.849 0 00-.204.123A1.147 1.147 0 005 16.37c.433.678 1.332.506 1.307-.131-.196.196-.629.172-.743-.123a.491.491 0 01-.017-.31.471.471 0 01.172-.286l.074-.05a.717.717 0 01.253-.056c.245 0 .49.114.63.286a.55.55 0 01.097.196.75.75 0 01-.098.596c-.147.23-.588.589-.997.924a6.667 6.667 0 00-.384.318c-.065.058-.114.098-.163.14-.041.032-.082.073-.123.105a4.515 4.515 0 00-.204.172c-.45.368-.924.76-1.128 1.07a1.307 1.307 0 00-.163 1.096c.024.073.049.147.081.212.033.065.082.13.131.196.057.074.123.13.196.196a2.739 2.739 0 00-.841.245c.22.23.457.4.694.532a.467.467 0 00-.098.032 1.34 1.34 0 00-.45.278 1.063 1.063 0 00-.146.188c-.131.22-.18.474-.156.72.025.244.131.481.303.645.637.49 1.43.024 1.185-.572-.115.253-.532.384-.744.139a.512.512 0 01-.123-.286.495.495 0 01.066-.327c.016-.025.032-.05.057-.074a.862.862 0 01.098-.082c.04-.024.082-.04.123-.057a.864.864 0 01.686.05c.033.016.057.04.09.065a.332.332 0 01.073.081.756.756 0 01.115.597c-.057.27-.352.752-.621 1.21-.098.155-.188.318-.254.432-.04.074-.073.131-.106.188-.024.05-.057.099-.082.148-.049.081-.09.155-.138.228-.295.499-.613 1.03-.687 1.39-.082.375-.008.784.22 1.086.05.066.099.123.156.172.057.049.123.098.188.139.074.04.155.082.237.106a2.554 2.554 0 00-.695.515c.295.139.58.229.85.261-.032.025-.057.041-.09.066a1.364 1.364 0 00-.327.417 1.243 1.243 0 00-.073.228c-.05.254-.008.507.106.728.106.22.286.4.499.506.768.237 1.348-.465.915-.948-.025.278-.376.54-.646.384a.486.486 0 01-.212-.228.582.582 0 01-.057-.327.957.957 0 01.024-.082c.016-.04.041-.073.066-.106a.98.98 0 01.09-.098.844.844 0 01.661-.188c.033.008.074.016.107.032.04.017.073.033.098.05a.77.77 0 01.31.522c.033.27-.073.826-.171 1.349l-.09.49c-.017.09-.025.147-.033.213l-.025.163c-.016.09-.032.18-.049.261-.106.564-.22 1.177-.171 1.545.049.384.261.735.572.948.065.04.13.082.204.106.074.033.147.05.229.066.073.016.155.024.237.024a2.552 2.552 0 00-.466.71c.327.034.63.017.907-.048-.024.033-.049.073-.073.106a1.238 1.238 0 00-.164.499.76.76 0 00.008.237c.041.253.172.482.344.645.18.172.408.278.645.303.8-.041 1.111-.9.54-1.202.073.27-.164.638-.483.589a.498.498 0 01-.278-.14.53.53 0 01-.163-.293.168.168 0 010-.09l.025-.123a.824.824 0 01.613-.523c.032-.008.073-.008.106-.008.04 0 .073.008.114.016.196.05.368.188.466.384.122.245.22.801.302 1.324.033.18.057.36.082.49.016.09.024.147.04.213.009.057.017.106.033.163.017.09.033.18.041.262.09.572.196 1.176.368 1.512.18.343.499.604.866.694.074.017.155.033.229.033.074 0 .155 0 .237-.017.074-.008.147-.032.22-.057a2.394 2.394 0 00-.187.818 2.6 2.6 0 00.85-.368.933.933 0 00-.033.147c-.017.09-.025.171-.017.261 0 .09.017.18.033.27a.93.93 0 00.09.22c.123.221.327.393.548.491.22.098.482.123.71.065.744-.31.736-1.225.099-1.315.163.229.065.653-.254.71a.474.474 0 01-.31-.04.519.519 0 01-.254-.22c-.016-.025-.024-.058-.032-.083-.008-.04-.017-.081-.017-.13 0-.05 0-.09.009-.131a.796.796 0 01.384-.564.499.499 0 01.098-.04c.04-.017.073-.017.106-.025.196-.025.409.057.572.204.204.188.482.678.735 1.144.09.163.18.319.246.433.04.074.073.13.106.188.024.05.057.098.082.139.049.082.09.155.13.237.286.507.589 1.046.858 1.291.286.262.67.4 1.046.352a.873.873 0 00.22-.05c.074-.024.148-.057.213-.09a.876.876 0 00.18-.122c-.008.261.025.54.098.817.278-.196.507-.408.678-.645a1.289 1.289 0 00.09.417c.033.081.074.163.123.236a1.134 1.134 0 00.842.458c.245.016.49-.05.686-.18.588-.54.27-1.405-.36-1.266.23.163.286.588.009.751-.074.057-.188.074-.303.074a.574.574 0 01-.31-.114c-.025-.017-.041-.041-.058-.066-.024-.033-.04-.073-.057-.114a.386.386 0 01-.032-.131.845.845 0 01.171-.662c.025-.024.05-.049.082-.073.033-.025.065-.041.09-.058.18-.09.4-.09.605-.008.253.106.686.474 1.086.817.14.123.278.237.376.319l.164.139c.04.033.081.073.13.106.074.057.14.115.205.172.441.376.907.776 1.25.923.36.147.768.147 1.111-.024a.794.794 0 00.196-.123.82.82 0 00.172-.163c.04-.05.09-.107.123-.172.081.245.204.482.367.72.197-.279.344-.565.425-.843a1.286 1.286 0 00.237.376 1.026 1.026 0 00.409.294c.237.09.498.09.735.025a1.03 1.03 0 00.58-.408c.368-.711-.228-1.414-.768-1.071.27.074.466.458.27.703a.475.475 0 01-.262.171.522.522 0 01-.416-.049.976.976 0 01-.098-.09c-.033-.032-.058-.073-.082-.106a.82.82 0 01-.065-.686l.049-.098c.024-.033.04-.066.065-.09a.739.739 0 01.564-.213c.278.017.8.213 1.3.4.17.066.342.132.465.172.082.033.147.05.204.074.05.016.107.04.155.057.09.033.172.066.254.098.54.204 1.12.425 1.487.441.384.017.768-.13 1.03-.4a.962.962 0 00.139-.18c.04-.065.073-.139.106-.212.024-.066.04-.13.057-.205.155.197.351.376.588.54.09-.335.131-.646.107-.932.04.05.09.09.139.14.065.056.139.105.212.146.082.041.163.074.245.098a.827.827 0 00.237.033 1.11 1.11 0 00.695-.229c.196-.147.351-.351.408-.58.106-.793-.694-1.25-1.087-.744.278-.024.597.27.49.572a.446.446 0 01-.187.246.47.47 0 01-.319.106c-.032 0-.057-.008-.09-.017a.386.386 0 01-.122-.049c-.041-.024-.074-.049-.115-.073a.805.805 0 01-.294-.621c0-.041.008-.074.016-.106a.407.407 0 01.033-.107.758.758 0 01.458-.392c.261-.082.825-.073 1.356-.065.188 0 .368.008.499 0h.646c.58.008 1.192.016 1.552-.098.368-.115.678-.384.833-.736a1.106 1.106 0 00.098-.458c0-.073-.008-.138-.016-.212.213.13.458.229.727.303a2.739 2.739 0 00-.212-.907c.057.032.123.057.18.081a1.22 1.22 0 00.523.074c.081-.008.163-.025.237-.05a1.22 1.22 0 00.58-.449c.139-.204.204-.45.188-.686-.172-.785-1.079-.932-1.275-.327.253-.123.654.049.662.368a.474.474 0 01-.09.294.508.508 0 01-.262.212c-.032.009-.057.017-.09.017-.04 0-.09 0-.13-.008a.61.61 0 01-.13-.033.84.84 0 01-.491-.482l-.025-.106c-.008-.041-.008-.074-.008-.115a.72.72 0 01.294-.523c.221-.163.752-.351 1.25-.531.172-.066.344-.123.466-.163a2.09 2.09 0 01.205-.074c.049-.016.106-.04.155-.057.09-.033.172-.058.253-.09.548-.188 1.128-.392 1.422-.621.31-.237.507-.597.531-.973.008-.081 0-.155-.008-.228a.785.785 0 00-.057-.23 2.226 2.226 0 00-.09-.204c.245.05.507.058.785.033a2.968 2.968 0 00-.499-.768 1.411 1.411 0 00.458-.008c.09-.016.171-.05.253-.082a.847.847 0 00.204-.123 1.146 1.146 0 00.335-1.331c-.433-.679-1.332-.507-1.307.13.196-.196.63-.171.744.123a.5.5 0 01.016.31.471.471 0 01-.172.286l-.073.05a.72.72 0 01-.254.057.832.832 0 01-.629-.286.555.555 0 01-.098-.197.75.75 0 01.098-.596c.147-.229.589-.588.997-.923.147-.115.286-.23.384-.32l.164-.138c.04-.033.081-.074.122-.106.074-.057.139-.115.204-.172.45-.368.924-.76 1.128-1.07.213-.327.278-.736.163-1.095a1.623 1.623 0 00-.081-.213 1.367 1.367 0 00-.13-.196 1.703 1.703 0 00-.172-.172c.245-.04.498-.114.751-.236a2.672 2.672 0 00-.719-.54c.066-.016.123-.033.18-.049a1.266 1.266 0 00.45-.278 1.05 1.05 0 00.147-.188c.13-.22.18-.474.155-.719a1.04 1.04 0 00-.303-.645c-.637-.49-1.43-.025-1.184.572.114-.254.53-.384.743-.14a.512.512 0 01.123.287.496.496 0 01-.123.4.873.873 0 01-.098.082c-.04.024-.082.04-.123.057a.864.864 0 01-.686-.049c-.033-.016-.057-.04-.09-.065a.333.333 0 01-.073-.082.757.757 0 01-.115-.597c.057-.27.352-.751.621-1.209.098-.155.188-.319.254-.433.04-.074.073-.13.106-.188.024-.05.057-.098.081-.147.05-.082.09-.155.14-.229.294-.498.612-1.03.686-1.39a1.345 1.345 0 00-.22-1.086 1.056 1.056 0 00-.156-.172 1.601 1.601 0 00-.188-.139c-.074-.04-.147-.081-.229-.106a2.87 2.87 0 00.63-.482 2.693 2.693 0 00-.842-.261c.049-.033.098-.066.139-.107.065-.057.13-.122.18-.188a.954.954 0 00.138-.228c.033-.074.058-.156.074-.23a1.113 1.113 0 00-.106-.726 1.109 1.109 0 00-.499-.507c-.768-.237-1.348.466-.915.948.024-.278.376-.54.646-.384.081.04.163.122.212.229.049.106.074.22.057.326a1.025 1.025 0 01-.024.082.452.452 0 01-.066.106.976.976 0 01-.09.098.844.844 0 01-.662.188c-.032-.008-.073-.016-.106-.032a.54.54 0 01-.098-.05.753.753 0 01-.31-.522c-.033-.27.073-.826.171-1.349l.09-.49c.017-.09.025-.147.033-.212l.024-.164c.017-.09.033-.18.05-.261.106-.564.22-1.177.171-1.545a1.366 1.366 0 00-.572-.948c-.065-.04-.13-.081-.204-.106a1.055 1.055 0 00-.23-.065 1.507 1.507 0 00-.269-.025c.172-.196.319-.417.441-.678a2.747 2.747 0 00-.866.04 1.24 1.24 0 00.253-.63.764.764 0 00-.008-.235 1.16 1.16 0 00-.343-.646 1.105 1.105 0 00-.645-.302c-.801.04-1.112.899-.54 1.201-.073-.27.164-.637.483-.588a.49.49 0 01.277.139.53.53 0 01.164.294.167.167 0 010 .09l-.025.122c-.016.041-.032.082-.057.123a.824.824 0 01-.556.4c-.032.008-.073.008-.106.008-.04 0-.073-.008-.114-.016a.724.724 0 01-.466-.384c-.123-.245-.22-.8-.302-1.324-.033-.18-.058-.36-.082-.49-.016-.09-.025-.147-.04-.213a1.167 1.167 0 00-.034-.163 3.416 3.416 0 01-.04-.262c-.09-.572-.197-1.176-.368-1.511a1.363 1.363 0 00-.866-.695 1.104 1.104 0 00-.23-.033c-.073 0-.155 0-.236.017-.09.016-.188.04-.278.081.098-.245.163-.514.188-.8a2.83 2.83 0 00-.785.326.842.842 0 00.033-.138.94.94 0 00.017-.262c0-.09-.017-.18-.033-.27a.89.89 0 00-.09-.22 1.178 1.178 0 00-.548-.49 1.123 1.123 0 00-.71-.066c-.744.31-.736 1.226-.099 1.316-.163-.23-.065-.654.254-.711a.474.474 0 01.31.04.519.519 0 01.254.221c.016.025.024.057.032.082.008.04.017.082.017.13 0 .05 0 .09-.009.131a.796.796 0 01-.384.564.5.5 0 01-.098.041c-.04.017-.073.017-.106.025a.747.747 0 01-.572-.205c-.204-.188-.482-.678-.735-1.144-.09-.163-.18-.318-.245-.433l-.107-.188c-.024-.049-.057-.098-.082-.139a3.401 3.401 0 01-.13-.237c-.286-.506-.589-1.046-.858-1.29a1.316 1.316 0 00-1.046-.352.877.877 0 00-.22.049 1.657 1.657 0 00-.213.09 1.56 1.56 0 00-.245.18 2.737 2.737 0 00-.107-.842zm5.475 5.638c-.008.025-.008.058-.008.082a.764.764 0 00.008.237c.041.253.172.482.343.646.18.171.41.277.646.302.8-.04 1.111-.899.54-1.201.073.27-.164.637-.483.588a.498.498 0 01-.278-.139.559.559 0 01-.163-.294.167.167 0 010-.09l.025-.122c.016-.041.032-.082.057-.123a.824.824 0 01.555-.4c.033-.009.074-.009.107-.009.04 0 .073.009.106.017a.723.723 0 01.466.384c.122.245.22.8.302 1.324.033.18.057.36.082.49.016.09.024.147.04.212.009.058.017.107.033.164.017.09.033.18.041.261.09.572.196 1.177.368 1.512.18.343.498.605.866.695.074.016.155.032.229.032h.081a2.842 2.842 0 00-.522.793c.286.033.555.016.817-.04-.008.015-.025.04-.033.056a1.07 1.07 0 00-.074.23c-.048.252-.008.506.107.726.106.221.286.4.498.507.768.237 1.349-.466.915-.948-.024.278-.376.54-.645.384a.485.485 0 01-.213-.229.582.582 0 01-.057-.326c.008-.033.017-.058.025-.082a.466.466 0 01.065-.106.965.965 0 01.09-.098.844.844 0 01.662-.188c.033.008.073.016.106.032a.518.518 0 01.098.05.753.753 0 01.31.522c.033.27-.073.826-.17 1.349l-.09.49c-.017.09-.025.147-.033.212l-.025.164-.049.261c-.106.564-.22 1.177-.172 1.545.05.384.262.735.572.948.066.04.131.081.205.106a.397.397 0 00.09.033c-.27.13-.523.318-.777.572.254.122.507.204.76.237-.016.008-.024.024-.04.032a1.06 1.06 0 00-.148.188c-.13.22-.18.474-.155.72.025.244.13.482.302.645.638.49 1.43.024 1.185-.572-.114.253-.53.384-.743.139a.512.512 0 01-.123-.286.495.495 0 01.065-.327c.017-.025.033-.05.058-.074a.863.863 0 01.098-.081.817.817 0 01.122-.058.864.864 0 01.687.05c.032.016.057.04.09.065a.33.33 0 01.073.082.756.756 0 01.114.596c-.065.27-.35.752-.62 1.21-.099.155-.188.318-.254.433-.04.073-.073.13-.106.188-.025.049-.057.098-.082.147-.049.081-.09.155-.139.229-.294.498-.613 1.03-.694 1.389-.082.376-.008.784.22 1.087a1.072 1.072 0 00.246.245 2.629 2.629 0 00-.932.277c.188.197.4.36.621.483-.016.008-.025.008-.04.016a.85.85 0 00-.205.122 1.147 1.147 0 00-.335 1.332c.433.679 1.332.507 1.307-.13-.196.196-.629.171-.743-.123a.491.491 0 01-.017-.31.513.513 0 01.172-.286l.073-.05a.712.712 0 01.253-.057c.246 0 .491.115.63.287a.554.554 0 01.098.196.75.75 0 01-.098.596c-.147.229-.588.588-.997.923a6.637 6.637 0 00-.384.32 7.858 7.858 0 01-.163.138c-.041.033-.082.074-.123.106-.074.058-.139.115-.204.172-.45.368-.924.76-1.128 1.07a1.306 1.306 0 00-.082 1.308c.017.04.041.074.066.114a2.9 2.9 0 00-.973-.065c.106.245.245.466.409.654h-.033a1.112 1.112 0 00-.237.049 1.183 1.183 0 00-.58.45 1.094 1.094 0 00-.188.686c.18.784 1.079.931 1.275.326-.254.123-.654-.049-.662-.367a.476.476 0 01.09-.294.51.51 0 01.261-.213.293.293 0 01.09-.016.701.701 0 01.262.04.84.84 0 01.49.483l.024.106c.009.04.009.074.009.114a.72.72 0 01-.295.523c-.22.164-.751.352-1.25.532-.172.065-.343.122-.466.163-.081.033-.147.049-.204.074-.049.016-.106.04-.155.057-.09.032-.172.057-.253.09-.548.188-1.128.392-1.422.62-.31.238-.507.597-.532.973-.008.082 0 .155.009.229l.024.139a2.779 2.779 0 00-.89-.393c.016.262.073.515.155.736-.008 0-.025-.008-.033-.008a.827.827 0 00-.237-.033 1.11 1.11 0 00-.695.229 1.075 1.075 0 00-.408.58c-.106.793.694 1.25 1.087.744-.278.024-.597-.27-.49-.572.024-.09.09-.18.187-.245a.516.516 0 01.319-.107c.033 0 .057.008.09.017.04.008.082.024.123.049.04.024.073.049.114.073.188.155.302.4.294.621 0 .041-.008.074-.016.107a.404.404 0 01-.033.106.758.758 0 01-.458.392c-.261.082-.825.074-1.356.065-.188 0-.368-.008-.498 0h-.646c-.58-.008-1.193-.016-1.553.099a1.365 1.365 0 00-.833.727 1.162 1.162 0 00-.098.367 2.767 2.767 0 00-.703-.67 2.636 2.636 0 00-.106.744c-.008-.008-.025-.016-.033-.025a.769.769 0 00-.212-.114 1.135 1.135 0 00-.736-.024 1.07 1.07 0 00-.58.408c-.368.711.229 1.414.768 1.07-.27-.073-.466-.457-.27-.702a.508.508 0 01.262-.172.522.522 0 01.417.05.965.965 0 01.098.09c.032.032.057.073.082.105a.82.82 0 01.065.687l-.05.098c-.024.033-.04.065-.065.09a.739.739 0 01-.563.212c-.278-.016-.801-.212-1.3-.4a14.77 14.77 0 00-.465-.172c-.082-.032-.148-.049-.205-.073-.049-.017-.106-.041-.155-.058-.09-.032-.163-.065-.253-.098-.54-.204-1.12-.424-1.488-.44a1.366 1.366 0 00-1.03.4.964.964 0 00-.138.18 1.4 1.4 0 00-.074.13 2.674 2.674 0 00-.425-.85c-.155.213-.27.433-.351.654-.008-.016-.016-.025-.024-.04-.05-.066-.099-.132-.164-.18a1.134 1.134 0 00-1.365-.099c-.588.54-.27 1.406.36 1.267-.229-.164-.286-.597-.008-.752.073-.057.188-.073.302-.073a.573.573 0 01.31.114c.025.016.041.04.058.065.024.033.04.074.057.115.016.04.033.09.04.13a.837.837 0 01-.17.662.734.734 0 01-.082.074c-.033.024-.066.04-.09.057a.74.74 0 01-.605.008c-.253-.106-.686-.474-1.079-.817a17.4 17.4 0 00-.376-.319c-.065-.057-.114-.098-.163-.139-.04-.032-.082-.073-.13-.106a4.445 4.445 0 01-.205-.171c-.441-.376-.907-.777-1.25-.924a1.331 1.331 0 00-1.104.025.795.795 0 00-.196.122 1.031 1.031 0 00-.106.09 2.722 2.722 0 00-.114-.931c-.213.147-.4.31-.556.498-.008-.024-.008-.04-.016-.065a.896.896 0 00-.09-.22 1.14 1.14 0 00-.548-.491 1.123 1.123 0 00-.71-.066c-.744.311-.736 1.226-.099 1.316-.163-.229-.065-.654.254-.71a.474.474 0 01.31.04.53.53 0 01.254.22c.016.025.024.058.032.082.008.041.017.082.017.131 0 .05 0 .09-.009.13a.783.783 0 01-.392.565.499.499 0 01-.098.04l-.106.025c-.196.025-.409-.057-.572-.204-.204-.188-.482-.678-.736-1.136-.09-.163-.18-.319-.245-.433a16.58 16.58 0 00-.106-.188c-.024-.05-.057-.098-.082-.139a3.401 3.401 0 01-.13-.237c-.286-.507-.589-1.046-.858-1.291-.287-.262-.67-.4-1.046-.351a.877.877 0 00-.221.049c-.04.016-.082.024-.123.04a2.74 2.74 0 00.205-.898c-.254.065-.49.155-.695.285.008-.024.008-.048.008-.081a.761.761 0 00-.008-.237 1.16 1.16 0 00-.343-.646 1.105 1.105 0 00-.646-.302c-.8.04-1.111.899-.539 1.201-.074-.27.163-.637.482-.588.09.008.188.057.278.139a.56.56 0 01.163.294.17.17 0 010 .09l-.024.122a.824.824 0 01-.613.523c-.033.009-.074.009-.106.009-.041 0-.074-.009-.107-.017a.724.724 0 01-.465-.384c-.123-.245-.22-.8-.303-1.324-.032-.18-.057-.36-.081-.49-.017-.09-.025-.147-.041-.212a1.157 1.157 0 00-.033-.164 3.425 3.425 0 01-.04-.261c-.09-.572-.197-1.177-.368-1.512a1.363 1.363 0 00-.867-.695 1.106 1.106 0 00-.228-.032h-.115a2.9 2.9 0 00.49-.76 2.655 2.655 0 00-.768.032 1.067 1.067 0 00.114-.31 1.113 1.113 0 00-.106-.727 1.107 1.107 0 00-.498-.507c-.768-.237-1.348.466-.915.948.024-.278.376-.54.645-.384.082.04.164.122.213.229.049.106.073.22.057.326a.437.437 0 01-.09.188.968.968 0 01-.09.098.843.843 0 01-.662.188c-.032-.008-.073-.016-.106-.032a.545.545 0 01-.098-.05.753.753 0 01-.31-.522c-.033-.27.073-.826.171-1.349.033-.18.065-.36.09-.49a3.75 3.75 0 00.033-.212l.024-.164c.017-.09.033-.18.05-.261.105-.564.22-1.177.17-1.545a1.366 1.366 0 00-.571-.948.968.968 0 00-.204-.106c-.025-.008-.058-.024-.09-.033a2.8 2.8 0 00.702-.539 2.618 2.618 0 00-.743-.237c.024-.024.057-.05.081-.074.058-.057.107-.122.148-.188.13-.22.18-.473.155-.719a1.04 1.04 0 00-.303-.645c-.637-.49-1.43-.025-1.184.572.114-.253.53-.384.743-.14a.512.512 0 01.123.287.496.496 0 01-.066.327c-.016.024-.032.049-.057.073-.032.033-.065.057-.098.082-.04.025-.082.04-.122.057a.864.864 0 01-.687-.049c-.033-.016-.057-.04-.09-.065a.332.332 0 01-.073-.082.756.756 0 01-.115-.596c.066-.27.352-.752.621-1.21.098-.155.188-.319.254-.433.04-.074.073-.13.106-.188.024-.049.057-.098.082-.147.049-.082.09-.155.139-.229.294-.498.612-1.03.694-1.389a1.345 1.345 0 00-.22-1.087 1.049 1.049 0 00-.156-.171c-.016-.017-.04-.033-.057-.05.27-.04.548-.122.842-.26a2.52 2.52 0 00-.638-.483c.041-.016.074-.025.115-.04a.846.846 0 00.204-.123 1.146 1.146 0 00.335-1.332c-.433-.679-1.332-.507-1.307.13.196-.196.629-.171.743.123a.492.492 0 01.017.31.471.471 0 01-.172.286l-.074.05a.717.717 0 01-.253.057.832.832 0 01-.63-.286.55.55 0 01-.097-.197.75.75 0 01.098-.596c.147-.229.588-.588.997-.923.147-.115.286-.23.384-.32l.163-.138c.041-.033.082-.074.123-.106a4.51 4.51 0 00.204-.172c.45-.368.924-.76 1.128-1.07.212-.327.278-.736.163-1.095a1.623 1.623 0 00-.081-.213.464.464 0 00-.033-.057c.27.057.556.073.874.04a2.472 2.472 0 00-.441-.686h.13a1.08 1.08 0 00.238-.049c.245-.081.441-.253.58-.45.139-.203.204-.449.188-.686-.18-.784-1.079-.931-1.275-.326.253-.123.654.049.662.367a.474.474 0 01-.09.295.509.509 0 01-.261.212c-.033.008-.058.016-.09.016-.041 0-.09 0-.131-.008a.616.616 0 01-.13-.033.84.84 0 01-.491-.482c-.008-.032-.016-.073-.025-.106-.008-.04-.008-.073-.008-.114a.72.72 0 01.294-.523c.221-.164.752-.352 1.25-.531.172-.066.344-.123.466-.164.082-.033.148-.049.205-.073.049-.017.106-.041.155-.058.09-.032.172-.057.253-.09.548-.187 1.128-.392 1.422-.62.31-.237.507-.597.531-.973.009-.082 0-.155-.008-.229 0-.016-.008-.032-.008-.049.229.147.498.262.809.335a2.604 2.604 0 00-.188-.809c.04.017.082.033.123.041a.828.828 0 00.237.033 1.11 1.11 0 00.694-.229c.196-.147.352-.351.409-.58.106-.793-.695-1.25-1.087-.744.278-.024.597.27.49.572a.446.446 0 01-.188.245.47.47 0 01-.318.107c-.033 0-.058-.009-.09-.017a.385.385 0 01-.123-.049c-.04-.024-.073-.049-.114-.073a.805.805 0 01-.294-.621c0-.033.008-.074.016-.107a.407.407 0 01.033-.106.758.758 0 01.457-.392c.262-.082.826-.074 1.357-.065.188 0 .367.008.498 0h.646c.58.008 1.193.016 1.552-.099.368-.114.679-.384.834-.727.033-.073.057-.147.073-.22 0-.017.009-.033.009-.05.171.221.384.417.653.605.082-.286.115-.564.098-.825.033.024.066.057.098.082.066.049.14.09.213.114.237.09.498.098.735.024a1.07 1.07 0 00.58-.408c.368-.711-.228-1.414-.768-1.07.27.073.466.457.27.702a.508.508 0 01-.261.172.522.522 0 01-.417-.05.968.968 0 01-.098-.09c-.033-.032-.057-.073-.082-.105a.82.82 0 01-.065-.687l.049-.098c.024-.033.04-.065.065-.09A.739.739 0 0119 4.67c.278.016.8.212 1.3.4.17.066.342.131.465.172.082.033.147.049.204.073.05.017.107.041.155.058.09.032.172.065.254.098.54.204 1.12.425 1.487.44.384.017.768-.13 1.03-.4a.96.96 0 00.139-.18c.008-.016.016-.024.024-.04.082.27.22.531.409.8.171-.236.302-.49.384-.743.016.033.04.065.057.098a1.134 1.134 0 001.528.278c.588-.548.27-1.406-.36-1.267.23.164.287.597.009.752-.074.057-.188.074-.303.074a.574.574 0 01-.31-.115.219.219 0 01-.057-.065c-.025-.033-.041-.074-.058-.114a.383.383 0 01-.032-.131.837.837 0 01.171-.662.734.734 0 01.082-.074c.033-.024.065-.04.09-.057.18-.09.4-.09.605-.008.253.106.686.474 1.078.817.14.123.278.237.376.319l.164.139c.04.032.081.073.13.106.074.057.14.114.205.172.441.375.907.776 1.25.923.36.147.768.147 1.103-.025a.795.795 0 00.196-.122c.017-.008.025-.025.041-.033-.016.286.025.589.114.907.246-.163.45-.36.613-.572l.025.098a.89.89 0 00.09.22c.122.222.319.393.547.491.22.098.482.123.711.066.744-.31.736-1.226.098-1.316.164.229.066.654-.253.71a.474.474 0 01-.31-.04.519.519 0 01-.254-.22c-.016-.025-.024-.058-.033-.082a.652.652 0 01-.016-.131c0-.05 0-.09.008-.13a.782.782 0 01.392-.565.5.5 0 01.099-.04l.106-.025c.196-.025.408.057.572.204.204.188.482.679.735 1.136.09.164.18.319.245.433l.107.188c.024.05.057.098.081.14.05.08.09.154.131.236.286.507.589 1.046.858 1.291.286.262.67.4 1.046.352a.874.874 0 00.22-.05c.017-.008.042-.016.058-.024a2.739 2.739 0 00-.212.907c.318-.065.571-.18.8-.319z" fill="#B01C2E"/><path fill-rule="evenodd" clip-rule="evenodd" d="M20.523 18.864l3.4-2.312.947.89.498-.433 3.065 1.83-3-.816.777.8-1.945-.735-.457.842-.188-1.104-1.022 1.038.05-.8-2.125.8z" fill="#0072C6"/><path fill-rule="evenodd" clip-rule="evenodd" d="M24.472 24.616c-.295.466-.662.964-1.12 1.234.409.106.964.71 1.022 1.405.081.924-.769 2.133-2.01 2.141-.483 0-1.006-.065-1.365-.425-.368-.008-.548.123-.531.4-.082-.163-.246-.318-.238-.498.009-.163.066-.45.246-.49-.131-.294-.245-.596-.254-.98-.024-1.128.948-2.068 1.512-2.575-.286-.196-.286-.465 0-.817.057.31.237.409.531.294.556-.4 1.112-.776 1.112-1.7 0-.661-.613-1.053-1.136-1.103-.507-.04-1.014.417-.989.875.024.392.286.727.752.71.188-.007.376-.212.351-.392-.032-.27-.408-.277-.596-.13-.098-.352.212-.613.564-.613.367.008.62.327.62.735-.008.515-.473.932-.964.956a.905.905 0 01-.498-.106c.049.229-.237.711-.613.744-.351.024-.744-.417-.498-.793.114.09.204.294.343.262.18-.033.343-.294.36-.466-.172-.057-.426-.433-.426-.834 0-.196.017-.367.107-.58-.687-.057-.597-.752-.303-.972.033.36.245.547.597.441.212-.294.719-.474 1.16-.458.956.041 1.798.638 1.822 1.684.05 2.386-2.664 2.386-2.664 4.249 0 .63.466 1.021.932 1.005.172-.008.343-.188.376-.36.04-.228-.09-.433-.278-.465-.18-.025-.327.082-.433.253-.172-.351-.008-.825.482-.825.531.008.883.417.89.989.009.539-.53 1.005-1.029 1.021-.67.025-1.136-.441-1.43-1.201-.057 1.103.768 1.569 1.48 1.56.784-.008 1.437-.718 1.405-1.495-.041-.809-.793-1.201-1.414-1.38.989-.63 1.839-1.529 2.133-2.787.294 1.258 1.144 2.165 2.133 2.786-.63.18-1.381.58-1.414 1.381-.033.777.621 1.487 1.405 1.496.711.008 1.545-.458 1.48-1.561-.295.76-.76 1.226-1.43 1.201-.499-.016-1.038-.482-1.03-1.021.008-.572.36-.981.89-.99.49-.007.654.475.483.826-.107-.171-.254-.278-.433-.253-.188.024-.32.237-.278.466.032.163.204.351.376.36.465.015.915-.377.931-1.006.05-1.814-2.721-1.863-2.664-4.25.025-1.045.866-1.642 1.823-1.683.44-.016.947.164 1.16.458.351.098.564-.082.596-.441.303.22.384.915-.302.972.09.204.106.376.106.58 0 .4-.253.777-.425.834.009.172.18.433.36.466.139.024.229-.18.343-.262.237.376-.147.817-.498.793-.368-.033-.654-.515-.613-.744-.188.09-.319.123-.499.106-.498-.024-.964-.44-.964-.956 0-.408.253-.727.621-.735.351-.008.662.261.564.613-.188-.155-.564-.14-.597.13-.024.189.164.393.352.4.466.017.727-.318.752-.71.032-.458-.474-.915-.99-.874-.522.04-1.135.44-1.135 1.103 0 .923.556 1.3 1.111 1.7.294.114.466.016.532-.295.286.352.286.621 0 .818.563.506 1.536 1.454 1.511 2.574-.008.384-.114.678-.253.98.18.033.245.319.245.49.008.188-.155.335-.237.499.016-.27-.155-.409-.531-.4-.351.36-.883.424-1.365.424-1.242-.008-2.092-1.217-2.01-2.14.057-.695.613-1.292 1.022-1.406-.466-.278-.842-.776-1.136-1.242z" fill="#B01C2E"/><path fill-rule="evenodd" clip-rule="evenodd" d="M33.05 32.364l-.776.76h-7.199a.754.754 0 01-.63-.392c-.114.171-.269.392-.596.392h-7.37l-.572-.76h.555l.286-13.483h-.18v-.441h.335v-.417h.368v-.384h.294v-.49h.442v.49h.294v.384h.368v.417h.334v.44h-.155l.27 13.484h2.893a.324.324 0 01.31-.245c.147 0 .278.106.31.245h.712c.36 0 .825-.49 1.095-1.242.31.817.662 1.242.997 1.242h.833a.324.324 0 01.31-.245c.148 0 .279.106.311.245h2.738l.147-6.455h-.147v-.67h.163l.066-2.942h-.23v-.662h.246l.065-2.942h-.31v-.67h.327l.008-.392h.335l-.008.392h1.446l-.008-.392h.335l.008.392h.327v.67h-.31l.065 2.942h.245v.67h-.229l.065 2.942h.164v.67h-.147l.147 6.455h.654v-.008zm-3.072 0h.548v-.58h.343v-.172h-.147v-.335h.155v-1.47l-.874 2.492h-.025v.065zm1.553 0h.547v-.057h-.033l-.858-2.452v1.43h.156v.335h-.155v.172h.343v.572zm-.67-3.318h-.81l-.057 2.468.867-2.468zm1.2 2.517l-.056-2.517h-.826l.883 2.517zm-.4-12.878h-1.266l.629 1.258.637-1.258zm-1.38.139l-.066 2.729.72-1.43-.655-1.3zm.081 2.81h1.332l-.67-1.323-.662 1.324zm1.471-.09l-.065-2.712-.654 1.29.719 1.423zm-.065.753h-1.471l.735 1.258.736-1.258zm-1.57.204l-.056 2.574.784-1.34-.727-1.234zm.058 2.746h1.552l-.776-1.324-.776 1.324zm1.659-.18l-.057-2.566-.72 1.234.777 1.332zm-.14 3.652l-.743-1.184-.743 1.184h1.487zm.222-.008l-.058-2.623-.792 1.267.85 1.356zm-.172-2.802H30.23l.793 1.266.8-1.267zm-1.708.18l-.057 2.63.858-1.364-.801-1.267zm-13.295 6.275h.662v-1.503c0-.148.106-.376.326-.368.221.008.303.22.303.367v1.504h.662l-.27-13.483h-1.39l-.293 13.483zm.825-5.834v.817h.302v-.818c0-.073-.04-.18-.147-.18-.106 0-.155.107-.155.18zm0-3.335v.818h.302v-.818c0-.073-.04-.18-.147-.18-.106-.008-.155.107-.155.18zm0-3.244v.817h.302v-.817c0-.073-.04-.18-.147-.18-.106-.008-.155.107-.155.18z" fill="#0072C6"/></svg>