<svg width="166" height="54" fill="none" xmlns="http://www.w3.org/2000/svg"><path d="M5.051 3.412v18.07h6.054V9.435h12.108V3.412H5.05zm6.054 42.173V33.538H5.051v18.07h18.162v-6.023H11.105zM47.434 33.54v12.046H35.318v6.024h18.17V33.54h-6.054zM38.347 3.413L34.19 9.437h13.246v13.18l6.054-4.145V3.413H38.347zm81.964 15.435v7.379h-7.666v-7.38h-3.838v17.325h3.838V29.47h-.38v-.377h8.046v7.079h3.829V18.848h-3.829zM83.96 33.161v-.377h.38V18.849h-3.83v14.312h-7.675V18.85h-3.829v17.324h14.23v3.012h3.026V33.16H83.96zm43.117-14.313v2.866h6.459v14.458h3.829v-14.08h-.38v-.378h6.839v-2.866h-16.747zM94.584 33.159v-3.69h-.379v-.377h8.046v-2.866h-7.667V22.09h-.379v-.377h10.271v-2.866h-13.73V36.17h14.23v-3.012H94.584zm60.91-5.499h-4.907v-5.568h-.379v-.377h5.286a2.987 2.987 0 012.993 2.977c0 1.639-1.337 2.969-2.993 2.969zm.457-8.811h-9.193v17.324h3.838v-5.269h-.38v-.377h5.744c3.242 0 5.864-2.617 5.864-5.835-.009-3.226-2.639-5.843-5.873-5.843zM29.269 32.027c-2.51 0-4.545-2.025-4.545-4.513 0-2.497 2.035-4.522 4.545-4.522s4.545 2.025 4.545 4.522c0 2.488-2.036 4.513-4.545 4.513zm0-13.557c-5.02 0-9.081 4.05-9.081 9.036 0 4.985 4.07 9.035 9.08 9.035 5.02 0 9.082-4.042 9.082-9.035 0-4.994-4.062-9.036-9.081-9.036z" fill="#fff"/></svg>