<svg width="396" height="185" fill="none" xmlns="http://www.w3.org/2000/svg"><path d="M59.963 57.291H39.996v-4.985h20.39l-.423 4.985zM44.999 32.384h17.078l-.423 4.976H45v-4.976zm-9.997 19.922h-5.003v4.985h5.003v-4.985zm-17.501-9.961H0v4.985h17.501v-4.985zm43.307 4.985H22.495v-4.985h38.736l-.423 4.985zM39.996 32.384h-17.5v4.985h17.5v-4.985zm137.12 63.846c.9 0 1.682.152 2.375.457a4.9 4.9 0 011.728 1.264 5.372 5.372 0 011.053 1.901 7.6 7.6 0 01.36 2.349c0 .843-.117 1.623-.36 2.349-.243.726-.585 1.363-1.053 1.901a4.82 4.82 0 01-1.728 1.264c-.684.305-1.475.457-2.375.457-.9 0-1.692-.152-2.385-.457a4.85 4.85 0 01-1.736-1.264 5.376 5.376 0 01-1.053-1.901 7.601 7.601 0 01-.36-2.349c0-.843.117-1.623.36-2.349a5.45 5.45 0 011.053-1.9 4.851 4.851 0 011.736-1.265c.693-.305 1.485-.457 2.385-.457zm0 10.203c.612 0 1.143-.117 1.583-.341.441-.224.81-.529 1.098-.914.288-.386.495-.834.639-1.345a6.009 6.009 0 00.207-1.632c0-.574-.072-1.112-.207-1.632a4.049 4.049 0 00-.639-1.344 3.033 3.033 0 00-1.098-.915c-.44-.224-.971-.34-1.583-.34s-1.152.116-1.593.34a2.96 2.96 0 00-1.098.915 3.861 3.861 0 00-.638 1.344 6.009 6.009 0 00-.207 1.632c0 .574.072 1.112.207 1.632.143.511.35.959.638 1.345.288.385.657.69 1.098.914.441.224.981.341 1.593.341zm6.964-6.688h7.387v1.551h-2.771v6.661h-1.827v-6.661h-2.789v-1.551zm12.759 4.778h-1.881v3.434h-1.826v-8.212h1.826v3.227h1.908l1.881-3.227h1.898l-2.303 3.954 2.411 4.258h-1.943l-1.98-3.434h.009zm10.123 3.649c-.602 0-1.088-.098-1.457-.286a2.614 2.614 0 01-.873-.727h-.324v4.035h-1.827v-11.44h1.782v.807h.324c.225-.278.522-.521.9-.718.369-.197.864-.296 1.484-.296.558 0 1.071.108 1.521.323.45.215.837.52 1.161.906.315.385.558.842.729 1.371.171.529.252 1.103.252 1.731 0 .627-.09 1.201-.261 1.73a4.042 4.042 0 01-.729 1.363 3.234 3.234 0 01-1.152.897 3.531 3.531 0 01-1.521.322l-.009-.018zm-.422-7.083c-.396 0-.747.072-1.026.225a2.21 2.21 0 00-.711.609 2.603 2.603 0 00-.414.888 3.99 3.99 0 00-.126 1.049c0 .368.045.699.126 1.031.081.332.225.628.414.888.189.26.423.466.711.609.288.153.63.224 1.026.224.377 0 .71-.071.989-.206a2 2 0 00.702-.583c.189-.251.333-.538.423-.869.09-.332.135-.7.135-1.094 0-.395-.045-.762-.135-1.103a2.504 2.504 0 00-.423-.879 1.998 1.998 0 00-.702-.582c-.279-.144-.612-.207-.989-.207zm7.917-1.344v2.546h2.061c1.044 0 1.844.251 2.384.744.549.493.819 1.175.819 2.053 0 .879-.27 1.578-.819 2.098-.549.52-1.34.771-2.384.771h-3.887v-8.212h1.826zm0 6.661h1.8c.63 0 1.053-.116 1.287-.358.233-.234.35-.556.35-.969 0-.412-.117-.744-.35-.977-.234-.233-.666-.35-1.287-.35h-1.8v2.654zm8.377-6.661v8.212h-1.826v-8.212h1.826zm1.674 0h7.387v1.551h-2.771v6.661h-1.827v-6.661h-2.789v-1.551zm10.888 0v2.546h2.06c1.044 0 1.845.251 2.385.744.549.493.819 1.175.819 2.053 0 .879-.27 1.578-.819 2.098-.549.52-1.341.771-2.385.771h-3.887v-8.212h1.827zm0 6.661h1.8c.629 0 1.052-.116 1.286-.358.234-.234.351-.556.351-.969 0-.412-.117-.744-.351-.977-.234-.233-.666-.35-1.286-.35h-1.8v2.654zm8.377-6.661v8.212h-1.827v-8.212h1.827zm2.456 8.212v-8.212h1.781v5.388h.324l3.464-5.388h2.106v8.212h-1.782v-5.388h-.324l-3.518 5.388h-2.06.009zm6.559-11.637c-.045.753-.297 1.336-.765 1.757-.468.422-1.124.628-1.97.628-.846 0-1.503-.206-1.971-.628-.468-.421-.729-1.004-.765-1.757h1.44c.018.34.135.627.342.843.207.215.522.322.954.322.432 0 .747-.107.954-.322.207-.216.315-.493.342-.843h1.439zm8.144 3.425h2.546l1.944 3.837h.324l1.943-3.837h2.511v8.212h-1.782v-5.908h-.324l-1.701 3.326h-1.655l-1.701-3.326h-.324v5.908h-1.781v-8.212zm19.174 4.259h-6.092c.018.842.225 1.488.612 1.936.387.448.954.682 1.701.682.495 0 .891-.09 1.179-.278.287-.18.494-.44.611-.762h1.863a3.047 3.047 0 01-1.152 1.855c-.621.485-1.457.727-2.528.727-.648 0-1.224-.108-1.737-.323a3.7 3.7 0 01-1.296-.906 3.795 3.795 0 01-.809-1.38 5.47 5.47 0 01-.279-1.767c0-.645.09-1.228.288-1.748.189-.52.459-.968.8-1.336a3.544 3.544 0 011.269-.86c.504-.207 1.071-.305 1.71-.305s1.161.098 1.637.304c.477.207.873.476 1.206.825.333.341.576.753.747 1.229.171.475.252.977.252 1.497v.61h.018zm-3.851-3.022c-.648 0-1.143.161-1.485.484a2.288 2.288 0 00-.675 1.202h4.13a1.946 1.946 0 00-.576-1.193c-.332-.323-.791-.493-1.403-.493h.009zm6.812 6.975h-1.88l2.186-4.231-2.069-3.99h1.862l1.701 3.245h1.583v-3.245h1.719v3.245h1.575l1.7-3.245h1.863l-2.088 3.99 2.223 4.231h-1.899l-1.799-3.424h-1.575v3.424h-1.719v-3.424h-1.583l-1.8 3.424zm21.721-1.542v3.855h-1.746v-2.304h-6.604v2.304h-1.746v-3.855h1.17c.225-.538.432-1.175.612-1.892.18-.726.279-1.551.279-2.465v-2.305h6.559v6.662h1.494-.018zm-3.32-5.119h-3.059v.771c0 .923-.072 1.748-.225 2.456a11.577 11.577 0 01-.549 1.883h3.842v-5.119l-.009.009zm5.434 9.889l1.745-3.972-3.446-7.468h1.944l2.231 4.877h.423l2.124-4.877h1.862l-5.003 11.44h-1.88zm14.253-3.228v-3.434h-3.986v3.434h-1.826v-8.212h1.826v3.227h3.986v-3.227h1.827v8.212h-1.827zm9.484-.789h-.324a2.54 2.54 0 01-.98.735c-.405.18-.891.269-1.467.269-.477 0-.9-.071-1.269-.215a2.578 2.578 0 01-.936-.6 2.597 2.597 0 01-.575-.861 2.785 2.785 0 01-.198-1.013c0-.323.063-.646.18-.978.117-.331.306-.627.566-.887.261-.26.594-.475 1.008-.646.414-.17.918-.251 1.512-.251h2.429v-.242c0-.457-.135-.825-.414-1.103-.278-.278-.719-.412-1.322-.412-.531 0-.927.09-1.197.278-.27.188-.423.43-.45.735h-1.817c.018-.376.117-.717.287-1.013.171-.305.414-.556.711-.762a3.61 3.61 0 011.062-.484c.405-.117.846-.17 1.332-.17.531 0 1.017.062 1.457.179a3.05 3.05 0 011.125.538c.306.242.549.556.72.932.171.377.261.816.261 1.327v5.451h-1.719v-.789l.018-.018zm-2.231-.484c.306 0 .585-.054.855-.152.27-.099.504-.242.693-.431.197-.188.35-.394.458-.645.117-.242.171-.502.171-.789v-.619h-2.105c-.585 0-1.017.117-1.314.35-.288.233-.441.556-.441.986 0 .43.144.726.441.959.288.225.702.341 1.233.341h.009zm10.806 1.488c-.603 0-1.088-.098-1.457-.286a2.614 2.614 0 01-.873-.727h-.324v4.035h-1.827v-11.44h1.782v.807h.324c.225-.278.522-.521.9-.718.369-.197.864-.296 1.484-.296.558 0 1.071.108 1.521.323.45.215.837.52 1.161.906.315.385.558.842.729 1.371.171.529.252 1.103.252 1.731 0 .627-.09 1.201-.261 1.73a4.042 4.042 0 01-.729 1.363 3.234 3.234 0 01-1.152.897 3.531 3.531 0 01-1.521.322l-.009-.018zm-.423-7.083c-.395 0-.746.072-1.025.225a2.21 2.21 0 00-.711.609 2.603 2.603 0 00-.414.888 3.99 3.99 0 00-.126 1.049c0 .368.045.699.126 1.031.081.332.225.628.414.888.189.26.423.466.711.609.288.153.63.224 1.025.224.378 0 .711-.071.99-.206a2 2 0 00.702-.583c.189-.251.333-.538.423-.869.09-.332.135-.7.135-1.094 0-.395-.045-.762-.135-1.103a2.504 2.504 0 00-.423-.879 1.998 1.998 0 00-.702-.582c-.279-.144-.612-.207-.99-.207zm9.825-1.55c.648 0 1.224.107 1.737.322a3.76 3.76 0 012.142 2.26c.189.529.288 1.103.288 1.73 0 .628-.099 1.219-.288 1.739-.189.52-.468.987-.828 1.363a3.75 3.75 0 01-1.314.897c-.513.215-1.089.323-1.737.323-.647 0-1.232-.108-1.745-.323a3.75 3.75 0 01-1.314-.897 3.878 3.878 0 01-.828-1.363 5.145 5.145 0 01-.288-1.739c0-.627.09-1.201.288-1.73a3.76 3.76 0 012.142-2.26c.513-.215 1.089-.322 1.745-.322zm0 7.083c.396 0 .747-.072 1.035-.225.288-.152.531-.358.729-.609.198-.26.342-.556.432-.888a3.99 3.99 0 00.135-1.049 3.86 3.86 0 00-.135-1.031 2.551 2.551 0 00-.432-.888 2.067 2.067 0 00-.729-.609c-.288-.153-.639-.224-1.035-.224-.395 0-.746.071-1.034.224a2.275 2.275 0 00-.729.609c-.198.26-.342.556-.432.888a4.09 4.09 0 000 2.08c.09.332.234.628.432.888.198.26.441.466.729.609.288.153.639.225 1.034.225zm15.306-.207v3.855h-1.746v-2.304h-6.604v2.304h-1.746v-3.855h1.17c.225-.538.432-1.175.612-1.892.18-.726.279-1.551.279-2.465v-2.305h6.559v6.662h1.494-.018zm-3.32-5.119h-3.06v.771c0 .923-.072 1.748-.225 2.456a11.577 11.577 0 01-.549 1.883h3.843v-5.119l-.009.009zm10.78 6.661v-3.434h-3.986v3.434h-1.827v-8.212h1.827v3.227h3.986v-3.227h1.827v8.212h-1.827zm6.1-8.212v2.546h2.06c1.044 0 1.845.251 2.385.744.549.493.819 1.175.819 2.053 0 .879-.27 1.578-.819 2.098-.549.52-1.341.771-2.385.771h-3.887v-8.212h1.827zm0 6.661h1.799c.63 0 1.053-.116 1.287-.358.234-.234.351-.556.351-.969 0-.412-.117-.744-.351-.977-.234-.233-.666-.35-1.287-.35h-1.799v2.654zm8.377-6.661v8.212h-1.827v-8.212h1.827zm2.465 8.212v-8.212h1.782v5.388h.324l3.464-5.388H396v8.212h-1.782v-5.388h-.324l-3.518 5.388h-2.061.009zm6.56-11.637c-.045.753-.297 1.336-.765 1.757-.468.422-1.125.628-1.97.628-.846 0-1.503-.206-1.971-.628-.468-.421-.729-1.004-.765-1.757h1.44c.018.34.135.627.342.843.207.215.522.322.954.322.431 0 .746-.107.953-.322.207-.216.315-.493.342-.843h1.44zm-219.163 32.805h-1.881v3.434h-1.826v-8.212h1.826v3.227h1.908l1.88-3.227h1.899l-2.304 3.954 2.412 4.258h-1.944l-1.979-3.434h.009zm9.07-4.984c.648 0 1.224.107 1.737.322a3.76 3.76 0 012.141 2.26c.189.529.288 1.103.288 1.73 0 .628-.099 1.22-.288 1.74-.189.52-.468.986-.828 1.362-.36.386-.8.682-1.313.897-.513.215-1.089.323-1.737.323-.648 0-1.233-.108-1.746-.323a3.756 3.756 0 01-1.313-.897 3.874 3.874 0 01-.828-1.362 5.15 5.15 0 01-.288-1.74c0-.627.09-1.201.288-1.73.189-.529.468-.977.828-1.363a3.77 3.77 0 011.313-.897c.513-.215 1.089-.322 1.746-.322zm0 7.083c.396 0 .747-.072 1.035-.225.288-.152.531-.358.729-.609.198-.26.342-.556.432-.888a3.99 3.99 0 00.134-1.049 3.86 3.86 0 00-.134-1.031 2.551 2.551 0 00-.432-.888 2.067 2.067 0 00-.729-.609c-.288-.153-.639-.224-1.035-.224-.396 0-.747.071-1.035.224a2.275 2.275 0 00-.729.609c-.198.26-.342.556-.431.888a4.09 4.09 0 000 2.08c.089.332.233.628.431.888.198.26.441.466.729.609.288.153.639.225 1.035.225zm11.967 1.344v-3.434h-3.986v3.434h-1.827v-8.213h1.827v3.228h3.986v-3.228h1.827v8.213h-1.827zm7.981-3.443h-1.88v3.434h-1.827v-8.212h1.827v3.227h1.907l1.881-3.227h1.899l-2.304 3.954 2.411 4.258h-1.943l-1.98-3.434h.009zm6.821 6.671l1.746-3.972-3.447-7.469h1.944l2.231 4.878h.423l2.124-4.878h1.862l-5.002 11.441h-1.881zm12.93-3.022c-.603 0-1.089-.098-1.458-.286a2.6 2.6 0 01-.872-.727h-.324v4.035h-1.827v-11.44h1.782v.807h.324c.225-.278.521-.52.899-.718.369-.197.864-.296 1.485-.296.558 0 1.071.108 1.521.323.45.215.836.52 1.16.906.315.385.558.843.729 1.371.171.529.252 1.103.252 1.731 0 .627-.09 1.201-.261 1.73a4.032 4.032 0 01-.729 1.363 3.23 3.23 0 01-1.151.897 3.531 3.531 0 01-1.521.322l-.009-.018zm-.423-7.082c-.396 0-.747.071-1.026.224a2.195 2.195 0 00-.71.609 2.603 2.603 0 00-.414.888 3.99 3.99 0 00-.126 1.049c0 .368.045.699.126 1.031.081.332.225.628.414.888.188.26.422.466.71.609.288.153.63.224 1.026.224.378 0 .711-.071.99-.206a1.99 1.99 0 00.702-.583c.189-.251.333-.537.423-.869.09-.332.135-.7.135-1.094 0-.395-.045-.762-.135-1.103a2.49 2.49 0 00-.423-.878 1.99 1.99 0 00-.702-.583c-.279-.144-.612-.206-.99-.206zm13.371 4.24a3.328 3.328 0 01-.396 1.157c-.198.35-.459.654-.765.905a3.354 3.354 0 01-1.098.583 4.44 4.44 0 01-1.367.206c-.639 0-1.206-.107-1.719-.322a3.644 3.644 0 01-1.287-.897 3.82 3.82 0 01-.801-1.363 5.405 5.405 0 01-.278-1.739c0-.628.09-1.201.278-1.739.18-.529.45-.987.801-1.363a3.74 3.74 0 011.287-.888c.504-.215 1.08-.323 1.719-.323 1.016 0 1.835.251 2.456.754.621.502.99 1.156 1.107 1.963h-1.818a1.648 1.648 0 00-.594-.843c-.279-.206-.656-.314-1.142-.314-.414 0-.756.072-1.044.225a1.982 1.982 0 00-.702.6c-.18.251-.315.538-.396.87a4.407 4.407 0 00-.126 1.049c0 .368.045.735.126 1.076.09.341.216.636.396.888.18.251.414.457.693.6.288.153.639.224 1.044.224.522 0 .926-.116 1.223-.34.297-.224.486-.547.576-.951h1.818l.009-.018zm12.292 2.636v-3.434h-3.986v3.434h-1.827v-8.213h1.827v3.228h3.986v-3.228h1.826v8.213h-1.826zm9.484-.789h-.324a2.543 2.543 0 01-.981.735c-.405.18-.891.269-1.467.269-.477 0-.9-.071-1.269-.215a2.584 2.584 0 01-.935-.601 2.591 2.591 0 01-.576-.86 2.785 2.785 0 01-.198-1.013c0-.323.063-.646.18-.978.117-.331.306-.627.567-.887.261-.26.594-.476 1.007-.646.414-.17.918-.251 1.512-.251h2.43v-.242c0-.457-.135-.825-.414-1.103-.279-.278-.72-.412-1.323-.412-.531 0-.927.089-1.197.278-.27.188-.423.43-.45.735h-1.817c.018-.377.117-.717.288-1.013.171-.305.414-.556.711-.762a3.584 3.584 0 011.061-.484 4.775 4.775 0 011.332-.171c.531 0 1.017.063 1.458.18.441.116.818.295 1.124.537.306.243.549.556.72.933.171.376.261.816.261 1.327v5.451h-1.718v-.789l.018-.018zm-2.232-.484c.306 0 .585-.054.855-.152.27-.099.504-.243.693-.431.198-.188.351-.394.459-.645.117-.242.171-.502.171-.789v-.619h-2.106c-.585 0-1.017.117-1.314.35-.288.233-.441.556-.441.986 0 .43.144.726.441.959.288.224.702.341 1.233.341h.009zm15.351 1.479c-.603 0-1.089-.098-1.458-.286a2.614 2.614 0 01-.873-.727h-.324v4.035h-1.826v-11.44h1.781v.807h.324c.225-.278.522-.52.9-.718.369-.197.864-.296 1.485-.296.557 0 1.07.108 1.52.323.45.215.837.52 1.161.906.315.385.558.843.729 1.371.171.529.252 1.103.252 1.731 0 .627-.09 1.201-.261 1.73a4.032 4.032 0 01-.729 1.363 3.234 3.234 0 01-1.152.897 3.53 3.53 0 01-1.52.322l-.009-.018zm-.423-7.082c-.396 0-.747.071-1.026.224a2.21 2.21 0 00-.711.609 2.603 2.603 0 00-.414.888 3.99 3.99 0 00-.126 1.049c0 .368.045.699.126 1.031.081.332.225.628.414.888.189.26.423.466.711.609.288.153.63.224 1.026.224.378 0 .71-.071.989-.206a1.99 1.99 0 00.702-.583c.189-.251.333-.537.423-.869.09-.332.135-.7.135-1.094 0-.395-.045-.762-.135-1.103a2.49 2.49 0 00-.423-.878 1.99 1.99 0 00-.702-.583c-.279-.144-.611-.206-.989-.206zm11.292 6.087h-.324a2.543 2.543 0 01-.981.735c-.405.18-.891.269-1.467.269-.477 0-.9-.071-1.268-.215a2.58 2.58 0 01-.936-.601 2.591 2.591 0 01-.576-.86 2.785 2.785 0 01-.198-1.013c0-.323.063-.646.18-.978.117-.331.306-.627.567-.887.261-.26.594-.476 1.007-.646.414-.17.918-.251 1.512-.251h2.43v-.242c0-.457-.135-.825-.414-1.103-.279-.278-.72-.412-1.323-.412-.531 0-.927.089-1.197.278-.27.188-.423.43-.45.735h-1.817c.018-.377.117-.717.288-1.013.171-.305.414-.556.711-.762a3.596 3.596 0 011.061-.484 4.775 4.775 0 011.332-.171c.531 0 1.017.063 1.458.18.441.116.819.295 1.124.537.306.243.549.556.72.933.171.376.261.816.261 1.327v5.451h-1.718v-.789l.018-.018zm-2.232-.484c.306 0 .585-.054.855-.152.27-.099.504-.243.693-.431.198-.188.351-.394.459-.645.117-.242.171-.502.171-.789v-.619h-2.106c-.585 0-1.017.117-1.314.35-.288.233-.441.556-.441.986 0 .43.144.726.441.959.288.224.702.341 1.233.341h.009zm11.005-4.617a.792.792 0 00-.441-.744c-.288-.162-.684-.242-1.17-.242-1.026 0-1.611.349-1.764 1.049h-1.7c.09-.852.45-1.498 1.098-1.937.647-.439 1.466-.663 2.465-.663.531 0 .999.062 1.413.188.414.125.756.287 1.044.502a2.013 2.013 0 01.863 1.659c0 .475-.09.842-.27 1.102-.18.26-.378.44-.593.529v.323c.305.09.566.269.782.556.225.287.333.699.333 1.237 0 .359-.081.691-.243 1.005a2.31 2.31 0 01-.702.806 3.743 3.743 0 01-1.115.538 5.055 5.055 0 01-1.503.207c-1.206 0-2.132-.242-2.771-.718-.639-.475-1.008-1.129-1.116-1.945h1.719c.063.215.162.394.296.538.135.143.297.26.477.349.18.09.387.144.612.18.225.036.468.045.711.045.54 0 .972-.09 1.305-.26.333-.171.495-.449.495-.825 0-.332-.117-.583-.351-.762-.234-.171-.639-.26-1.206-.26h-1.413v-1.489h1.332c.495 0 .855-.089 1.071-.269a.865.865 0 00.324-.699h.018zm8.584 6.096c-.603 0-1.089-.098-1.458-.286a2.62 2.62 0 01-.872-.727h-.324v4.035h-1.827v-11.44h1.782v.807h.324c.225-.278.522-.52.899-.718.369-.197.864-.296 1.485-.296.558 0 1.071.108 1.521.323.45.215.837.52 1.16.906.315.385.558.843.729 1.371.171.529.252 1.103.252 1.731 0 .627-.09 1.201-.261 1.73a4.048 4.048 0 01-.728 1.363 3.234 3.234 0 01-1.152.897 3.531 3.531 0 01-1.521.322l-.009-.018zm-.423-7.082c-.396 0-.747.071-1.026.224a2.216 2.216 0 00-.71.609 2.603 2.603 0 00-.414.888 3.99 3.99 0 00-.126 1.049c0 .368.045.699.126 1.031.081.332.225.628.414.888.189.26.423.466.71.609.288.153.63.224 1.026.224.378 0 .711-.071.99-.206a1.99 1.99 0 00.702-.583c.189-.251.333-.537.423-.869.09-.332.135-.7.135-1.094 0-.395-.045-.762-.135-1.103a2.49 2.49 0 00-.423-.878 1.99 1.99 0 00-.702-.583c-.279-.144-.612-.206-.99-.206zm11.292 6.087h-.324a2.543 2.543 0 01-.981.735c-.404.18-.89.269-1.466.269-.477 0-.9-.071-1.269-.215a2.58 2.58 0 01-.936-.601 2.591 2.591 0 01-.576-.86 2.785 2.785 0 01-.198-1.013c0-.323.063-.646.18-.978.117-.331.306-.627.567-.887a3.04 3.04 0 011.008-.646c.414-.17.918-.251 1.512-.251h2.429v-.242c0-.457-.135-.825-.414-1.103-.279-.278-.72-.412-1.322-.412-.531 0-.927.089-1.197.278-.27.188-.423.43-.45.735h-1.818c.018-.377.117-.717.288-1.013.171-.305.414-.556.711-.762a3.602 3.602 0 011.062-.484 4.775 4.775 0 011.332-.171c.53 0 1.016.063 1.457.18.441.116.819.295 1.125.537.306.243.549.556.72.933.171.376.261.816.261 1.327v5.451h-1.719v-.789l.018-.018zm-2.231-.484c.306 0 .585-.054.854-.152.27-.099.504-.243.693-.431.198-.188.351-.394.459-.645.117-.242.171-.502.171-.789v-.619h-2.105c-.585 0-1.017.117-1.314.35-.288.233-.441.556-.441.986 0 .43.144.726.441.959.288.224.702.341 1.233.341h.009zm10.455-6.67c.585 0 1.107.098 1.575.287.468.197.873.466 1.197.825.324.358.585.78.765 1.273.18.493.279 1.04.279 1.631 0 .592-.099 1.175-.288 1.677a3.643 3.643 0 01-.837 1.3 3.992 3.992 0 01-1.314.852c-.513.206-1.089.305-1.727.305a4.602 4.602 0 01-1.755-.323 3.517 3.517 0 01-1.332-.951c-.369-.421-.639-.941-.846-1.569-.198-.627-.296-1.344-.296-2.16 0-.7.036-1.381.116-2.044a6.106 6.106 0 01.468-1.794c.234-.529.567-.986.99-1.362.423-.377.981-.628 1.683-.763.099-.017.261-.044.486-.08.225-.036.459-.072.692-.117.279-.045.576-.089.873-.143.315-.054.54-.117.675-.197.135-.081.216-.225.234-.449h1.656a5.422 5.422 0 01-.072.7 1.62 1.62 0 01-.234.609c-.117.18-.288.341-.522.484a2.638 2.638 0 01-.891.323c-.09.018-.243.045-.468.081-.225.036-.477.072-.747.116-.27.045-.53.09-.773.126-.252.045-.432.072-.549.099-.342.062-.639.17-.873.313a2.085 2.085 0 00-.585.529 2.57 2.57 0 00-.36.718c-.09.269-.153.555-.198.869h.306c.315-.439.693-.744 1.134-.923.441-.171.954-.26 1.52-.26l.018.018zm-.368 6.599c.395 0 .746-.063 1.043-.207.297-.134.54-.313.738-.547a2.35 2.35 0 00.441-.806c.099-.305.144-.628.144-.96 0-.332-.045-.654-.144-.959a2.386 2.386 0 00-.441-.816 2.09 2.09 0 00-.738-.556 2.526 2.526 0 00-1.043-.206c-.396 0-.765.072-1.062.206a2.09 2.09 0 00-.738.556 2.224 2.224 0 00-.432.816c-.09.305-.135.627-.135.959 0 .332.045.655.135.96.09.304.234.573.432.806.198.234.441.413.738.547a2.54 2.54 0 001.062.207zm9.933-7.083c.648 0 1.224.107 1.737.322.513.216.954.511 1.314.897.36.386.638.834.827 1.363.189.529.288 1.103.288 1.73 0 .628-.099 1.22-.288 1.74-.189.52-.467.986-.827 1.362a3.75 3.75 0 01-1.314.897c-.513.215-1.089.323-1.737.323-.648 0-1.232-.108-1.745-.323a3.75 3.75 0 01-1.314-.897 3.874 3.874 0 01-.828-1.362 5.15 5.15 0 01-.288-1.74c0-.627.09-1.201.288-1.73a3.764 3.764 0 012.142-2.26c.513-.215 1.088-.322 1.745-.322zm0 7.083c.396 0 .747-.072 1.035-.225.288-.152.531-.358.729-.609.198-.26.342-.556.432-.888a3.99 3.99 0 00.135-1.049 3.86 3.86 0 00-.135-1.031 2.551 2.551 0 00-.432-.888 2.067 2.067 0 00-.729-.609c-.288-.153-.639-.224-1.035-.224-.396 0-.747.071-1.034.224a2.275 2.275 0 00-.729.609c-.198.26-.342.556-.432.888a4.09 4.09 0 000 2.08c.09.332.234.628.432.888.198.26.441.466.729.609.287.153.638.225 1.034.225zm5.318-6.869h7.387v1.552h-2.771v6.661h-1.827v-6.661h-2.789v-1.552zm12.759 4.77h-1.881v3.434h-1.826v-8.212h1.826v3.227h1.908l1.881-3.227h1.898l-2.303 3.954 2.411 4.258h-1.943l-1.98-3.434h.009zm6.821 6.671l1.745-3.972-3.446-7.469h1.944l2.231 4.878h.423l2.124-4.878h1.862l-5.003 11.441h-1.88zm-182.101 13.162h2.546l1.944 3.837h.324l1.943-3.837h2.511v8.212H179.5v-5.908h-.324l-1.701 3.326h-1.655l-1.701-3.326h-.324v5.908h-1.781v-8.212zm16.925 7.424h-.324a2.553 2.553 0 01-.981.735c-.404.179-.89.269-1.466.269-.477 0-.9-.072-1.269-.215a2.593 2.593 0 01-.936-.601 2.585 2.585 0 01-.576-.861 2.78 2.78 0 01-.198-1.013c0-.323.063-.645.18-.977a2.34 2.34 0 01.567-.888c.261-.26.594-.475 1.008-.645.414-.171.918-.251 1.512-.251h2.429v-.242c0-.458-.135-.825-.414-1.103-.279-.278-.72-.413-1.322-.413-.531 0-.927.09-1.197.278-.27.189-.423.431-.45.735h-1.818c.018-.376.117-.717.288-1.013.171-.304.414-.556.711-.762a3.628 3.628 0 011.062-.484c.405-.116.846-.17 1.332-.17.53 0 1.016.062 1.457.179.441.117.819.296 1.125.538.306.242.549.556.72.932.171.377.261.816.261 1.327v5.452h-1.719v-.789l.018-.018zm-2.231-.484c.306 0 .585-.054.854-.153.27-.099.504-.242.693-.43.198-.189.351-.395.459-.646.117-.242.171-.502.171-.789v-.618h-2.105c-.585 0-1.017.116-1.314.349-.288.233-.441.556-.441.986 0 .431.144.727.441.96.288.224.702.341 1.233.341h.009zm13.505-1.354a3.323 3.323 0 01-.396 1.156 3.23 3.23 0 01-.765.906 3.376 3.376 0 01-1.097.583 4.478 4.478 0 01-1.368.206 4.386 4.386 0 01-1.719-.323 3.649 3.649 0 01-1.286-.897 3.816 3.816 0 01-.801-1.362 5.384 5.384 0 01-.279-1.74c0-.627.09-1.201.279-1.739.18-.529.45-.986.801-1.363a3.758 3.758 0 011.286-.887c.504-.216 1.08-.323 1.719-.323 1.017 0 1.836.251 2.456.753.621.502.99 1.156 1.107 1.963h-1.817a1.65 1.65 0 00-.594-.842c-.279-.207-.657-.314-1.143-.314-.414 0-.756.072-1.044.224-.288.152-.522.35-.702.601-.18.251-.315.538-.395.869a4.413 4.413 0 00-.126 1.049c0 .368.045.736.126 1.076.089.341.215.637.395.888.18.251.414.457.693.601.288.152.639.224 1.044.224.522 0 .927-.117 1.224-.341.297-.224.486-.547.576-.95h1.817l.009-.018zm1.269-5.586h7.388v1.551h-2.772v6.661h-1.826v-6.661h-2.79v-1.551zm16.475 4.258h-6.091c.018.843.225 1.489.612 1.937.387.448.954.681 1.7.681.495 0 .891-.089 1.179-.278.288-.179.495-.439.612-.762h1.862a3.04 3.04 0 01-1.151 1.856c-.621.484-1.458.727-2.529.727-.648 0-1.223-.108-1.736-.323a3.7 3.7 0 01-1.296-.906 3.787 3.787 0 01-.81-1.381 5.46 5.46 0 01-.279-1.766c0-.645.09-1.228.288-1.748a3.9 3.9 0 01.801-1.336 3.537 3.537 0 011.269-.861c.504-.206 1.07-.305 1.709-.305s1.161.099 1.638.305c.477.207.873.475 1.206.825.333.341.576.753.747 1.228.17.476.251.978.251 1.498v.609h.018zm-3.851-3.021c-.648 0-1.142.161-1.484.484a2.288 2.288 0 00-.675 1.202h4.13a1.946 1.946 0 00-.576-1.193c-.333-.323-.792-.493-1.404-.493h.009zm10.321 7.182c-.603 0-1.088-.099-1.457-.287a2.614 2.614 0 01-.873-.727h-.324v4.035h-1.827v-11.44h1.782v.807h.324c.225-.278.522-.52.9-.718.369-.197.863-.296 1.484-.296.558 0 1.071.108 1.521.323.45.215.837.52 1.161.906.315.385.558.843.728 1.372.171.529.252 1.102.252 1.73 0 .628-.09 1.201-.261 1.73-.17.529-.413.987-.728 1.363a3.223 3.223 0 01-1.152.897 3.531 3.531 0 01-1.521.322l-.009-.017zm-.423-7.083c-.396 0-.746.071-1.025.224a2.21 2.21 0 00-.711.609 2.603 2.603 0 00-.414.888 3.99 3.99 0 00-.126 1.049c0 .368.045.699.126 1.031.081.332.225.628.414.888.189.26.423.466.711.609.288.153.629.224 1.025.224.378 0 .711-.071.99-.206.279-.143.513-.331.702-.582.189-.252.333-.538.423-.87.09-.332.135-.7.135-1.094 0-.394-.045-.762-.135-1.103a2.499 2.499 0 00-.423-.878 2 2 0 00-.702-.583c-.279-.144-.612-.206-.99-.206zm5.867 3.165v-1.596h4.661v1.596h-4.661zm12.498 3.711v-6.661h-3.923v6.661h-1.827v-8.212h7.576v8.212h-1.826zm3.438-1.739h.288c.27 0 .503-.045.701-.143.198-.099.36-.269.495-.512.135-.242.225-.564.279-.977.054-.412.09-.914.09-1.533v-3.317h6.677v8.212h-1.827V150.5h-3.158v1.82c0 .905-.063 1.667-.198 2.286-.126.619-.333 1.121-.603 1.497-.27.386-.612.655-1.008.816-.405.162-.891.242-1.448.242h-.288v-1.739.009zm16.187.951h-.324a2.553 2.553 0 01-.981.735c-.405.179-.891.269-1.467.269-.476 0-.899-.072-1.268-.215a2.593 2.593 0 01-.936-.601 2.585 2.585 0 01-.576-.861 2.78 2.78 0 01-.198-1.013c0-.323.063-.645.18-.977a2.34 2.34 0 01.567-.888c.261-.26.594-.475 1.008-.645.414-.171.918-.251 1.511-.251h2.43v-.242c0-.458-.135-.825-.414-1.103-.279-.278-.72-.413-1.323-.413-.531 0-.927.09-1.196.278-.27.189-.423.431-.45.735h-1.818c.018-.376.117-.717.288-1.013.171-.304.414-.556.711-.762a3.628 3.628 0 011.062-.484 4.8 4.8 0 011.331-.17c.531 0 1.017.062 1.458.179.441.117.819.296 1.125.538.306.242.549.556.719.932.171.377.261.816.261 1.327v5.452h-1.718v-.789l.018-.018zm-2.232-.484c.306 0 .585-.054.855-.153s.504-.242.693-.43c.198-.189.351-.395.459-.646.117-.242.171-.502.171-.789v-.618h-2.106c-.585 0-1.016.116-1.313.349-.288.233-.441.556-.441.986 0 .431.144.727.441.96.288.224.701.341 1.232.341h.009zm12.139 1.272v-3.434h-3.987v3.434h-1.826v-8.212h1.826v3.227h3.987v-3.227h1.826v8.212h-1.826zm9.483-.788h-.323a2.553 2.553 0 01-.981.735c-.405.179-.891.269-1.467.269-.477 0-.9-.072-1.269-.215a2.589 2.589 0 01-.935-.601 2.585 2.585 0 01-.576-.861 2.78 2.78 0 01-.198-1.013c0-.323.063-.645.18-.977a2.34 2.34 0 01.567-.888c.261-.26.593-.475 1.007-.645.414-.171.918-.251 1.512-.251h2.429v-.242c0-.458-.134-.825-.413-1.103-.279-.278-.72-.413-1.323-.413-.531 0-.927.09-1.197.278-.27.189-.423.431-.45.735h-1.817c.018-.376.117-.717.288-1.013.171-.304.413-.556.71-.762a3.628 3.628 0 011.062-.484c.405-.116.846-.17 1.332-.17.531 0 1.017.062 1.458.179.44.117.818.296 1.124.538.306.242.549.556.72.932.171.377.261.816.261 1.327v5.452h-1.719v-.789l.018-.018zm-2.231-.484c.306 0 .585-.054.855-.153s.504-.242.693-.43c.198-.189.351-.395.459-.646a1.79 1.79 0 00.17-.789v-.618h-2.105c-.585 0-1.017.116-1.314.349-.288.233-.441.556-.441.986 0 .431.144.727.441.96.288.224.702.341 1.233.341h.009zm10.869-6.94h6.434v1.551h-4.598v6.661h-1.827v-8.212h-.009zm5.965 8.213v-2.161h2.124v2.161h-2.124zm11.158-9.782v9.781h-1.944v-11.521h8.134v1.74h-6.19zm11.185 9.988c-.603 0-1.089-.099-1.458-.287a2.614 2.614 0 01-.873-.727h-.324v4.035h-1.826v-11.44h1.781v.807h.324c.225-.278.522-.52.9-.718.369-.197.864-.296 1.485-.296.558 0 1.07.108 1.52.323.45.215.837.52 1.161.906.315.385.558.843.729 1.372.171.529.252 1.102.252 1.73 0 .628-.09 1.201-.261 1.73a4.032 4.032 0 01-.729 1.363 3.223 3.223 0 01-1.152.897 3.527 3.527 0 01-1.52.322l-.009-.017zm-.423-7.083c-.396 0-.747.071-1.026.224a2.21 2.21 0 00-.711.609 2.603 2.603 0 00-.414.888 3.99 3.99 0 00-.126 1.049c0 .368.045.699.126 1.031.081.332.225.628.414.888.189.26.423.466.711.609.288.153.63.224 1.026.224.378 0 .711-.071.99-.206.278-.143.512-.331.701-.582.189-.252.333-.538.423-.87.09-.332.135-.7.135-1.094 0-.394-.045-.762-.135-1.103a2.499 2.499 0 00-.423-.878 2.006 2.006 0 00-.701-.583c-.279-.144-.612-.206-.99-.206zm9.825-1.543c.648 0 1.224.108 1.737.323a3.75 3.75 0 011.314.897c.36.385.639.834.828 1.363.189.529.287 1.102.287 1.73 0 .628-.098 1.219-.287 1.739-.189.52-.468.987-.828 1.363a3.75 3.75 0 01-1.314.897c-.513.215-1.089.323-1.737.323-.647 0-1.232-.108-1.745-.323a3.75 3.75 0 01-1.314-.897 3.878 3.878 0 01-.828-1.363 5.145 5.145 0 01-.288-1.739c0-.628.09-1.201.288-1.73.189-.529.468-.978.828-1.363a3.75 3.75 0 011.314-.897c.513-.215 1.089-.323 1.745-.323zm0 7.083c.396 0 .747-.071 1.035-.224.288-.152.531-.358.729-.609.198-.26.342-.556.432-.888a3.99 3.99 0 00.135-1.049c0-.368-.045-.699-.135-1.031a2.551 2.551 0 00-.432-.888 2.067 2.067 0 00-.729-.609c-.288-.153-.639-.224-1.035-.224-.395 0-.746.071-1.034.224a2.275 2.275 0 00-.729.609c-.198.26-.342.556-.432.888a4.09 4.09 0 000 2.08c.09.332.234.628.432.888.198.26.441.466.729.609.288.153.639.224 1.034.224zm10.933-4.554a.792.792 0 00-.441-.744c-.288-.162-.684-.242-1.169-.242-1.026 0-1.611.349-1.764 1.049h-1.701c.09-.852.45-1.498 1.098-1.937.648-.439 1.467-.663 2.466-.663.53 0 .998.062 1.412.188.414.125.756.287 1.044.502.288.206.504.457.648.744.144.287.216.592.216.915 0 .475-.09.843-.27 1.103-.18.26-.378.439-.594.528v.323c.306.09.567.269.783.556.225.287.333.699.333 1.237 0 .359-.081.691-.243 1.005a2.322 2.322 0 01-.702.807 3.785 3.785 0 01-1.116.537 5.055 5.055 0 01-1.503.207c-1.205 0-2.132-.242-2.771-.718-.639-.475-1.008-1.129-1.116-1.945h1.719c.063.215.162.394.297.538.135.143.297.26.477.349.18.09.387.144.612.18.225.036.468.045.711.045.539 0 .971-.09 1.304-.26.333-.171.495-.449.495-.825 0-.332-.117-.583-.351-.762-.234-.171-.639-.26-1.206-.26h-1.412v-1.489h1.331c.495 0 .855-.089 1.071-.269a.865.865 0 00.324-.699h.018zm9.943 5.89v-3.434h-3.986v3.434h-1.827v-8.212h1.827v3.227h3.986v-3.227h1.826v8.212h-1.826zm6.109-8.212v2.546h2.061c1.044 0 1.845.251 2.384.744.549.493.819 1.174.819 2.053s-.27 1.578-.819 2.098c-.548.52-1.34.771-2.384.771h-3.887v-8.212h1.826zm0 6.661h1.8c.63 0 1.053-.116 1.287-.359.234-.233.351-.555.351-.968 0-.412-.117-.744-.351-.977-.234-.233-.666-.35-1.287-.35h-1.8v2.654zm8.378-6.661v8.212h-1.827v-8.212h1.827zm2.456 8.212v-8.212h1.782v5.388h.324l3.464-5.388h2.105v8.212h-1.781v-5.388h-.324l-3.518 5.388h-2.061.009zm6.559-11.637c-.045.753-.296 1.336-.764 1.757-.468.421-1.125.628-1.971.628-.846 0-1.503-.207-1.97-.628-.468-.421-.729-1.004-.765-1.757h1.439c.018.34.135.627.342.842.207.216.522.323.954.323.432 0 .747-.107.954-.323.207-.215.315-.493.342-.842h1.439zm3.483 11.638v-2.161h2.123v2.438l-1.07 1.812h-1.179l1.071-1.812v-.277h-.945zm-202.014 13.08v3.291c0 .26.018.511.036.762.027.251.126.475.288.672.171.198.432.35.792.476.36.125.873.188 1.53.188.414 0 .819-.027 1.233-.081.414-.054.791-.125 1.151-.206v-5.102h1.944v11.522h-1.944v-4.681a9.47 9.47 0 01-1.367.216c-.504.044-.972.071-1.404.071-1.017 0-1.809-.107-2.375-.314-.567-.206-.99-.484-1.26-.833a2.484 2.484 0 01-.495-1.175 9.215 9.215 0 01-.09-1.327v-3.479h1.961zm16.953 7.567h-6.092c.018.843.225 1.489.612 1.937.387.448.954.681 1.701.681.494 0 .89-.089 1.178-.277.288-.18.495-.44.612-.763h1.863a3.047 3.047 0 01-1.152 1.856c-.621.485-1.458.727-2.528.727-.648 0-1.224-.108-1.737-.323a3.7 3.7 0 01-1.296-.906 3.783 3.783 0 01-.81-1.38 5.47 5.47 0 01-.279-1.767c0-.645.09-1.228.288-1.748a3.9 3.9 0 01.801-1.336 3.537 3.537 0 011.269-.861c.504-.206 1.071-.304 1.71-.304.638 0 1.16.098 1.637.304.477.207.873.476 1.206.825.333.341.576.753.747 1.229.171.475.252.977.252 1.497v.609h.018zm-3.851-3.021c-.648 0-1.143.161-1.485.484a2.288 2.288 0 00-.675 1.202h4.13a1.946 1.946 0 00-.576-1.193c-.333-.323-.792-.493-1.403-.493h.009zm7.243-1.237v2.376c0 .17.009.341.036.52.027.17.099.323.207.457.117.135.288.242.531.323.242.081.584.117 1.025.117a7.8 7.8 0 00.954-.054c.288-.036.576-.081.846-.135v-3.595h1.844v8.213h-1.844v-3.102a9.609 9.609 0 01-1.161.17c-.423.036-.81.054-1.161.054-.719 0-1.295-.081-1.709-.233-.414-.153-.729-.368-.936-.619a1.864 1.864 0 01-.396-.879 6.09 6.09 0 01-.081-.995v-2.618h1.845zm15.359 4.258h-6.091c.018.843.225 1.489.612 1.937.387.448.953.681 1.7.681.495 0 .891-.089 1.179-.277.288-.18.495-.44.612-.763h1.862a3.045 3.045 0 01-1.151 1.856c-.621.485-1.458.727-2.529.727-.648 0-1.223-.108-1.736-.323a3.7 3.7 0 01-1.296-.906 3.783 3.783 0 01-.81-1.38 5.47 5.47 0 01-.279-1.767c0-.645.09-1.228.288-1.748a3.9 3.9 0 01.801-1.336 3.537 3.537 0 011.269-.861c.504-.206 1.07-.304 1.709-.304s1.161.098 1.638.304c.477.207.873.476 1.206.825.333.341.575.753.746 1.229.171.475.252.977.252 1.497v.609h.018zm-3.851-3.021c-.648 0-1.142.161-1.484.484a2.288 2.288 0 00-.675 1.202h4.13a1.946 1.946 0 00-.576-1.193c-.333-.323-.792-.493-1.404-.493h.009zm11.653 6.976v-3.434h-3.986v3.434h-1.827v-8.213h1.827v3.228h3.986v-3.228h1.827v8.213h-1.827zm11.535-2.627a3.342 3.342 0 01-.395 1.156 3.23 3.23 0 01-.765.906 3.392 3.392 0 01-1.098.583 4.478 4.478 0 01-1.368.206 4.38 4.38 0 01-1.718-.323 3.654 3.654 0 01-1.287-.896 3.83 3.83 0 01-.801-1.363 5.384 5.384 0 01-.279-1.74c0-.627.09-1.201.279-1.739.18-.529.45-.986.801-1.363a3.752 3.752 0 011.287-.887c.504-.216 1.079-.323 1.718-.323 1.017 0 1.836.251 2.457.753.621.502.989 1.157 1.106 1.963h-1.817a1.65 1.65 0 00-.594-.842c-.279-.207-.657-.314-1.143-.314-.414 0-.756.072-1.044.224a1.99 1.99 0 00-.701.601c-.18.251-.315.538-.396.869a4.413 4.413 0 00-.126 1.049c0 .368.045.736.126 1.076.09.341.216.637.396.888.18.251.414.457.692.601.288.152.639.224 1.044.224.522 0 .927-.117 1.224-.341.297-.224.486-.547.576-.95h1.817l.009-.018zm5.614-.807h-1.88v3.434h-1.827v-8.213h1.827v3.228h1.907l1.881-3.228h1.899l-2.304 3.954 2.412 4.259h-1.944l-1.98-3.434h.009zm10.682 2.645h-.324a2.543 2.543 0 01-.981.735c-.405.179-.891.269-1.467.269-.477 0-.899-.072-1.268-.215a2.593 2.593 0 01-.936-.601 2.585 2.585 0 01-.576-.861 2.776 2.776 0 01-.198-1.013c0-.323.063-.645.18-.977a2.34 2.34 0 01.567-.888c.261-.26.594-.475 1.008-.645.414-.171.917-.251 1.511-.251h2.43v-.242c0-.458-.135-.825-.414-1.103-.279-.278-.72-.413-1.323-.413-.531 0-.927.09-1.197.278-.27.189-.423.431-.45.736h-1.817c.018-.377.117-.718.288-1.014.171-.304.414-.555.711-.762a3.634 3.634 0 011.061-.484c.405-.116.846-.17 1.332-.17a5.72 5.72 0 011.458.179c.441.117.819.296 1.125.538.305.242.548.556.719.932.171.377.261.816.261 1.327v5.452h-1.718v-.789l.018-.018zm-2.232-.484c.306 0 .585-.054.855-.153.27-.098.504-.242.693-.43.198-.189.351-.395.459-.646.117-.242.171-.502.171-.789v-.618h-2.106c-.585 0-1.017.116-1.314.349-.287.233-.44.556-.44.987 0 .43.144.726.44.959.288.224.702.341 1.233.341h.009zm11.418-1.713h-2.169l-1.475 2.986h-1.881l1.602-3.264c-.495-.179-.873-.466-1.134-.861-.261-.394-.387-.869-.387-1.443 0-.816.27-1.461.801-1.937.531-.475 1.314-.708 2.321-.708h4.148v8.213h-1.826v-2.986zm0-3.748h-2.151c-.557 0-.944.099-1.16.305-.207.206-.315.493-.315.852s.108.663.315.861c.207.197.594.296 1.16.296h2.151v-2.323.009zm14.073-4.788c1.295 0 2.294.314 2.996.942.702.627 1.053 1.497 1.053 2.609 0 1.112-.351 2.008-1.053 2.645-.702.636-1.701.95-2.996.95h-3.141v4.376h-1.943v-11.522h5.084zm-.288 5.443c.864 0 1.475-.171 1.826-.502.36-.332.531-.789.531-1.372 0-.583-.18-1.049-.531-1.372-.36-.323-.962-.484-1.826-.484h-2.853v3.73h2.853zm13.515 2.124h-6.092c.018.843.225 1.489.612 1.937.387.448.954.681 1.701.681.495 0 .89-.089 1.178-.277.288-.18.495-.44.612-.763h1.863a3.047 3.047 0 01-1.152 1.856c-.621.485-1.458.727-2.528.727-.648 0-1.224-.108-1.737-.323a3.7 3.7 0 01-1.296-.906 3.781 3.781 0 01-.809-1.38 5.47 5.47 0 01-.279-1.767c0-.645.09-1.228.288-1.748.189-.52.458-.968.8-1.336a3.537 3.537 0 011.269-.861c.504-.206 1.071-.304 1.71-.304s1.16.098 1.637.304c.477.207.873.476 1.206.825.333.341.576.753.747 1.229.171.475.252.977.252 1.497v.609h.018zm-3.851-3.021c-.648 0-1.143.161-1.485.484a2.288 2.288 0 00-.675 1.202h4.13a1.946 1.946 0 00-.576-1.193c-.333-.323-.791-.493-1.403-.493h.009zm13.119 4.349a3.323 3.323 0 01-.396 1.156 3.23 3.23 0 01-.765.906 3.376 3.376 0 01-1.097.583 4.478 4.478 0 01-1.368.206 4.386 4.386 0 01-1.719-.323 3.66 3.66 0 01-1.286-.896 3.83 3.83 0 01-.801-1.363 5.384 5.384 0 01-.279-1.74c0-.627.09-1.201.279-1.739.18-.529.45-.986.801-1.363a3.758 3.758 0 011.286-.887c.504-.216 1.08-.323 1.719-.323 1.017 0 1.836.251 2.456.753.621.502.99 1.157 1.107 1.963h-1.817a1.65 1.65 0 00-.594-.842c-.279-.207-.657-.314-1.143-.314-.414 0-.756.072-1.044.224-.288.152-.522.35-.702.601-.18.251-.314.538-.395.869a4.413 4.413 0 00-.126 1.049c0 .368.045.736.126 1.076.09.341.215.637.395.888.18.251.414.457.693.601.288.152.639.224 1.044.224.522 0 .927-.117 1.224-.341.297-.224.486-.547.576-.95h1.817l.009-.018zm7.657 2.627v-6.662h-3.923v6.662h-1.827v-8.213h7.576v8.213h-1.826zm5.12 3.227l1.745-3.971-3.446-7.469h1.944l2.231 4.877h.423l2.124-4.877h1.862L305.327 185h-1.88zm12.588-11.162c.585 0 1.107.098 1.575.287.468.197.873.466 1.197.824.324.359.585.78.764 1.274.18.493.279 1.04.279 1.631 0 .592-.099 1.175-.288 1.677a3.628 3.628 0 01-.836 1.3 4.008 4.008 0 01-1.314.852c-.513.206-1.089.305-1.728.305a4.597 4.597 0 01-1.754-.323 3.517 3.517 0 01-1.332-.951c-.369-.421-.639-.941-.846-1.569-.198-.627-.297-1.344-.297-2.16 0-.7.036-1.381.117-2.045a6.107 6.107 0 01.468-1.793 3.95 3.95 0 01.99-1.363c.423-.376.981-.627 1.683-.762.099-.018.26-.044.485-.08.225-.036.459-.072.693-.117.279-.045.576-.09.873-.143.315-.054.54-.117.675-.198.135-.08.216-.224.234-.448h1.656a5.387 5.387 0 01-.072.699 1.618 1.618 0 01-.234.61 1.608 1.608 0 01-.522.484 2.638 2.638 0 01-.891.323c-.09.018-.243.045-.468.081-.225.036-.477.071-.747.116-.27.045-.531.09-.774.126-.252.045-.432.072-.549.098a2.58 2.58 0 00-.872.314 2.085 2.085 0 00-.585.529c-.153.206-.27.449-.36.718a4.9 4.9 0 00-.198.869h.306c.315-.439.693-.744 1.134-.923.441-.171.953-.26 1.52-.26l.018.018zm-.369 6.598c.396 0 .747-.062 1.044-.206.297-.134.54-.314.738-.547.198-.233.342-.502.441-.807a3.09 3.09 0 00.144-.959c0-.332-.045-.654-.144-.959a2.386 2.386 0 00-.441-.816 2.078 2.078 0 00-.738-.556 2.512 2.512 0 00-1.044-.206c-.396 0-.764.071-1.061.206-.297.134-.54.323-.738.556a2.224 2.224 0 00-.432.816c-.09.305-.135.627-.135.959 0 .332.045.655.135.959.09.305.234.574.432.807.198.233.441.413.738.547.297.135.647.206 1.061.206zm5.345-.403h.288c.27 0 .504-.045.701-.143.198-.099.36-.269.495-.511.135-.243.225-.565.279-.978.054-.412.09-.914.09-1.533v-3.317h6.677v8.212h-1.827v-6.661h-3.158v1.82c0 .905-.063 1.668-.198 2.286-.126.619-.333 1.121-.603 1.497-.27.386-.612.655-1.008.816-.405.162-.89.242-1.448.242h-.288v-1.739.009zm10.986 1.74v-8.213h1.782v5.388h.324l3.464-5.388h2.106v8.213h-1.782v-5.389h-.324l-3.518 5.389h-2.061.009zm13.831-3.434h-1.881v3.434h-1.827v-8.213h1.827v3.228h1.908l1.88-3.228h1.899l-2.304 3.954 2.412 4.259h-1.944l-1.979-3.434h.009zm10.671 2.645h-.324a2.543 2.543 0 01-.981.735c-.405.179-.891.269-1.467.269-.477 0-.899-.072-1.268-.215a2.593 2.593 0 01-.936-.601 2.585 2.585 0 01-.576-.861 2.776 2.776 0 01-.198-1.013c0-.323.063-.645.18-.977a2.34 2.34 0 01.567-.888c.261-.26.594-.475 1.008-.645.414-.171.917-.251 1.511-.251h2.43v-.242c0-.458-.135-.825-.414-1.103-.279-.278-.72-.413-1.323-.413-.531 0-.927.09-1.197.278-.27.189-.423.431-.449.736h-1.818c.018-.377.117-.718.288-1.014.171-.304.414-.555.711-.762a3.634 3.634 0 011.061-.484c.405-.116.846-.17 1.332-.17a5.72 5.72 0 011.458.179c.441.117.819.296 1.125.538.305.242.548.556.719.932.171.377.261.816.261 1.327v5.452h-1.718v-.789l.018-.018zm-2.232-.484c.306 0 .585-.054.855-.153.27-.098.504-.242.693-.43.198-.189.351-.395.459-.646.117-.242.171-.502.171-.789v-.618h-2.106c-.585 0-1.017.116-1.313.349-.288.233-.441.556-.441.987 0 .43.144.726.441.959.287.224.701.341 1.232.341h.009zm-273.852-3.641v4.985h30.998L97.916 22.414C97.916 9.747 80.416 0 80.416 0S62.913 9.746 62.913 22.415h17.501v139.498h5.003v4.985h-5.003v4.985h5.003v4.985h-5.003v-.009zm11.607-139.49H86.31v-7.118a2.848 2.848 0 012.852-2.843 2.848 2.848 0 012.852 2.843v7.118h.01zm39.537 134.505v9.961h20.146l-8.89-99.637c0-8.445-11.247-14.946-11.247-14.946s-11.248 6.5-11.248 14.946h11.248v84.691h5.003v4.985h-5.012zm3.752-77.222v-4.985a1.99 1.99 0 011.997-1.99 1.99 1.99 0 011.998 1.99v4.985h-4.004.009z" fill="#fff"/></svg>