<svg width="49" height="50" fill="none" xmlns="http://www.w3.org/2000/svg"><g clip-path="url(#clip0_2_1503)" fill="#fff"><path d="M25.897 1.012H14.55v25.762h11.385V1.012h-.038zm-2.93 22.857h-5.448V3.841h5.448V23.87zm25.617 5.698H.265v2.829h48.32v-2.83zM.265 49.556h2.968V46.35h16.908V35.223H.265v14.333zM3.233 38.09h13.978v5.431H3.233V38.09zM31.792 9.574l5.41-5.733v22.895h2.969V9.574l5.448-5.733v22.895h2.968V1.012h-4.17L40.17 5.425V1.012H36L28.823 8.48v18.256h2.968V9.574zM23.033 46.35H34.23v3.206h3.08V46.35h11.272V35.223h-25.55V46.35zm14.277-8.26h8.304v5.43h-8.303v-5.43zm-11.309 0h8.229v5.43H26v-5.43zM8.682 26.736h2.968V1.012H7.48L.264 8.48v18.256h8.417zM3.233 9.574l5.449-5.733V23.87H3.233V9.574z"/><path d="M48.584 29.567H.265v2.829h48.32v-2.83zM.265 49.556h2.968V46.35h16.908V35.223H.265v14.333zM3.233 38.09h13.978v5.431H3.233V38.09zm19.8 8.26H34.23v3.206h3.08V46.35h11.272V35.223h-25.55V46.35zm14.277-8.26h8.304v5.43h-8.303v-5.43zm-11.309 0h8.229v5.43H26v-5.43zm-.104-37.078H14.55v25.762h11.385V1.012h-.038zm-2.93 22.857h-5.448V3.841h5.448V23.87zm8.825-14.295l5.41-5.733v22.895h2.969V9.574l5.448-5.733v22.895h2.968V1.012h-4.17L40.17 5.425V1.012H36L28.823 8.48v18.256h2.968V9.574zM8.682 26.736h2.968V1.012H7.48L.264 8.48v18.256h8.417zM3.233 9.574l5.449-5.733V23.87H3.233V9.574z"/></g><defs><clipPath id="clip0_2_1503"><path fill="#fff" transform="translate(0 .863)" d="M0 0h48.845v48.845H0z"/></clipPath></defs></svg>