<svg width="56" height="56" fill="none" xmlns="http://www.w3.org/2000/svg"><path d="M28.327 55.67c15.124 0 27.385-12.26 27.385-27.385C55.712 13.161 43.45.9 28.327.9 13.202.9.94 13.16.94 28.285.94 43.41 13.201 55.67 28.326 55.67z" fill="#006EC7"/><path d="M28.326 54.136c14.277 0 25.85-11.574 25.85-25.85 0-14.278-11.573-25.851-25.85-25.851-14.277 0-25.85 11.573-25.85 25.85 0 14.277 11.573 25.85 25.85 25.85z" fill="#FFED00"/><path fill-rule="evenodd" clip-rule="evenodd" d="M28.327 8.216c11.049 0 20.063 9.014 20.063 20.063 0 11.048-9.014 20.063-20.063 20.063-11.048 0-20.062-9.015-20.062-20.063 0-11.049 9.014-20.063 20.062-20.063zm2.783 5.039a4.191 4.191 0 01-.24.323c3.171.546 6.25 2.099 8.404 4.327-2.191-2.367-4.863-4.04-8.164-4.65zm-5.316.332a4.21 4.21 0 01-.24-.323c-3.292.61-5.936 2.284-8.136 4.65 2.154-2.228 5.205-3.781 8.376-4.327zm5.705-1.165a2.53 2.53 0 01-.14.37c2.516.49 5.15 1.59 7.092 3.135-2.043-1.73-4.234-2.959-6.952-3.505zm-6.204.37a2.53 2.53 0 01-.139-.37c-2.718.546-4.854 1.776-6.897 3.495 1.95-1.534 4.521-2.635 7.036-3.125zm6.351-1.248c0 .139-.018.278-.037.407 2.256.453 4.688 1.368 6.519 2.644-1.997-1.488-3.957-2.552-6.482-3.05zm-6.591.407a2.89 2.89 0 01-.038-.407c-2.523.5-4.474 1.563-6.471 3.051 1.83-1.276 4.253-2.182 6.509-2.644zm6.49-1.331c.037.148.064.296.083.453 2.801.536 5.695 1.747 7.859 3.448-2.349-1.96-4.826-3.337-7.942-3.901zm-6.509.453c.018-.158.046-.305.083-.453-3.116.564-5.603 1.941-7.942 3.901 2.164-1.7 5.058-2.912 7.859-3.448zm9.06 30.963c-1.451.693-2.856 1.119-3.023 2.774 1.997.083 2.45-1.572 3.024-2.774zm-11.529 0c.574 1.202 1.027 2.857 3.024 2.774-.167-1.655-1.572-2.08-3.024-2.774zm-2.228-1.22c.36 1.285.537 2.986 2.515 3.235.111-1.645-1.202-2.302-2.515-3.235zm-1.987-1.572c.138 1.322.018 3.042 1.932 3.615.388-1.6-.795-2.478-1.932-3.615zm-1.702-1.886c-.083 1.331-.49 2.995 1.295 3.892.656-1.516-.36-2.57-1.295-3.892zm-1.35-2.145c-.305 1.294-.989 2.875.62 4.059.897-1.387.074-2.608-.62-4.06zm-.97-2.34c-.527 1.23-1.461 2.663-.074 4.106 1.118-1.22.508-2.561.074-4.105zm-.564-2.477c-.721 1.119-1.896 2.376-.768 4.03 1.313-1.007.934-2.43.768-4.03zm-.139-2.533c-.897.98-2.265 2.024-1.433 3.837 1.46-.768 1.331-2.229 1.433-3.837zm.296-2.515c-1.054.813-2.57 1.608-2.062 3.54 1.572-.517 1.683-1.978 2.062-3.54zm.712-2.441c-1.174.629-2.81 1.156-2.635 3.143 1.636-.24 2.006-1.655 2.635-3.143zm1.119-2.274c-1.267.416-2.968.665-3.125 2.653 1.645.037 2.246-1.304 3.125-2.653zm1.479-2.062c-1.313.194-3.033.157-3.532 2.09 1.627.323 2.44-.898 3.532-2.09zm3.93 27.228c1.183.425 3.328 1.322 4.298-.462-1.525-.99-2.958.314-4.299.462zm-2.84-1.498c1.101.62 3.061 1.868 4.318.268-1.33-1.23-2.967-.194-4.317-.268zm-2.542-1.96c.98.795 2.7 2.358 4.207.99-1.11-1.434-2.885-.685-4.207-.99zM13.6 39.983c.832.953 2.265 2.774 3.985 1.683-.85-1.6-2.727-1.155-3.985-1.682zm-1.747-2.68c.656 1.081 1.766 3.115 3.643 2.33-.564-1.72-2.497-1.61-3.643-2.33zm-1.267-2.95c.462 1.174 1.22 3.375 3.2 2.903-.278-1.784-2.192-1.997-3.2-2.903zm-.758-3.116c.259 1.24.629 3.532 2.663 3.403.037-1.813-1.822-2.34-2.663-3.403zm-.222-3.199c.056 1.258.028 3.587 2.053 3.81.333-1.785-1.406-2.626-2.053-3.81zm.315-3.199c-.167 1.248-.574 3.541 1.386 4.096.63-1.692-.943-2.81-1.386-4.096zm.85-3.088c-.37 1.202-1.165 3.393.675 4.272.915-1.563-.453-2.94-.675-4.272zm1.369-2.903c-.564 1.128-1.72 3.153-.056 4.327 1.156-1.396.046-2.977.056-4.327zm1.83-2.635c-.749 1.017-2.219 2.81-.776 4.253 1.368-1.174.536-2.921.776-4.253zm9.745 28.449c-.194-.13-.388-.278-.536-.536a.808.808 0 01-.167.619c.37-.092.583-.12.703-.083zm-2.681-1.073c-.176-.166-.333-.342-.435-.62a.818.818 0 01-.268.583c.37-.018.583-.018.703.037zm-2.469-1.497c-.139-.195-.277-.389-.333-.685a.802.802 0 01-.36.527c.379.047.582.084.693.158zm-2.182-1.896a1.614 1.614 0 01-.212-.73.807.807 0 01-.444.462c.37.102.564.176.656.268zm-1.83-2.228c-.074-.231-.13-.462-.084-.758a.815.815 0 01-.517.379c.342.166.527.268.6.379zm-1.434-2.515c-.027-.231-.046-.48.047-.758a.803.803 0 01-.573.287c.305.222.471.36.526.471zm-.989-2.709c.01-.24.028-.48.167-.74a.82.82 0 01-.61.186c.268.268.406.425.443.554zm-.518-2.847c.047-.231.111-.463.296-.703a.845.845 0 01-.638.083c.213.314.324.5.342.62zm-.037-2.885c.084-.222.185-.444.407-.638a.809.809 0 01-.638-.028c.167.342.24.537.232.666zm.454-2.857c.12-.203.258-.407.508-.564-.203.046-.434-.01-.629-.13.102.361.148.574.12.694zm.924-2.736c.157-.186.324-.352.592-.472a.788.788 0 01-.592-.24c.037.379.046.591 0 .712zm1.368-2.543c.185-.148.38-.296.666-.36a.82.82 0 01-.545-.333c-.028.379-.056.582-.12.693zm3.458-3.91c-2.135.794-2.912 1.867-2.773 3.078 1.377-.176 2.302-1.202 2.773-3.079zm18.547 25.85c-1.313.933-2.626 1.59-2.515 3.235 1.978-.24 2.154-1.95 2.515-3.235zm1.987-1.572c-1.137 1.137-2.32 2.006-1.932 3.615 1.914-.573 1.794-2.293 1.932-3.615zm1.702-1.886c-.934 1.313-1.951 2.376-1.295 3.892 1.785-.897 1.378-2.56 1.295-3.892zm1.35-2.145c-.694 1.451-1.517 2.672-.62 4.059 1.609-1.184.925-2.765.62-4.06zm.97-2.34c-.434 1.554-1.044 2.885.074 4.106 1.387-1.443.453-2.885-.074-4.105zm.564-2.477c-.166 1.6-.545 3.023.768 4.03 1.128-1.654-.046-2.911-.768-4.03zm.139-2.533c.102 1.608-.028 3.07 1.433 3.837.832-1.813-.536-2.857-1.433-3.837zm-.296-2.515c.37 1.572.49 3.032 2.062 3.54.518-1.932-1.008-2.727-2.062-3.54zm-.712-2.441c.629 1.48.999 2.903 2.635 3.143.176-1.987-1.46-2.514-2.635-3.143zm-1.119-2.274c.87 1.359 1.47 2.7 3.126 2.653-.158-1.988-1.859-2.237-3.126-2.653zm-1.479-2.062c1.091 1.183 1.905 2.404 3.532 2.09-.5-1.933-2.219-1.887-3.532-2.09zm-3.93 27.228c-1.34-.157-2.782-1.452-4.298-.462.97 1.793 3.116.896 4.299.462zm2.84-1.498c-1.35.074-2.987-.961-4.318.268 1.257 1.6 3.217.352 4.317-.268zm2.542-1.96c-1.322.305-3.107-.444-4.207.99 1.507 1.368 3.227-.186 4.207-.99zm2.172-2.358c-1.248.518-3.134.084-3.984 1.683 1.72 1.1 3.162-.73 3.985-1.682zm1.757-2.68c-1.146.72-3.079.61-3.643 2.33 1.868.785 2.978-1.258 3.643-2.33zm1.267-2.95c-1.008.906-2.931 1.119-3.2 2.912 1.98.463 2.738-1.738 3.2-2.912zm.758-3.116c-.841 1.064-2.7 1.6-2.663 3.403 2.034.129 2.404-2.173 2.663-3.403zm.222-3.199c-.647 1.184-2.395 2.025-2.053 3.81 2.025-.223 2.007-2.552 2.053-3.81zm-.324-3.199c-.444 1.276-2.015 2.404-1.387 4.096 1.97-.555 1.554-2.838 1.387-4.096zm-.85-3.088c-.222 1.332-1.581 2.71-.675 4.272 1.84-.879 1.044-3.07.675-4.272zm-1.36-2.903c.01 1.35-1.109 2.931.056 4.327 1.664-1.183.518-3.199-.056-4.327zm-1.83-2.635c.24 1.332-.592 3.079.776 4.253 1.443-1.442-.027-3.236-.776-4.253zM32.95 44.662c.12-.037.333-.01.703.083a.808.808 0 01-.167-.62c-.147.25-.342.398-.536.537zm2.681-1.073c.12-.055.324-.064.703-.037a.818.818 0 01-.268-.582c-.093.277-.259.462-.435.62zm2.469-1.497c.102-.075.314-.111.693-.158a.824.824 0 01-.36-.527c-.056.296-.185.49-.333.685zm2.182-1.896c.092-.092.286-.166.656-.268a.806.806 0 01-.444-.462 1.61 1.61 0 01-.212.73zm1.83-2.228c.074-.102.26-.213.601-.37a.814.814 0 01-.517-.379c.046.287-.01.518-.084.749zm1.433-2.515c.056-.12.222-.25.527-.471a.803.803 0 01-.573-.287c.093.287.074.527.046.758zm.99-2.709c.037-.12.175-.286.444-.554a.82.82 0 01-.61-.185c.129.258.157.499.166.74zm.518-2.847c.018-.13.12-.305.342-.62a.845.845 0 01-.638-.083c.185.24.25.472.296.703zm.037-2.885c-.01-.13.064-.324.23-.666a.852.852 0 01-.637.028c.212.194.323.416.407.638zm-.454-2.857c-.027-.13.01-.333.12-.693a.814.814 0 01-.628.13c.25.166.388.36.508.563zm-.924-2.736c-.046-.12-.046-.333 0-.713a.84.84 0 01-.592.24c.268.121.435.297.592.473zm-1.368-2.543c-.065-.111-.102-.314-.12-.694a.82.82 0 01-.546.333c.287.065.48.213.666.36zm-3.458-3.91c.471 1.876 1.396 2.902 2.773 3.078.14-1.211-.637-2.284-2.773-3.079zM30.73 44.531c-.952.204-1.775.444-2.404.722-.628-.278-1.451-.51-2.403-.722.212.398.11.74-.111 1.017.647-.25 1.368-.222 2.015-.055-.62.351-.934.749-.85 1.193.101-.333.637-.759 1.35-1.036.702.277 1.248.703 1.35 1.035.082-.443-.232-.84-.851-1.192.647-.167 1.368-.194 2.015.055-.222-.268-.323-.62-.11-1.017zM27.227 10.38l-.24.75h-.795l.638.461-.24.75.637-.463.638.462-.24-.749.638-.462h-.795l-.24-.749zm1.1-1.47c-.268 0-.527.037-.767.12a2.647 2.647 0 011.858 2.515 2.636 2.636 0 01-1.562 2.404 2.547 2.547 0 003.023-2.496 2.555 2.555 0 00-2.552-2.543zm2.783.74c.102.157.194.323.268.5 4.078.683 8.035 2.717 10.734 5.63h.019c-2.875-3.227-6.564-5.464-11.02-6.13zm-5.824.5a3.15 3.15 0 01.268-.5c-4.457.666-8.118 2.903-10.993 6.13 2.709-2.913 6.647-4.947 10.725-5.63z" fill="#006EC7"/><path d="M28.33 41.978c7.562 0 13.692-6.13 13.692-13.693 0-7.562-6.13-13.693-13.693-13.693-7.562 0-13.692 6.13-13.692 13.693 0 7.562 6.13 13.693 13.692 13.693z" fill="#FEFEFE"/><path fill-rule="evenodd" clip-rule="evenodd" d="M36.747 5.18a3.147 3.147 0 00-.703.639 1.463 1.463 0 00-.102-.425 1.473 1.473 0 00-.138-.269c-.056-.074-.111-.148-.185-.203a1.283 1.283 0 00-.767-.314 1.26 1.26 0 00-.777.203c-.666.61-.305 1.59.407 1.433-.26-.185-.324-.675-.01-.85.084-.065.213-.084.343-.084a.65.65 0 01.351.13.25.25 0 01.065.074.562.562 0 01.064.13.903.903 0 01.047.147.956.956 0 01-.194.749.864.864 0 01-.093.083c-.037.028-.074.046-.102.065a.838.838 0 01-.684.01c-.286-.121-.776-.537-1.23-.925-.157-.14-.314-.269-.425-.361a8.987 8.987 0 00-.185-.157c-.046-.037-.092-.083-.148-.12a4.686 4.686 0 01-.23-.195c-.5-.425-1.027-.878-1.415-1.044-.407-.167-.87-.167-1.248.027a.902.902 0 00-.222.14.923.923 0 00-.195.184 1.56 1.56 0 00-.194.287 2.944 2.944 0 00-.434-.87 3.643 3.643 0 00-.444.833l-.056-.111a1.452 1.452 0 00-.175-.24 1.163 1.163 0 00-.222-.204.868.868 0 00-.24-.13 1.349 1.349 0 00-.832-.027 1.21 1.21 0 00-.657.462c-.416.804.259 1.6.87 1.211-.306-.083-.528-.518-.306-.795a.54.54 0 01.296-.194.59.59 0 01.379.01.373.373 0 01.092.045c.037.028.074.065.111.102.037.037.065.083.093.12.139.24.166.546.074.777l-.056.11c-.027.038-.046.075-.074.103a.836.836 0 01-.638.24c-.314-.019-.906-.24-1.47-.453-.194-.074-.388-.148-.527-.194-.092-.037-.166-.056-.23-.083-.056-.019-.12-.047-.176-.065a9.374 9.374 0 01-.287-.111c-.61-.231-1.267-.48-1.683-.5a1.546 1.546 0 00-1.165.454c-.064.064-.11.13-.157.203-.046.074-.083.157-.12.24a1.947 1.947 0 00-.083.333 2.929 2.929 0 00-.712-.675c-.093.333-.13.638-.13.934-.027-.028-.055-.046-.083-.074a1.39 1.39 0 00-.24-.166 1.734 1.734 0 00-.277-.111.935.935 0 00-.269-.037 1.255 1.255 0 00-.786.259 1.216 1.216 0 00-.462.656c-.12.897.786 1.415 1.23.841-.315.028-.675-.305-.555-.647a.505.505 0 01.213-.277.532.532 0 01.36-.12c.037 0 .065.009.102.018.046.01.093.028.139.056.046.027.083.055.13.083a.91.91 0 01.332.703c0 .046-.01.083-.018.12a.456.456 0 01-.038.12.857.857 0 01-.517.444c-.296.092-.934.083-1.535.074-.213 0-.416-.01-.564 0h-.73c-.657-.01-1.35-.019-1.757.11-.416.13-.767.435-.943.833a1.255 1.255 0 00-.111.518c0 .11.01.221.037.342a2.924 2.924 0 00-.915-.398c.027.342.092.656.203.934-.028-.019-.065-.028-.092-.037a1.454 1.454 0 00-.287-.074 1.26 1.26 0 00-.573.046c-.268.093-.5.287-.657.509a1.24 1.24 0 00-.212.776c.194.888 1.22 1.054 1.442.37-.287.139-.74-.055-.749-.416a.536.536 0 01.102-.333.575.575 0 01.296-.24c.037-.01.064-.019.101-.019a.799.799 0 01.296.046.95.95 0 01.555.546c.01.037.018.083.028.12a.627.627 0 01.009.13.815.815 0 01-.333.591c-.25.185-.85.398-1.414.601-.195.074-.389.139-.527.185-.093.037-.167.056-.232.083-.055.019-.12.047-.175.065-.102.037-.194.065-.287.102-.62.213-1.276.444-1.609.703a1.525 1.525 0 00-.6 1.1c-.01.092 0 .175.009.259a.871.871 0 00.064.258c.037.102.084.204.148.296a2.955 2.955 0 00-.998-.064c.148.323.323.591.518.813h-.102c-.102 0-.194.01-.296.028a1.482 1.482 0 00-.287.092.959.959 0 00-.23.14 1.298 1.298 0 00-.38 1.506c.49.768 1.507.573 1.48-.148-.222.222-.712.194-.842-.139-.046-.092-.046-.221-.018-.35a.533.533 0 01.416-.426.813.813 0 01.148-.019c.277 0 .554.13.712.324a.622.622 0 01.11.222c.065.212.019.462-.11.675-.167.259-.666.665-1.128 1.045a7.088 7.088 0 00-.435.36c-.074.065-.13.111-.185.157-.046.037-.092.084-.138.12a5.04 5.04 0 00-.232.195c-.508.416-1.044.86-1.276 1.21a1.48 1.48 0 00-.184 1.24c.027.083.055.166.092.24.037.074.092.148.148.222.065.083.139.148.222.222a3.12 3.12 0 00-.952.277c.25.26.517.453.785.601-.037.01-.074.019-.11.037a1.439 1.439 0 00-.509.315c-.065.064-.12.138-.166.212-.148.25-.204.536-.176.814.028.277.148.545.342.73.721.555 1.618.028 1.34-.647-.129.287-.6.435-.84.157a.58.58 0 01-.14-.323.56.56 0 01.075-.37.504.504 0 01.064-.083c.037-.037.074-.065.111-.093.046-.028.093-.046.139-.065a.978.978 0 01.776.056c.037.018.065.046.102.074a.378.378 0 01.083.092c.14.185.176.435.13.675-.065.305-.398.85-.703 1.369-.11.175-.212.36-.286.49l-.12.212c-.028.056-.065.111-.093.167-.056.092-.102.175-.157.259-.333.564-.694 1.164-.777 1.571-.092.425-.01.888.25 1.23.055.074.11.139.175.194.065.055.14.111.213.157.083.046.176.093.268.12a2.89 2.89 0 00-.786.583c.333.157.657.259.962.296l-.102.074a1.541 1.541 0 00-.37.471 1.407 1.407 0 00-.083.26 1.26 1.26 0 00.12.822c.12.25.324.453.564.573.87.268 1.526-.527 1.036-1.072-.028.314-.426.61-.73.434a.55.55 0 01-.241-.259.658.658 0 01-.065-.37l.028-.092a.537.537 0 01.074-.12c.028-.037.065-.074.102-.111a.953.953 0 01.749-.213c.037.01.083.019.12.037a.616.616 0 01.11.056.87.87 0 01.352.592c.037.305-.083.933-.194 1.525l-.102.555a3.98 3.98 0 00-.037.24l-.028.185-.055.296c-.12.638-.25 1.331-.194 1.747.055.435.296.832.647 1.073.074.046.148.092.231.12.083.037.167.055.259.074.083.018.176.028.268.028a2.91 2.91 0 00-.527.804c.37.037.712.018 1.026-.055-.027.036-.055.083-.083.12a1.395 1.395 0 00-.185.564.86.86 0 00.01.268c.046.286.194.545.388.73.203.194.462.315.73.342.906-.046 1.258-1.017.61-1.359.084.305-.184.721-.545.666a.563.563 0 01-.314-.157.6.6 0 01-.185-.333.19.19 0 010-.102l.027-.139a.938.938 0 01.694-.591c.037-.01.083-.01.12-.01.046 0 .083.01.13.019a.819.819 0 01.526.435c.14.277.25.906.343 1.497.037.204.064.407.092.555.018.102.028.166.046.24.01.065.019.12.037.185.019.102.037.204.046.296.102.647.222 1.332.417 1.71.203.389.564.685.98.786.083.019.175.038.258.038.084 0 .176 0 .268-.019.084-.01.167-.037.25-.065a2.73 2.73 0 00-.213.925 2.95 2.95 0 00.962-.416c-.018.055-.028.11-.037.166-.018.102-.028.194-.018.296 0 .102.018.203.037.305a.984.984 0 00.101.25c.139.25.37.444.62.555.25.11.545.138.804.073.841-.35.832-1.386.111-1.488.185.259.074.74-.287.804a.536.536 0 01-.35-.046.586.586 0 01-.287-.25c-.019-.027-.028-.064-.037-.092a.714.714 0 01-.019-.148c0-.055 0-.102.01-.148.046-.277.221-.527.434-.638.037-.018.074-.037.11-.046.047-.019.084-.019.12-.028.223-.028.463.065.648.231.231.213.546.768.832 1.295.102.185.204.36.277.49l.12.212c.029.056.066.111.093.158.056.092.102.175.148.268.324.573.666 1.183.97 1.46.325.296.759.454 1.184.398a.986.986 0 00.25-.055c.083-.028.166-.065.24-.102a.988.988 0 00.204-.139c-.01.296.027.61.11.925.315-.222.574-.462.768-.73a1.455 1.455 0 00.102.471c.037.092.083.185.138.268a.967.967 0 00.185.203c.213.195.5.296.768.315a1.26 1.26 0 00.776-.204c.666-.61.305-1.59-.407-1.433.26.185.324.666.01.85-.083.066-.213.084-.342.084a.648.648 0 01-.352-.13.238.238 0 01-.064-.073.545.545 0 01-.065-.13.437.437 0 01-.037-.148.956.956 0 01.194-.748.828.828 0 01.093-.084c.037-.027.073-.046.101-.064a.838.838 0 01.684-.01c.287.12.777.537 1.23.925.157.138.314.268.425.36.074.065.13.111.185.158.046.037.093.083.148.12.083.064.157.13.231.194.5.425 1.027.878 1.415 1.045a1.53 1.53 0 001.257-.028.9.9 0 00.222-.139.924.924 0 00.194-.185.992.992 0 00.139-.194c.093.278.231.546.416.814.222-.315.388-.638.48-.953.029.065.056.13.093.185.046.084.111.167.176.24.065.075.139.149.222.204a.868.868 0 00.24.13c.268.101.564.101.832.027.268-.074.509-.24.657-.462.416-.804-.26-1.6-.87-1.211.306.083.528.518.306.795a.538.538 0 01-.296.194.59.59 0 01-.472-.055 1.031 1.031 0 01-.11-.102c-.037-.037-.065-.083-.093-.12a.927.927 0 01-.074-.777l.055-.11c.028-.038.047-.075.075-.102a.836.836 0 01.637-.24c.315.018.907.24 1.47.452.195.074.389.148.527.194.093.037.167.056.232.084.055.018.12.046.175.064.102.037.194.074.287.111.61.231 1.267.481 1.683.5a1.55 1.55 0 001.165-.453c.064-.065.11-.13.157-.204.046-.074.083-.157.12-.24a1.69 1.69 0 00.065-.231c.175.221.397.425.665.61.102-.38.148-.73.12-1.054.047.055.102.102.158.157.074.065.157.12.24.166.093.047.185.084.277.111a.933.933 0 00.269.037c.286.01.563-.092.785-.259.222-.166.398-.397.463-.656.12-.897-.786-1.415-1.23-.841.314-.028.675.305.555.647a.505.505 0 01-.213.277.532.532 0 01-.36.12c-.038 0-.065-.009-.102-.018a.434.434 0 01-.139-.056c-.046-.027-.083-.055-.13-.083a.91.91 0 01-.332-.702c0-.047.01-.084.018-.12a.46.46 0 01.037-.12.857.857 0 01.518-.445c.296-.092.934-.083 1.535-.074.213 0 .416.01.564 0h.73c.657.01 1.35.019 1.757-.11.416-.13.767-.435.943-.833a1.255 1.255 0 00.11-.518c0-.083-.008-.157-.018-.24.24.148.518.26.823.342a3.1 3.1 0 00-.24-1.026c.064.037.139.065.203.093.093.036.185.055.287.073a1.259 1.259 0 00.573-.046c.268-.092.5-.286.656-.508a1.24 1.24 0 00.213-.777c-.194-.887-1.22-1.054-1.442-.37.286-.138.74.056.749.416a.538.538 0 01-.102.333.576.576 0 01-.296.24c-.037.01-.065.02-.102.02-.046 0-.101 0-.148-.01a.688.688 0 01-.147-.037.95.95 0 01-.555-.546c-.01-.037-.019-.083-.028-.12-.01-.046-.01-.083-.01-.13a.815.815 0 01.334-.591c.25-.185.85-.398 1.414-.6.194-.075.389-.14.527-.186.093-.037.167-.065.231-.083.056-.018.12-.046.176-.065.102-.037.194-.065.287-.102.62-.212 1.276-.443 1.608-.702a1.52 1.52 0 00.601-1.1c.01-.093 0-.176-.009-.26a.888.888 0 00-.065-.258 2.513 2.513 0 00-.101-.231c.277.055.573.064.887.037a3.358 3.358 0 00-.564-.87c.074.01.148.02.222.02a1.6 1.6 0 00.296-.029c.102-.018.194-.055.287-.092a.961.961 0 00.23-.139c.223-.175.38-.434.445-.702a1.256 1.256 0 00-.065-.805c-.49-.767-1.507-.573-1.48.148.222-.222.712-.194.842.139.046.092.046.222.018.351a.534.534 0 01-.277.38c-.046.018-.092.036-.139.046a.813.813 0 01-.148.018.942.942 0 01-.712-.324.625.625 0 01-.11-.221c-.065-.213-.019-.463.11-.675.167-.26.666-.666 1.129-1.045.166-.13.323-.259.434-.36.074-.066.13-.112.185-.158.046-.037.092-.083.139-.12.083-.065.157-.13.23-.194.51-.416 1.046-.86 1.277-1.211a1.478 1.478 0 00.092-1.48 1.503 1.503 0 00-.148-.222 1.92 1.92 0 00-.194-.194c.277-.046.564-.13.85-.268a3.025 3.025 0 00-.813-.61c.074-.019.139-.037.203-.056.093-.037.185-.073.269-.129.083-.056.166-.111.24-.185.065-.065.12-.139.166-.213.148-.25.204-.536.176-.813a1.177 1.177 0 00-.342-.73c-.721-.555-1.618-.028-1.34.647.129-.287.6-.435.84-.158.075.074.12.195.14.324a.561.561 0 01-.075.37.514.514 0 01-.064.083 1.014 1.014 0 01-.111.093.922.922 0 01-.139.064.977.977 0 01-.777-.055c-.037-.019-.064-.047-.101-.074a.376.376 0 01-.084-.093c-.138-.185-.175-.434-.129-.675.065-.305.398-.85.703-1.368.11-.176.212-.36.286-.49l.12-.213c.028-.055.065-.11.093-.166.055-.093.102-.176.157-.259.333-.564.694-1.165.777-1.572a1.525 1.525 0 00-.25-1.23 1.19 1.19 0 00-.176-.193 1.802 1.802 0 00-.212-.158 1.335 1.335 0 00-.26-.12c.25-.139.49-.323.713-.545a3.046 3.046 0 00-.952-.296c.055-.037.11-.074.157-.12.074-.065.148-.139.203-.213a1.08 1.08 0 00.157-.259 1.42 1.42 0 00.084-.259 1.26 1.26 0 00-.12-.823 1.255 1.255 0 00-.565-.573c-.869-.268-1.525.527-1.035 1.073.028-.315.425-.61.73-.435a.55.55 0 01.24.259.65.65 0 01.065.37 1.083 1.083 0 01-.027.092.551.551 0 01-.074.12c-.028.037-.065.074-.102.111-.213.176-.509.26-.749.213-.037-.01-.083-.018-.12-.037a.615.615 0 01-.111-.055c-.185-.12-.315-.343-.351-.592-.037-.305.083-.934.194-1.526l.101-.554c.019-.102.028-.167.037-.24l.028-.186c.019-.101.037-.203.056-.295.12-.638.25-1.332.194-1.748a1.546 1.546 0 00-.647-1.072 1.104 1.104 0 00-.232-.12 1.192 1.192 0 00-.258-.075 1.702 1.702 0 00-.306-.027 3.22 3.22 0 00.5-.768 3.111 3.111 0 00-.98.047 1.401 1.401 0 00.287-.712.865.865 0 00-.01-.269 1.312 1.312 0 00-.388-.73 1.25 1.25 0 00-.73-.342c-.907.046-1.258 1.017-.61 1.36-.084-.306.184-.722.545-.667a.57.57 0 01.314.158.6.6 0 01.185.332.19.19 0 010 .102l-.028.139a.933.933 0 01-.694.592c-.036.009-.083.009-.12.009-.046 0-.083-.01-.129-.019a.818.818 0 01-.527-.434c-.139-.278-.25-.906-.342-1.498-.037-.203-.065-.407-.092-.555-.019-.101-.028-.166-.047-.24a1.315 1.315 0 00-.037-.185c-.018-.102-.037-.203-.046-.296-.102-.647-.222-1.331-.416-1.71a1.542 1.542 0 00-.98-.786 1.255 1.255 0 00-.527-.019 1.347 1.347 0 00-.314.093 3.17 3.17 0 00.212-.906 3.201 3.201 0 00-.887.37.972.972 0 00.037-.158c.018-.101.027-.194.018-.295 0-.102-.018-.204-.037-.306a1.008 1.008 0 00-.101-.25 1.333 1.333 0 00-.62-.554 1.27 1.27 0 00-.804-.074c-.842.351-.832 1.387-.111 1.489-.185-.26-.074-.74.287-.805a.536.536 0 01.35.047.575.575 0 01.287.25c.019.027.028.064.037.092.01.046.019.092.019.148 0 .055 0 .101-.01.147-.046.278-.221.527-.434.638a.606.606 0 01-.11.047c-.047.018-.084.018-.121.027-.222.028-.462-.064-.647-.23-.231-.213-.546-.768-.832-1.295-.102-.185-.204-.36-.278-.49l-.12-.213c-.028-.055-.065-.11-.092-.157a3.885 3.885 0 01-.148-.268c-.324-.573-.666-1.184-.971-1.46-.324-.297-.758-.454-1.183-.398a.991.991 0 00-.25.055 1.878 1.878 0 00-.24.102 1.77 1.77 0 00-.278.203 3.097 3.097 0 00-.12-.952zm6.194 6.38c-.009.028-.009.065-.009.093a.864.864 0 00.01.268c.046.286.194.545.388.73.203.194.462.315.73.342.906-.046 1.258-1.017.61-1.359.084.305-.185.721-.545.666a.564.564 0 01-.315-.157.633.633 0 01-.184-.333.19.19 0 010-.102l.027-.139c.019-.046.037-.092.065-.138a.933.933 0 01.629-.453c.037-.01.083-.01.12-.01.046 0 .083.01.12.019a.819.819 0 01.527.435c.139.277.25.906.342 1.497.037.204.065.407.093.555.018.102.027.166.046.24.01.065.018.12.037.185.018.102.037.204.046.296.102.647.222 1.332.416 1.71.204.389.564.685.98.787.083.018.176.037.26.037h.091a3.23 3.23 0 00-.591.896c.323.037.628.019.924-.046-.009.019-.027.046-.037.065a1.209 1.209 0 00-.083.259 1.26 1.26 0 00.12.823c.12.25.324.453.564.573.87.268 1.526-.527 1.036-1.073-.028.315-.425.61-.73.435a.55.55 0 01-.241-.26.658.658 0 01-.065-.369.495.495 0 01.102-.212.95.95 0 01.102-.111c.212-.176.508-.26.749-.213.037.01.083.018.12.037a.62.62 0 01.11.055c.186.12.315.342.352.592.037.305-.083.934-.194 1.526l-.102.554a4.01 4.01 0 00-.037.24l-.028.186-.055.295c-.12.638-.25 1.332-.194 1.748.055.434.296.832.647 1.072.074.047.148.093.231.12a.448.448 0 00.102.038c-.305.147-.592.36-.878.647.286.138.573.23.86.268-.02.01-.028.028-.047.037-.065.064-.12.138-.166.212-.148.25-.204.537-.176.814.028.277.148.546.342.73.721.555 1.618.028 1.34-.647-.129.287-.6.435-.84.157a.578.578 0 01-.14-.323.56.56 0 01.075-.37.514.514 0 01.064-.083.973.973 0 01.111-.093.924.924 0 01.14-.064.978.978 0 01.776.055c.037.019.064.046.101.074a.375.375 0 01.084.092c.138.185.175.435.129.675-.074.306-.398.851-.703 1.369-.11.175-.212.36-.286.49l-.12.213c-.028.055-.065.11-.093.166-.055.092-.102.175-.157.259-.333.564-.694 1.165-.786 1.572-.092.425-.01.887.25 1.23a1.195 1.195 0 00.277.276 2.976 2.976 0 00-1.054.315c.213.222.453.407.703.545-.019.01-.028.01-.047.019a.962.962 0 00-.23.139 1.297 1.297 0 00-.38 1.507c.49.767 1.507.573 1.48-.148-.222.221-.712.194-.842-.14-.046-.091-.046-.221-.018-.35a.58.58 0 01.194-.324l.083-.056a.813.813 0 01.287-.065c.277 0 .554.13.712.324a.619.619 0 01.11.222.845.845 0 01-.11.675c-.167.26-.666.666-1.128 1.045-.167.13-.324.259-.435.36-.074.065-.13.111-.185.158-.046.037-.092.083-.138.12-.084.065-.158.13-.232.194-.508.416-1.044.86-1.276 1.211a1.48 1.48 0 00-.184 1.24c.027.082.055.166.092.24.019.046.046.083.074.129a3.28 3.28 0 00-1.1-.074c.12.277.277.527.462.74h-.037a1.225 1.225 0 00-.268.055 1.34 1.34 0 00-.656.509 1.24 1.24 0 00-.213.776c.203.888 1.22 1.054 1.442.37-.286.139-.74-.055-.749-.416a.538.538 0 01.102-.333.576.576 0 01.296-.24.333.333 0 01.102-.019.79.79 0 01.295.047.95.95 0 01.555.545c.01.037.019.083.028.12.01.046.01.083.01.13a.815.815 0 01-.334.591c-.25.185-.85.398-1.414.601-.194.074-.389.139-.527.185-.093.037-.167.056-.231.083-.056.019-.12.047-.176.065-.102.037-.194.065-.287.102-.62.212-1.275.444-1.608.703a1.525 1.525 0 00-.601 1.1c-.01.092 0 .175.009.259l.028.157a3.143 3.143 0 00-1.008-.444c.018.296.083.583.176.832-.01 0-.028-.01-.037-.01a.933.933 0 00-.269-.036 1.254 1.254 0 00-.785.259 1.216 1.216 0 00-.463.656c-.12.897.786 1.415 1.23.842-.314.027-.675-.306-.555-.648a.505.505 0 01.213-.277.583.583 0 01.36-.12c.038 0 .065.009.102.018.046.01.093.028.139.056.046.027.083.055.13.083a.91.91 0 01.332.703c0 .046-.01.083-.018.12a.46.46 0 01-.037.12.858.858 0 01-.518.444c-.296.092-.934.083-1.535.074-.212 0-.416-.01-.564 0h-.73c-.657-.01-1.35-.019-1.757.11-.416.13-.767.435-.943.824a1.318 1.318 0 00-.11.416 3.131 3.131 0 00-.796-.758c-.083.286-.12.563-.12.84-.01-.008-.028-.018-.037-.027a.87.87 0 00-.24-.13 1.285 1.285 0 00-.833-.027 1.21 1.21 0 00-.656.462c-.416.805.259 1.6.869 1.211-.305-.083-.527-.517-.305-.795a.575.575 0 01.296-.194.59.59 0 01.379.01.377.377 0 01.092.046c.037.027.074.064.111.101.037.037.065.083.093.12.138.24.166.546.074.777l-.056.111c-.028.037-.046.074-.074.102a.836.836 0 01-.638.24c-.314-.018-.906-.24-1.47-.453a15.224 15.224 0 00-.527-.194c-.092-.037-.166-.056-.23-.083-.056-.019-.121-.047-.177-.065-.101-.037-.184-.074-.286-.111-.61-.231-1.267-.48-1.683-.5a1.546 1.546 0 00-1.165.454 1.09 1.09 0 00-.157.203 2.086 2.086 0 00-.083.148 3.026 3.026 0 00-.48-.961 3.04 3.04 0 00-.399.74c-.009-.02-.018-.029-.027-.047-.056-.074-.111-.148-.185-.203a1.283 1.283 0 00-.768-.315 1.26 1.26 0 00-.776.204c-.666.61-.305 1.59.407 1.433-.26-.185-.324-.675-.01-.85.084-.066.213-.084.342-.084a.65.65 0 01.352.13c.028.018.046.046.065.073a.566.566 0 01.064.13.903.903 0 01.047.148.947.947 0 01-.195.749.858.858 0 01-.092.083c-.037.027-.074.046-.102.064a.838.838 0 01-.684.01c-.287-.12-.777-.537-1.22-.925-.157-.139-.315-.268-.426-.36a8.925 8.925 0 00-.185-.157c-.046-.038-.092-.084-.148-.12a5.142 5.142 0 01-.23-.195c-.5-.425-1.027-.878-1.415-1.045-.407-.166-.87-.166-1.248.028a.9.9 0 00-.222.139 1.164 1.164 0 00-.12.101 3.076 3.076 0 00-.13-1.053c-.24.166-.453.35-.629.564-.009-.028-.009-.047-.018-.075a1.01 1.01 0 00-.102-.25 1.29 1.29 0 00-.62-.554 1.27 1.27 0 00-.804-.074c-.84.352-.832 1.387-.11 1.489-.185-.26-.075-.74.286-.805a.535.535 0 01.351.047.58.58 0 01.287.25c.018.027.028.064.037.092.01.046.019.092.019.148 0 .055 0 .101-.01.148-.046.277-.222.526-.444.637a.57.57 0 01-.11.047 2.08 2.08 0 00-.12.027c-.223.028-.463-.064-.648-.23-.231-.213-.545-.768-.832-1.286-.102-.185-.203-.36-.277-.49l-.12-.212c-.028-.056-.065-.111-.093-.158a3.86 3.86 0 01-.148-.268c-.323-.573-.666-1.183-.97-1.46-.324-.296-.759-.454-1.184-.398a.995.995 0 00-.25.055c-.046.019-.092.028-.138.047.13-.296.203-.638.23-1.017a2.707 2.707 0 00-.785.323c.01-.028.01-.055.01-.092a.858.858 0 00-.01-.268 1.312 1.312 0 00-.388-.73 1.25 1.25 0 00-.73-.343c-.907.046-1.258 1.017-.611 1.36-.083-.306.185-.722.546-.666a.56.56 0 01.314.157.632.632 0 01.185.333.192.192 0 010 .101l-.028.139a.933.933 0 01-.693.592c-.037.009-.084.009-.12.009-.047 0-.084-.01-.12-.019a.819.819 0 01-.528-.434c-.138-.278-.25-.906-.342-1.498-.037-.203-.065-.407-.092-.555-.019-.101-.028-.166-.047-.24a1.315 1.315 0 00-.037-.185 3.904 3.904 0 01-.046-.296c-.101-.647-.222-1.331-.416-1.71a1.542 1.542 0 00-.98-.786 1.248 1.248 0 00-.259-.037h-.13c.213-.231.398-.518.556-.86a3.01 3.01 0 00-.87.037 1.211 1.211 0 00.13-.351 1.26 1.26 0 00-.12-.823 1.255 1.255 0 00-.564-.573c-.87-.268-1.526.527-1.036 1.072.028-.314.426-.61.73-.434a.55.55 0 01.241.258c.056.12.083.25.065.37-.01.037-.019.065-.028.093a.525.525 0 01-.074.12 1.107 1.107 0 01-.102.11.95.95 0 01-.749.214c-.037-.01-.083-.019-.12-.038a.616.616 0 01-.11-.055c-.186-.12-.315-.342-.352-.592-.037-.305.083-.934.194-1.525l.102-.555c.018-.102.028-.166.037-.24l.028-.185.055-.296c.12-.638.25-1.331.194-1.748a1.545 1.545 0 00-.647-1.072c-.074-.046-.148-.092-.231-.12-.028-.01-.065-.028-.102-.037.278-.148.546-.352.795-.61a2.967 2.967 0 00-.841-.268c.028-.028.065-.056.092-.084.065-.064.12-.138.167-.212.148-.25.203-.537.176-.814a1.177 1.177 0 00-.343-.73c-.72-.555-1.618-.028-1.34.647.13-.287.6-.435.841-.157.074.074.12.194.139.323a.56.56 0 01-.074.37c-.019.028-.037.056-.065.083-.037.037-.074.065-.11.093a.937.937 0 01-.14.064.978.978 0 01-.776-.055c-.037-.018-.065-.046-.102-.074a.378.378 0 01-.083-.092c-.139-.185-.176-.435-.13-.675.075-.305.398-.85.703-1.369.111-.175.213-.36.287-.49l.12-.212c.028-.056.065-.111.092-.167.056-.092.102-.175.158-.259.332-.564.693-1.165.786-1.571.092-.426.009-.888-.25-1.23a1.19 1.19 0 00-.176-.194c-.018-.019-.046-.037-.064-.056a3.37 3.37 0 00.952-.296 2.855 2.855 0 00-.721-.545c.046-.018.083-.028.13-.046a.959.959 0 00.23-.139c.222-.176.38-.434.444-.703a1.257 1.257 0 00-.065-.804c-.49-.767-1.507-.573-1.479.148.222-.222.712-.194.841.139.047.092.047.222.019.351a.533.533 0 01-.194.324l-.084.055a.805.805 0 01-.287.065.942.942 0 01-.711-.324.622.622 0 01-.111-.222c-.065-.212-.018-.462.111-.675.166-.259.666-.665 1.128-1.044.166-.13.324-.26.434-.36.074-.066.13-.112.185-.158.047-.037.093-.083.139-.12.083-.065.157-.13.231-.194.509-.416 1.045-.86 1.276-1.212a1.48 1.48 0 00.093-1.478.526.526 0 00-.037-.066c.305.065.628.084.989.047a2.798 2.798 0 00-.5-.777h.148a1.26 1.26 0 00.269-.055c.277-.093.499-.287.656-.509a1.24 1.24 0 00.213-.777c-.204-.887-1.22-1.054-1.443-.37.287-.138.74.056.75.417a.537.537 0 01-.102.332.575.575 0 01-.296.24c-.037.01-.065.02-.102.02-.046 0-.102 0-.148-.01a.695.695 0 01-.148-.037.95.95 0 01-.555-.545l-.027-.12c-.01-.047-.01-.084-.01-.13a.815.815 0 01.333-.592c.25-.185.85-.397 1.415-.6.194-.075.388-.14.527-.186.092-.037.166-.055.231-.083.055-.018.12-.046.176-.065.101-.037.194-.064.286-.101.62-.213 1.276-.444 1.609-.703.351-.268.573-.675.6-1.1.01-.093 0-.176-.008-.259 0-.018-.01-.037-.01-.056.26.167.564.296.916.38a2.944 2.944 0 00-.213-.916.754.754 0 00.139.046.936.936 0 00.268.037c.287.01.564-.092.786-.258a1.22 1.22 0 00.462-.657c.12-.897-.786-1.414-1.23-.841.315-.028.675.305.555.647a.505.505 0 01-.213.277.532.532 0 01-.36.12c-.037 0-.065-.009-.102-.018a.436.436 0 01-.138-.055c-.047-.028-.084-.056-.13-.084a.91.91 0 01-.333-.702c0-.037.01-.083.019-.12a.46.46 0 01.037-.12.857.857 0 01.517-.444c.296-.093.934-.084 1.535-.074.213 0 .416.009.564 0h.731c.656.009 1.35.018 1.756-.111.416-.13.768-.435.943-.823.037-.083.065-.167.084-.25 0-.018.009-.037.009-.055.194.25.434.471.74.684.092-.324.129-.638.11-.934.037.028.074.065.111.093a.869.869 0 00.24.129c.269.102.565.11.833.028.268-.083.508-.24.656-.463.416-.804-.259-1.599-.869-1.21.305.082.527.517.305.794a.575.575 0 01-.296.195.59.59 0 01-.471-.056 1.098 1.098 0 01-.111-.102c-.037-.037-.065-.083-.093-.12a.927.927 0 01-.074-.776l.056-.111c.028-.037.046-.074.074-.102a.836.836 0 01.638-.24c.314.018.906.24 1.47.453.194.074.388.147.527.194.092.037.166.055.231.083.055.018.12.046.176.065.101.037.194.074.286.11.61.232 1.267.481 1.683.5a1.55 1.55 0 001.165-.453c.065-.065.11-.13.157-.204.01-.018.018-.027.028-.046.092.305.25.601.462.906.194-.268.342-.554.435-.841.018.037.046.074.064.11.056.075.111.149.185.204.213.194.5.296.768.315a1.26 1.26 0 00.776-.204c.666-.62.305-1.59-.407-1.433.26.185.324.675.01.85-.084.065-.213.084-.342.084a.65.65 0 01-.352-.13.25.25 0 01-.065-.073.583.583 0 01-.064-.13.435.435 0 01-.037-.148.947.947 0 01.194-.749.837.837 0 01.092-.083c.037-.028.074-.046.102-.065a.838.838 0 01.684-.009c.287.12.777.536 1.22.925.158.138.315.268.426.36.074.065.13.111.185.157.046.037.092.084.148.12.083.065.157.13.231.195.5.425 1.026.878 1.415 1.045.406.166.869.166 1.248-.028a.9.9 0 00.222-.139c.018-.01.027-.028.046-.037-.019.324.027.666.13 1.026.277-.185.508-.406.693-.647l.027.111c.028.093.056.176.102.25.139.25.36.444.62.554.25.111.545.14.804.074.841-.35.832-1.386.11-1.488.186.259.075.74-.286.804a.536.536 0 01-.351-.046.586.586 0 01-.287-.25c-.018-.027-.027-.064-.037-.092-.009-.046-.018-.092-.018-.148 0-.055 0-.102.01-.148.045-.277.221-.527.443-.638a.563.563 0 01.11-.046l.121-.028c.222-.028.462.065.647.231.231.213.546.768.832 1.285.102.185.204.361.278.49.046.084.083.148.12.213.028.056.065.111.092.157.056.093.102.176.148.268.324.574.666 1.184.971 1.461.324.296.758.453 1.183.398a.993.993 0 00.25-.056c.019-.009.046-.018.065-.027-.13.295-.213.638-.24 1.026a2.77 2.77 0 00.905-.36z" fill="#B01C2E"/><path fill-rule="evenodd" clip-rule="evenodd" d="M23.854 21.343l3.846-2.616 1.072 1.007.564-.49 3.467 2.071-3.393-.924.878.906-2.2-.832-.518.952-.212-1.248-1.156 1.174.055-.906-2.404.906z" fill="#0072C6"/><path fill-rule="evenodd" clip-rule="evenodd" d="M28.321 27.85c-.333.527-.748 1.091-1.266 1.396.462.12 1.09.805 1.155 1.59.093 1.046-.869 2.414-2.274 2.423-.546 0-1.137-.074-1.544-.48-.416-.01-.62.138-.6.452-.093-.185-.278-.36-.27-.564.01-.185.075-.508.278-.554-.148-.333-.277-.675-.286-1.11-.028-1.276 1.072-2.339 1.71-2.912-.323-.222-.323-.527 0-.925.065.352.268.462.601.333.629-.453 1.258-.878 1.258-1.923 0-.749-.694-1.193-1.286-1.248-.573-.046-1.146.471-1.118.99.027.443.323.822.85.803.213-.009.425-.24.398-.443-.037-.305-.462-.315-.675-.148-.111-.398.24-.694.638-.694.416.01.703.37.703.832-.01.583-.537 1.054-1.091 1.082a1.013 1.013 0 01-.564-.12c.055.259-.269.804-.694.841-.398.028-.841-.471-.564-.896.13.101.231.332.388.295.204-.037.389-.332.407-.527-.194-.064-.48-.49-.48-.943 0-.222.018-.416.12-.656-.777-.065-.675-.85-.342-1.1.037.407.277.62.675.499.24-.333.813-.536 1.312-.518 1.082.046 2.034.721 2.062 1.905.056 2.7-3.014 2.7-3.014 4.807 0 .712.527 1.156 1.054 1.138.194-.01.388-.213.425-.407.047-.259-.101-.49-.314-.527-.203-.028-.37.092-.49.287-.194-.398-.01-.934.546-.934.6.009.998.471 1.007 1.118.01.61-.6 1.138-1.165 1.156-.758.028-1.285-.5-1.618-1.359-.064 1.248.87 1.775 1.674 1.766.887-.01 1.627-.814 1.59-1.692-.046-.915-.897-1.36-1.6-1.563 1.12-.712 2.08-1.729 2.414-3.152.332 1.424 1.294 2.45 2.413 3.152-.712.204-1.563.657-1.6 1.563-.037.878.703 1.683 1.59 1.692.805.01 1.748-.518 1.674-1.766-.333.86-.86 1.387-1.618 1.36-.564-.02-1.174-.546-1.165-1.157.01-.647.407-1.11 1.008-1.118.555-.01.74.536.545.934-.12-.195-.286-.315-.49-.287-.212.028-.36.268-.314.527.037.185.231.397.425.407.527.018 1.036-.426 1.054-1.138.056-2.052-3.079-2.107-3.014-4.807.028-1.184.98-1.859 2.062-1.905.5-.018 1.072.185 1.313.518.397.11.638-.093.675-.5.342.25.434 1.036-.342 1.1.101.232.12.426.12.657 0 .453-.287.879-.481.943.01.195.203.49.407.527.157.028.259-.203.388-.296.268.426-.166.925-.564.897-.416-.037-.74-.582-.693-.841-.213.102-.36.139-.564.12-.564-.028-1.091-.5-1.091-1.082 0-.462.286-.822.702-.832.398-.009.75.296.638.694-.212-.176-.638-.157-.675.148-.027.212.185.444.398.453.527.018.823-.36.85-.805.038-.517-.536-1.035-1.118-.989-.592.046-1.285.5-1.285 1.248 0 1.045.628 1.47 1.257 1.923.333.13.527.019.601-.332.324.397.324.702 0 .924.638.573 1.738 1.646 1.71 2.912-.009.435-.129.768-.286 1.11.203.037.277.36.277.555.01.212-.175.379-.268.563.019-.305-.175-.462-.6-.453-.398.407-1 .481-1.545.481-1.405-.009-2.367-1.377-2.274-2.422.064-.786.693-1.46 1.155-1.59-.527-.315-.952-.879-1.285-1.406z" fill="#B01C2E"/><path fill-rule="evenodd" clip-rule="evenodd" d="M38.028 36.617l-.878.86h-8.146a.853.853 0 01-.712-.444c-.129.194-.305.444-.675.444h-8.339l-.647-.86h.629l.323-15.255h-.203v-.5h.379v-.47h.416v-.435h.333v-.555h.499v.555h.333v.434h.416v.472h.379v.499h-.176l.305 15.255h3.273a.366.366 0 01.352-.277c.166 0 .314.12.35.277h.805c.407 0 .934-.555 1.24-1.405.35.924.748 1.405 1.127 1.405h.943a.366.366 0 01.352-.277c.166 0 .314.12.35.277h3.098l.166-7.304h-.166v-.758h.185l.074-3.328h-.259v-.75h.277l.074-3.328h-.35v-.758h.369l.01-.444h.378l-.01.444h1.637l-.009-.444h.38l.009.444h.37v.758h-.352l.074 3.329h.277v.758h-.259l.074 3.328h.185v.758h-.166l.166 7.304h.74v-.009zm-3.476 0h.62v-.656h.387v-.194h-.166v-.38h.176v-1.664l-.99 2.82h-.027v.074zm1.756 0h.62v-.065h-.037l-.971-2.773v1.618h.176v.379h-.176v.194h.388v.647zm-.758-3.754h-.915l-.065 2.793.98-2.793zm1.36 2.848l-.066-2.848h-.933l.998 2.848zm-.454-14.571h-1.433l.712 1.424.721-1.424zm-1.562.157l-.074 3.088.813-1.618-.74-1.47zm.092 3.18h1.507l-.758-1.497-.749 1.498zm1.664-.101l-.074-3.07-.74 1.461.814 1.609zm-.074.85h-1.664l.832 1.424.832-1.423zm-1.775.232l-.065 2.912.888-1.516-.823-1.396zm.065 3.106h1.757l-.879-1.498-.878 1.498zm1.877-.203l-.065-2.903-.813 1.396.878 1.507zm-.157 4.132l-.842-1.34-.841 1.34h1.683zm.25-.009l-.066-2.968-.896 1.434.961 1.534zm-.195-3.17h-1.803l.897 1.432.906-1.433zm-1.932.203l-.065 2.976.97-1.544-.905-1.433zm-15.043 7.1h.75v-1.701c0-.167.12-.425.37-.416.249.01.341.25.341.416v1.701h.749l-.305-15.255h-1.572l-.333 15.255zm.934-6.601v.924h.342v-.924c0-.083-.046-.204-.166-.204-.12 0-.176.12-.176.204zm0-3.772v.924h.342v-.924c0-.084-.046-.204-.166-.204-.12-.01-.176.12-.176.204zm0-3.67v.924h.342v-.925c0-.083-.046-.203-.166-.203-.12-.01-.176.12-.176.203z" fill="#0072C6"/></svg>