<svg width="447" height="8" fill="none" xmlns="http://www.w3.org/2000/svg"><path fill="#C6C6C6" d="M8 0h151v8H8z"/><path fill="#01592F" d="M168 0h40v8h-40z"/><path fill="#000" fill-opacity=".2" d="M168 0h40v8h-40z"/><path fill="#01592F" d="M216 0h41v8h-41z"/><path fill="#000" fill-opacity=".2" d="M216 0h41v8h-41z"/><path fill="#01592F" d="M266 0h88v8h-88z"/><path fill="#000" fill-opacity=".2" d="M266 0h88v8h-88z"/><path fill="#01592F" d="M361 0h8v8h-8z"/><path fill="#000" fill-opacity=".2" d="M361 0h8v8h-8z"/><path fill="#01592F" d="M377 0h70v8h-70z"/><path fill="#000" fill-opacity=".2" d="M377 0h70v8h-70z"/><path fill="#007434" d="M159 0h9v8h-9zm49 0h8v8h-8zm48 0h10v8h-10zm98 0h7v8h-7zm15 0h8v8h-8zM0 0h8v8H0z"/></svg>