<svg width="1088" height="8" fill="none" xmlns="http://www.w3.org/2000/svg"><path fill="#C6C6C6" d="M97 0h39v8H97zm209 0h88v8h-88zm342 0h40v8h-40zm208 0h40v8h-40z"/><path fill="#01592F" d="M0 0h88v8H0z"/><path fill="#000" fill-opacity=".2" d="M0 0h88v8H0z"/><path fill="#01592F" d="M145 0h88v8h-88z"/><path fill="#000" fill-opacity=".2" d="M145 0h88v8h-88z"/><path fill="#01592F" d="M257 0h40v8h-40z"/><path fill="#000" fill-opacity=".2" d="M257 0h40v8h-40z"/><path fill="#01592F" d="M401 0h40v8h-40z"/><path fill="#000" fill-opacity=".2" d="M401 0h40v8h-40z"/><path fill="#01592F" d="M448 0h8v8h-8z"/><path fill="#000" fill-opacity=".2" d="M448 0h8v8h-8z"/><path fill="#01592F" d="M463 0h176v8H463z"/><path fill="#000" fill-opacity=".2" d="M463 0h176v8H463z"/><path fill="#01592F" d="M696 0h87v8h-87z"/><path fill="#000" fill-opacity=".2" d="M696 0h87v8h-87z"/><path fill="#01592F" d="M792 0h8v8h-8z"/><path fill="#000" fill-opacity=".2" d="M792 0h8v8h-8z"/><path fill="#01592F" d="M808 0h40v8h-40z"/><path fill="#000" fill-opacity=".2" d="M808 0h40v8h-40z"/><path fill="#01592F" d="M905 0h87v8h-87z"/><path fill="#000" fill-opacity=".2" d="M905 0h87v8h-87z"/><path fill="#01592F" d="M999 0h8v8h-8z"/><path fill="#000" fill-opacity=".2" d="M999 0h8v8h-8z"/><path d="M1015 0h73v8h-73V0z" fill="#01592F"/><path d="M1015 0h73v8h-73V0z" fill="#000" fill-opacity=".2"/><path fill="#01592F" d="M241 0h7v8h-7z"/><path fill="#000" fill-opacity=".2" d="M241 0h7v8h-7z"/><path fill="#007434" d="M992 0h7v8h-7zm-96 0h9v8h-9zm-48 0h8v8h-8zm-48 0h8v8h-8zm-17 0h9v8h-9zm-95 0h8v8h-8zm-49 0h9v8h-9zM456 0h7v8h-7zm-15 0h7v8h-7zm-47 0h7v8h-7zm-97 0h9v8h-9zm-49 0h9v8h-9zm-15 0h8v8h-8zm-97 0h9v8h-9zM88 0h9v8h-9zm919 0h8v8h-8z"/></svg>