<svg width="2052" height="12" fill="none" xmlns="http://www.w3.org/2000/svg"><path d="M848 0h-72v12h72V0zm696 0h-132v12h132V0zm-480 0H932v12h132V0zm241.03 0h-132v12h132V0zM452.16 12H608V0H452.16v12zM764.561 0h-12v12h12V0zm311.879 12h12V0h-12v12zM1567 0h-12v12h12V0zm-239 0h-12v12h12V0z" fill="#01592F"/><path d="M740 0H620v12h120V0z" fill="#BCBEC0"/><path d="M212.29 12h60V0h-60v12zM0 12h200V0H0v12zM368.03 0h-83.74v12h83.74V0z" fill="#01592F"/><path d="M440.029 0h-60v12h60V0z" fill="#BCBEC0"/><path d="M1920 0h-54v12h54V0z" fill="#01592F"/><path d="M920 0h-60v12h60V0zm240 0h-60v12h60V0z" fill="#BCBEC0"/><path d="M1640 0h-60v12h60V0z" fill="#01592F"/><path d="M1399.91 0h-60v12h60V0z" fill="#BCBEC0"/><path d="M1978 0h-54v12h54V0zm74 0h-62v12h62V0zm-197 0h-202v12h202V0z" fill="#01592F"/><path fill="#007434" d="M200 0h12v12h-12zm72 0h12v12h-12zm96 0h12v12h-12zm72 0h12v12h-12zm168 0h12v12h-12zm132 0h12v12h-12zm25 0h12v12h-12zm83 0h12v12h-12zm72 0h12v12h-12zm144 0h12v12h-12zm24 0h12v12h-12zm72 0h13v12h-13zm145 0h12v12h-12zm23 0h12v12h-12zm72 0h12v12h-12zm144 0h12v12h-12zm96 0h13v12h-13zm215 0h11v12h-11zm65 0h4v12h-4zm58 0h12v12h-12zm-411 0h13v12h-13z"/></svg>