<svg width="1920" height="12" fill="none" xmlns="http://www.w3.org/2000/svg"><path d="M1064 0h-72v12h72V0zm502.44 0h-72v12h72V0zM1920 0h-102v12h102V0zM824 0H692v12h132V0zm482 0h-132v12h132V0zM452.16 12H608V0H452.16v12zM1483 0h-12v12h12V0zm324 0h-12v12h12V0zM836.439 12h12V0h-12v12zM1088 0h-12v12h12V0zm241 0h-12v12h12V0z" fill="#01592F"/><path d="M980 0H860v12h120V0zm480 0h-120v12h120V0zm323 0h-203v12h203V0zM440.029 0h-60v12h60V0zM680 0h-60v12h60V0z" fill="#BCBEC0"/><path d="M212.29 12h60V0h-60v12zM0 12h200V0H0v12zM368.03 0h-83.74v12h83.74V0z" fill="#01592F"/><path d="M1159.94 0h-60v12h60V0z" fill="#BCBEC0"/><path fill="#007434" d="M200 0h12v12h-12zm72 0h12v12h-12zm96 0h12v12h-12zm72 0h12v12h-12zm168 0h12v12h-12zm72 0h12v12h-12zm144 0h13v12h-13zm24 0h12v12h-12zm132 0h12v12h-12zm84 0h12v12h-12zm24 0h12v12h-12zm72 0h14v12h-14zm146 0h11v12h-11zm23 0h11v12h-11zm131 0h11v12h-11zm23 0h13v12h-13zm83 0h14v12h-14zm217 0h12v12h-12zm24 0h11v12h-11z"/></svg>